<?xml version="1.0" encoding="UTF-8"?><svg id="Layer_1" xmlns="http://www.w3.org/2000/svg" viewBox="0 0 403 302.07"><g><path d="M8.51,5.89c.58,.22,1.12,.57,1.62,1.02l-1.04,1.2c-.39-.33-.79-.57-1.19-.72-.4-.15-.83-.22-1.29-.22-.51,0-.93,.11-1.24,.34s-.47,.55-.47,.97c0,.28,.06,.51,.18,.69,.12,.18,.34,.35,.66,.51s.79,.34,1.42,.53c1.09,.34,1.91,.77,2.46,1.27,.55,.51,.82,1.25,.82,2.22,0,.66-.17,1.25-.5,1.76s-.82,.91-1.45,1.2c-.63,.29-1.38,.43-2.24,.43s-1.6-.14-2.26-.41c-.67-.27-1.24-.64-1.72-1.11l1.09-1.22c.43,.36,.87,.64,1.33,.82,.46,.19,.96,.28,1.52,.28,.61,0,1.1-.14,1.47-.43,.37-.29,.56-.69,.56-1.22,0-.32-.06-.58-.19-.79s-.35-.39-.66-.56-.76-.34-1.34-.52c-1.17-.36-2.02-.8-2.54-1.31s-.78-1.18-.78-2.02c0-.61,.16-1.14,.48-1.6,.32-.46,.76-.82,1.34-1.07,.57-.26,1.22-.38,1.94-.38,.78,0,1.46,.11,2.03,.34Zm.16-3.89l.78,.9-2.22,1.92h-1.28l-2.22-1.92,.78-.9,2.08,1.33,2.08-1.33Z"/><path d="M18.6,15.34c.1,.15,.26,.27,.49,.36l-.43,1.36c-.48-.04-.87-.16-1.18-.35-.3-.19-.54-.49-.7-.88-.29,.43-.65,.74-1.08,.95-.43,.21-.92,.31-1.45,.31-.84,0-1.51-.24-2-.72-.49-.48-.74-1.11-.74-1.89,0-.92,.33-1.62,1-2.1,.67-.49,1.62-.73,2.86-.73h1.06v-.48c0-.54-.12-.93-.38-1.14-.25-.22-.65-.33-1.21-.33-.62,0-1.37,.15-2.24,.45l-.48-1.39c1.06-.41,2.08-.61,3.07-.61,2.17,0,3.25,.97,3.25,2.91v3.55c0,.33,.05,.57,.15,.73Zm-2.17-.78v-1.71h-.85c-1.32,0-1.98,.49-1.98,1.47,0,.41,.1,.72,.3,.94,.2,.22,.5,.34,.9,.34,.69,0,1.24-.35,1.63-1.04Z"/><path d="M27.21,8.82c.42,.45,.63,1.08,.63,1.9v6.13h-2.05v-5.81c0-.5-.09-.85-.26-1.06-.18-.2-.43-.3-.78-.3s-.67,.11-.95,.33c-.28,.22-.56,.54-.82,.95v5.89h-2.05V8.38h1.78l.16,1.1c.69-.9,1.55-1.34,2.58-1.34,.76,0,1.35,.23,1.77,.68Z"/><path d="M35.13,8.38c.44,.16,.86,.41,1.26,.75l-.91,1.23c-.29-.21-.57-.37-.83-.46-.27-.1-.56-.14-.88-.14-1.27,0-1.9,.97-1.9,2.9,0,.98,.17,1.69,.5,2.12,.33,.43,.8,.65,1.41,.65,.3,0,.57-.05,.82-.14,.25-.1,.55-.25,.89-.46l.91,1.3c-.8,.65-1.71,.98-2.74,.98-.81,0-1.51-.18-2.11-.54s-1.06-.87-1.38-1.53c-.32-.66-.48-1.44-.48-2.34s.16-1.69,.48-2.38c.32-.69,.78-1.22,1.38-1.6s1.3-.57,2.1-.57c.55,0,1.05,.08,1.5,.24Z"/><path d="M44.45,13.25h-5.31c.06,.82,.28,1.41,.64,1.76,.36,.35,.84,.53,1.44,.53,.37,0,.72-.06,1.06-.18,.33-.12,.68-.31,1.06-.57l.85,1.17c-.94,.76-1.98,1.14-3.14,1.14-1.29,0-2.29-.39-2.98-1.18-.7-.79-1.05-1.87-1.05-3.23,0-.86,.15-1.64,.45-2.33,.3-.69,.73-1.23,1.3-1.62,.57-.39,1.24-.58,2.02-.58,1.18,0,2.1,.38,2.75,1.13,.65,.75,.98,1.8,.98,3.14,0,.11-.02,.38-.05,.83Zm-1.98-1.42c0-1.48-.55-2.22-1.65-2.22-.5,0-.89,.18-1.18,.55-.28,.37-.45,.96-.5,1.77h3.33v-.1Z"/><path d="M56.62,8.82c.42,.45,.63,1.08,.63,1.9v6.13h-2.05v-5.81c0-.5-.09-.85-.26-1.06-.18-.2-.43-.3-.78-.3s-.67,.11-.95,.33c-.28,.22-.56,.54-.82,.95v5.89h-2.05V8.38h1.78l.16,1.1c.69-.9,1.55-1.34,2.58-1.34,.76,0,1.35,.23,1.77,.68Z"/><path d="M66.04,15.34c.1,.15,.26,.27,.49,.36l-.43,1.36c-.48-.04-.87-.16-1.18-.35-.3-.19-.54-.49-.7-.88-.29,.43-.65,.74-1.08,.95-.43,.21-.92,.31-1.45,.31-.84,0-1.51-.24-2-.72-.49-.48-.74-1.11-.74-1.89,0-.92,.33-1.62,1-2.1,.67-.49,1.62-.73,2.86-.73h1.06v-.48c0-.54-.12-.93-.38-1.14-.25-.22-.65-.33-1.21-.33-.62,0-1.37,.15-2.24,.45l-.48-1.39c1.06-.41,2.08-.61,3.07-.61,2.17,0,3.25,.97,3.25,2.91v3.55c0,.33,.05,.57,.15,.73Zm-2.17-.78v-1.71h-.85c-1.32,0-1.98,.49-1.98,1.47,0,.41,.1,.72,.3,.94,.2,.22,.5,.34,.9,.34,.69,0,1.24-.35,1.63-1.04Z"/><path d="M79.12,9.31c.51,.78,.77,1.87,.77,3.28,0,.88-.13,1.65-.39,2.33-.26,.68-.65,1.21-1.15,1.59s-1.11,.58-1.8,.58c-.9,0-1.61-.31-2.13-.93v3.95l-2.05,.22V8.38h1.79l.11,1.04c.33-.43,.71-.75,1.14-.96,.43-.21,.87-.32,1.34-.32,1.07,0,1.86,.39,2.37,1.17Zm-1.38,3.3c0-1.03-.13-1.78-.4-2.24-.27-.46-.67-.69-1.2-.69-.34,0-.66,.1-.96,.31s-.55,.49-.77,.84v3.81c.39,.59,.91,.88,1.55,.88,1.18,0,1.78-.97,1.78-2.91Z"/><path d="M88.8,13.25h-5.31c.06,.82,.28,1.41,.64,1.76,.36,.35,.84,.53,1.44,.53,.37,0,.72-.06,1.06-.18,.33-.12,.68-.31,1.06-.57l.85,1.17c-.94,.76-1.98,1.14-3.14,1.14-1.29,0-2.29-.39-2.98-1.18-.7-.79-1.05-1.87-1.05-3.23,0-.86,.15-1.64,.45-2.33,.3-.69,.73-1.23,1.3-1.62,.57-.39,1.24-.58,2.02-.58,1.18,0,2.1,.38,2.75,1.13,.65,.75,.98,1.8,.98,3.14,0,.11-.02,.38-.05,.83Zm-1.55-9.2l.78,.9-2.22,2h-1.28l-2.22-2,.78-.9,2.08,1.41,2.08-1.41Zm-.43,7.78c0-1.48-.55-2.22-1.65-2.22-.5,0-.89,.18-1.18,.55-.28,.37-.45,.96-.5,1.77h3.33v-.1Z"/><path d="M95.54,16.45c-.3,.21-.63,.37-1,.48s-.74,.16-1.13,.16c-.83-.01-1.46-.25-1.9-.71-.43-.46-.65-1.15-.65-2.06v-4.46h-1.33v-1.47h1.33v-1.87l2.05-.24v2.11h1.97l-.21,1.47h-1.76v4.42c0,.42,.07,.71,.22,.9,.14,.18,.37,.27,.68,.27s.65-.1,1.01-.3l.72,1.31Z"/><path d="M98.63,4.46c.24,.24,.36,.54,.36,.89s-.12,.65-.36,.88c-.24,.24-.55,.35-.94,.35s-.68-.12-.92-.35c-.24-.23-.36-.53-.36-.88s.12-.65,.36-.89c.24-.24,.55-.36,.92-.36s.7,.12,.94,.36Zm.1,3.93v8.46h-2.05V8.38h2.05Z"/><path d="M101.67,16.52c-.37-.38-.55-.91-.55-1.61V4.99l2.05-.22V14.85c0,.39,.16,.59,.48,.59,.16,0,.32-.03,.48-.08l.43,1.44c-.43,.19-.88,.29-1.36,.29-.65,0-1.16-.19-1.53-.57Z"/><path d="M112.74,13.25h-5.31c.06,.82,.28,1.41,.64,1.76,.36,.35,.84,.53,1.44,.53,.37,0,.72-.06,1.06-.18,.33-.12,.68-.31,1.06-.57l.85,1.17c-.94,.76-1.98,1.14-3.14,1.14-1.29,0-2.29-.39-2.98-1.18-.7-.79-1.05-1.87-1.05-3.23,0-.86,.15-1.64,.45-2.33,.3-.69,.73-1.23,1.3-1.62,.57-.39,1.24-.58,2.02-.58,1.18,0,2.1,.38,2.75,1.13,.65,.75,.98,1.8,.98,3.14,0,.11-.02,.38-.05,.83Zm-1.98-1.42c0-1.48-.55-2.22-1.65-2.22-.5,0-.89,.18-1.18,.55-.28,.37-.45,.96-.5,1.77h3.33v-.1Z"/><path d="M119.47,16.45c-.3,.21-.63,.37-1,.48s-.74,.16-1.13,.16c-.83-.01-1.46-.25-1.9-.71-.43-.46-.65-1.15-.65-2.06v-4.46h-1.33v-1.47h1.33v-1.87l2.05-.24v2.11h1.97l-.21,1.47h-1.76v4.42c0,.42,.07,.71,.22,.9,.14,.18,.37,.27,.68,.27s.65-.1,1.01-.3l.72,1.31Z"/><path d="M127.25,13.25h-5.31c.06,.82,.28,1.41,.64,1.76,.36,.35,.84,.53,1.44,.53,.37,0,.72-.06,1.06-.18,.33-.12,.68-.31,1.06-.57l.85,1.17c-.94,.76-1.98,1.14-3.14,1.14-1.29,0-2.29-.39-2.98-1.18-.7-.79-1.05-1.87-1.05-3.23,0-.86,.15-1.64,.45-2.33,.3-.69,.73-1.23,1.3-1.62,.57-.39,1.24-.58,2.02-.58,1.18,0,2.1,.38,2.75,1.13,.65,.75,.98,1.8,.98,3.14,0,.11-.02,.38-.05,.83Zm-2.42-9.52l.83,1.6-3.62,1.44-.58-1.04,3.36-2Zm.43,8.1c0-1.48-.55-2.22-1.65-2.22-.5,0-.89,.18-1.18,.55-.28,.37-.45,.96-.5,1.77h3.33v-.1Z"/><path d="M139.89,9.31c.51,.78,.77,1.87,.77,3.28,0,.88-.13,1.65-.39,2.33-.26,.68-.65,1.21-1.15,1.59s-1.11,.58-1.8,.58c-.9,0-1.61-.31-2.13-.93v3.95l-2.05,.22V8.38h1.79l.11,1.04c.33-.43,.71-.75,1.14-.96,.43-.21,.87-.32,1.34-.32,1.07,0,1.86,.39,2.37,1.17Zm-1.38,3.3c0-1.03-.13-1.78-.4-2.24-.27-.46-.67-.69-1.2-.69-.34,0-.66,.1-.96,.31s-.55,.49-.77,.84v3.81c.39,.59,.91,.88,1.55,.88,1.18,0,1.78-.97,1.78-2.91Z"/><path d="M147.3,4.05l.78,.9-2.22,2h-1.28l-2.22-2,.78-.9,2.08,1.41,2.08-1.41Zm.4,4.22l-.35,1.98c-.26-.06-.51-.1-.75-.1-.5,0-.9,.18-1.18,.54s-.52,.9-.69,1.64v4.51h-2.05V8.38h1.78l.19,1.66c.2-.61,.5-1.07,.88-1.4,.38-.33,.83-.49,1.33-.49,.31,0,.59,.04,.85,.11Z"/><path d="M155.39,13.25h-5.31c.06,.82,.28,1.41,.64,1.76,.36,.35,.84,.53,1.44,.53,.37,0,.72-.06,1.06-.18,.33-.12,.68-.31,1.06-.57l.85,1.17c-.94,.76-1.98,1.14-3.14,1.14-1.29,0-2.29-.39-2.98-1.18-.7-.79-1.05-1.87-1.05-3.23,0-.86,.15-1.64,.45-2.33,.3-.69,.73-1.23,1.3-1.62,.57-.39,1.24-.58,2.02-.58,1.18,0,2.1,.38,2.75,1.13,.65,.75,.98,1.8,.98,3.14,0,.11-.02,.38-.05,.83Zm-1.98-1.42c0-1.48-.55-2.22-1.65-2.22-.5,0-.89,.18-1.18,.55-.28,.37-.45,.96-.5,1.77h3.33v-.1Z"/><path d="M162.66,8.38v1.47l-4.1,5.39h4.18l-.21,1.6h-6.32v-1.47l4.11-5.39h-3.76v-1.6h6.1Zm-1.04-4.34l.78,.9-2.22,2h-1.28l-2.22-2,.78-.9,2.08,1.41,2.08-1.41Z"/><path d="M166.28,4.46c.24,.24,.36,.54,.36,.89s-.12,.65-.36,.88c-.24,.24-.55,.35-.94,.35s-.68-.12-.92-.35c-.24-.23-.36-.53-.36-.88s.12-.65,.36-.89c.24-.24,.55-.36,.92-.36s.7,.12,.94,.36Zm.1,3.93v8.46h-2.05V8.38h2.05Z"/><path d="M173.7,16.45c-.3,.21-.63,.37-1,.48s-.74,.16-1.13,.16c-.83-.01-1.46-.25-1.9-.71-.43-.46-.65-1.15-.65-2.06v-4.46h-1.33v-1.47h1.33v-1.87l2.05-.24v2.11h1.97l-.21,1.47h-1.76v4.42c0,.42,.07,.71,.22,.9,.14,.18,.37,.27,.68,.27s.65-.1,1.01-.3l.72,1.31Z"/><path d="M177.09,3.73l.83,1.6-3.62,1.44-.58-1.04,3.36-2Zm-.19,4.66v8.46h-2.05V8.38h2.05Z"/><path d="M183.83,16.52c-.37-.38-.55-.91-.55-1.61V4.99l2.05-.22V14.85c0,.39,.16,.59,.48,.59,.16,0,.32-.03,.48-.08l.43,1.44c-.43,.19-.88,.29-1.36,.29-.65,0-1.16-.19-1.53-.57Z"/><path d="M194.9,13.25h-5.31c.06,.82,.28,1.41,.64,1.76,.36,.35,.84,.53,1.44,.53,.37,0,.72-.06,1.06-.18,.33-.12,.68-.31,1.06-.57l.85,1.17c-.94,.76-1.98,1.14-3.14,1.14-1.29,0-2.29-.39-2.98-1.18-.7-.79-1.05-1.87-1.05-3.23,0-.86,.15-1.64,.45-2.33,.3-.69,.73-1.23,1.3-1.62,.57-.39,1.24-.58,2.02-.58,1.18,0,2.1,.38,2.75,1.13,.65,.75,.98,1.8,.98,3.14,0,.11-.02,.38-.05,.83Zm-2.42-9.52l.83,1.6-3.62,1.44-.58-1.04,3.36-2Zm.43,8.1c0-1.48-.55-2.22-1.65-2.22-.5,0-.89,.18-1.18,.55-.28,.37-.45,.96-.5,1.77h3.33v-.1Z"/><path d="M201.69,8.38c.44,.16,.86,.41,1.26,.75l-.91,1.23c-.29-.21-.57-.37-.83-.46-.27-.1-.56-.14-.88-.14-1.27,0-1.9,.97-1.9,2.9,0,.98,.17,1.69,.5,2.12,.33,.43,.8,.65,1.41,.65,.3,0,.57-.05,.82-.14,.25-.1,.55-.25,.89-.46l.91,1.3c-.8,.65-1.71,.98-2.74,.98-.81,0-1.51-.18-2.11-.54s-1.06-.87-1.38-1.53c-.32-.66-.48-1.44-.48-2.34s.16-1.69,.48-2.38c.32-.69,.78-1.22,1.38-1.6s1.3-.57,2.1-.57c.55,0,1.05,.08,1.5,.24Zm.58-4.34l.78,.9-2.22,2h-1.28l-2.22-2,.78-.9,2.08,1.41,2.08-1.41Z"/><path d="M211.01,13.25h-5.31c.06,.82,.28,1.41,.64,1.76,.36,.35,.84,.53,1.44,.53,.37,0,.72-.06,1.06-.18,.33-.12,.68-.31,1.06-.57l.85,1.17c-.94,.76-1.98,1.14-3.14,1.14-1.29,0-2.29-.39-2.98-1.18-.7-.79-1.05-1.87-1.05-3.23,0-.86,.15-1.64,.45-2.33,.3-.69,.73-1.23,1.3-1.62,.57-.39,1.24-.58,2.02-.58,1.18,0,2.1,.38,2.75,1.13,.65,.75,.98,1.8,.98,3.14,0,.11-.02,.38-.05,.83Zm-1.98-1.42c0-1.48-.55-2.22-1.65-2.22-.5,0-.89,.18-1.18,.55-.28,.37-.45,.96-.5,1.77h3.33v-.1Z"/><path d="M219.18,8.82c.42,.45,.63,1.08,.63,1.9v6.13h-2.05v-5.81c0-.5-.09-.85-.26-1.06-.18-.2-.43-.3-.78-.3s-.67,.11-.95,.33c-.28,.22-.56,.54-.82,.95v5.89h-2.05V8.38h1.78l.16,1.1c.69-.9,1.55-1.34,2.58-1.34,.76,0,1.35,.23,1.77,.68Z"/><path d="M226.19,16.88c-.34,1.04-.86,1.86-1.55,2.44-.69,.58-1.64,.92-2.85,1.02l-.21-1.49c.55-.08,1-.21,1.34-.36,.34-.16,.61-.36,.81-.62,.2-.26,.39-.6,.56-1.02h-.7l-2.69-8.46h2.18l1.84,7.1,1.92-7.1h2.11l-2.75,8.5Zm-.06-13.15l.83,1.6-3.62,1.44-.58-1.04,3.36-2Z"/><path d="M235,8.38c.44,.16,.86,.41,1.26,.75l-.91,1.23c-.29-.21-.57-.37-.83-.46-.27-.1-.56-.14-.88-.14-1.27,0-1.9,.97-1.9,2.9,0,.98,.17,1.69,.5,2.12,.33,.43,.8,.65,1.41,.65,.3,0,.57-.05,.82-.14,.25-.1,.55-.25,.89-.46l.91,1.3c-.8,.65-1.71,.98-2.74,.98-.81,0-1.51-.18-2.11-.54s-1.06-.87-1.38-1.53c-.32-.66-.48-1.44-.48-2.34s.16-1.69,.48-2.38c.32-.69,.78-1.22,1.38-1.6s1.3-.57,2.1-.57c.55,0,1.05,.08,1.5,.24Z"/><path d="M244.02,8.83c.43,.46,.64,1.09,.64,1.89v6.13h-2.05v-5.81c0-.5-.09-.85-.26-1.06-.18-.2-.43-.3-.78-.3s-.66,.11-.94,.33-.57,.53-.83,.94v5.9h-2.05V5.01l2.05-.21v4.59c.68-.83,1.5-1.25,2.46-1.25,.75,0,1.33,.23,1.76,.69Z"/><path d="M257.42,9.34c.7,.79,1.05,1.89,1.05,3.27,0,.89-.16,1.67-.48,2.34-.32,.68-.78,1.2-1.38,1.58-.6,.37-1.31,.56-2.13,.56-1.25,0-2.22-.4-2.93-1.19-.7-.79-1.06-1.89-1.06-3.29,0-.88,.16-1.66,.48-2.34,.32-.67,.78-1.19,1.38-1.57s1.31-.56,2.14-.56c1.25,0,2.22,.4,2.92,1.19Zm-4.76,3.27c0,1,.15,1.74,.46,2.22,.3,.47,.76,.71,1.37,.71s1.06-.24,1.37-.72c.3-.48,.46-1.22,.46-2.21s-.15-1.72-.46-2.2-.75-.71-1.35-.71c-1.23,0-1.84,.97-1.84,2.91Z"/><path d="M266.66,8.82c.42,.45,.63,1.08,.63,1.9v6.13h-2.05v-5.81c0-.5-.09-.85-.26-1.06-.18-.2-.43-.3-.78-.3s-.67,.11-.95,.33c-.28,.22-.56,.54-.82,.95v5.89h-2.05V8.38h1.78l.16,1.1c.69-.9,1.55-1.34,2.58-1.34,.76,0,1.35,.23,1.77,.68Z"/><path d="M271.73,4.77v12.08h-2.05V4.99l2.05-.22Zm5.07,3.62l-2.82,3.73,3.09,4.74h-2.35l-2.91-4.62,2.83-3.84h2.16Z"/><path d="M284.42,9.34c.7,.79,1.05,1.89,1.05,3.27,0,.89-.16,1.67-.48,2.34-.32,.68-.78,1.2-1.38,1.58-.6,.37-1.31,.56-2.13,.56-1.25,0-2.22-.4-2.93-1.19-.7-.79-1.06-1.89-1.06-3.29,0-.88,.16-1.66,.48-2.34,.32-.67,.78-1.19,1.38-1.57s1.31-.56,2.14-.56c1.25,0,2.22,.4,2.92,1.19Zm-4.76,3.27c0,1,.15,1.74,.46,2.22,.3,.47,.76,.71,1.37,.71s1.06-.24,1.37-.72c.3-.48,.46-1.22,.46-2.21s-.15-1.72-.46-2.2-.75-.71-1.35-.71c-1.23,0-1.84,.97-1.84,2.91Z"/><path d="M287.86,16.52c-.37-.38-.55-.91-.55-1.61V4.99l2.05-.22V14.85c0,.39,.16,.59,.48,.59,.16,0,.32-.03,.48-.08l.43,1.44c-.43,.19-.88,.29-1.36,.29-.65,0-1.16-.19-1.53-.57Z"/><path d="M298.41,9.34c.7,.79,1.05,1.89,1.05,3.27,0,.89-.16,1.67-.48,2.34-.32,.68-.78,1.2-1.38,1.58-.6,.37-1.31,.56-2.13,.56-1.25,0-2.22-.4-2.93-1.19-.7-.79-1.06-1.89-1.06-3.29,0-.88,.16-1.66,.48-2.34,.32-.67,.78-1.19,1.38-1.57s1.31-.56,2.14-.56c1.25,0,2.22,.4,2.92,1.19Zm-4.76,3.27c0,1,.15,1.74,.46,2.22,.3,.47,.76,.71,1.37,.71s1.06-.24,1.37-.72c.3-.48,.46-1.22,.46-2.21s-.15-1.72-.46-2.2-.75-.71-1.35-.71c-1.23,0-1.84,.97-1.84,2.91Z"/><path d="M308.74,8.83c-.54,.19-1.36,.29-2.45,.29,.52,.23,.91,.53,1.16,.87,.25,.35,.38,.78,.38,1.3,0,.55-.14,1.05-.41,1.47-.27,.43-.67,.76-1.18,1.01-.52,.25-1.12,.37-1.82,.37-.38,0-.72-.04-1.01-.13-.23,.16-.35,.37-.35,.62,0,.39,.34,.59,1.02,.59h1.3c.62,0,1.16,.1,1.62,.3,.46,.2,.82,.49,1.08,.86,.26,.37,.38,.78,.38,1.24,0,.85-.36,1.52-1.09,1.99-.73,.47-1.77,.71-3.14,.71-.98,0-1.75-.1-2.31-.3-.56-.2-.96-.5-1.19-.88-.23-.38-.35-.88-.35-1.47h1.84c0,.3,.06,.53,.17,.7s.31,.3,.61,.38c.29,.09,.72,.13,1.27,.13,.78,0,1.33-.1,1.65-.29,.32-.19,.48-.47,.48-.83,0-.32-.12-.57-.37-.74-.25-.18-.6-.26-1.07-.26h-1.28c-.8,0-1.4-.15-1.81-.46-.41-.31-.61-.7-.61-1.17,0-.3,.09-.59,.26-.86,.18-.28,.42-.51,.73-.7-.51-.27-.89-.59-1.13-.98-.24-.39-.36-.86-.36-1.4,0-.61,.15-1.14,.45-1.6,.3-.46,.71-.81,1.24-1.06,.53-.25,1.13-.38,1.82-.38,.9,.02,1.62-.04,2.17-.2,.55-.16,1.14-.4,1.78-.74l.51,1.63Zm-5.51,1.14c-.26,.29-.39,.69-.39,1.18s.13,.92,.4,1.22,.63,.45,1.1,.45,.86-.15,1.12-.44c.26-.29,.38-.71,.38-1.24,0-1.07-.51-1.6-1.54-1.6-.46,0-.82,.15-1.08,.44Z"/><path d="M311.91,4.46c.24,.24,.36,.54,.36,.89s-.12,.65-.36,.88c-.24,.24-.55,.35-.94,.35s-.68-.12-.92-.35c-.24-.23-.36-.53-.36-.88s.12-.65,.36-.89c.24-.24,.55-.36,.92-.36s.7,.12,.94,.36Zm.1,3.93v8.46h-2.05V8.38h2.05Z"/><path d="M319.38,8.38c.44,.16,.86,.41,1.26,.75l-.91,1.23c-.29-.21-.57-.37-.83-.46-.27-.1-.56-.14-.88-.14-1.27,0-1.9,.97-1.9,2.9,0,.98,.17,1.69,.5,2.12,.33,.43,.8,.65,1.41,.65,.3,0,.57-.05,.82-.14,.25-.1,.55-.25,.89-.46l.91,1.3c-.8,.65-1.71,.98-2.74,.98-.81,0-1.51-.18-2.11-.54s-1.06-.87-1.38-1.53c-.32-.66-.48-1.44-.48-2.34s.16-1.69,.48-2.38c.32-.69,.78-1.22,1.38-1.6s1.3-.57,2.1-.57c.55,0,1.05,.08,1.5,.24Z"/><path d="M324.18,4.77v12.08h-2.05V4.99l2.05-.22Zm5.07,3.62l-2.82,3.73,3.09,4.74h-2.35l-2.91-4.62,2.83-3.84h2.16Z"/><path d="M334.77,16.88c-.34,1.04-.86,1.86-1.55,2.44-.69,.58-1.64,.92-2.85,1.02l-.21-1.49c.55-.08,1-.21,1.34-.36,.34-.16,.61-.36,.81-.62,.2-.26,.39-.6,.56-1.02h-.7l-2.69-8.46h2.18l1.84,7.1,1.92-7.1h2.11l-2.75,8.5Zm-.06-13.15l.83,1.6-3.62,1.44-.58-1.04,3.36-2Z"/><path d="M343.58,8.38c.44,.16,.86,.41,1.26,.75l-.91,1.23c-.29-.21-.57-.37-.83-.46-.27-.1-.56-.14-.88-.14-1.27,0-1.9,.97-1.9,2.9,0,.98,.17,1.69,.5,2.12,.33,.43,.8,.65,1.41,.65,.3,0,.57-.05,.82-.14,.25-.1,.55-.25,.89-.46l.91,1.3c-.8,.65-1.71,.98-2.74,.98-.81,0-1.51-.18-2.11-.54s-1.06-.87-1.38-1.53c-.32-.66-.48-1.44-.48-2.34s.16-1.69,.48-2.38c.32-.69,.78-1.22,1.38-1.6s1.3-.57,2.1-.57c.55,0,1.05,.08,1.5,.24Z"/><path d="M352.59,8.83c.43,.46,.64,1.09,.64,1.89v6.13h-2.05v-5.81c0-.5-.09-.85-.26-1.06-.18-.2-.43-.3-.78-.3s-.66,.11-.94,.33-.57,.53-.83,.94v5.9h-2.05V5.01l2.05-.21v4.59c.68-.83,1.5-1.25,2.46-1.25,.75,0,1.33,.23,1.76,.69Z"/><path d="M9.99,28.51c.51,.78,.77,1.87,.77,3.28,0,.88-.13,1.65-.39,2.33-.26,.68-.65,1.21-1.15,1.59s-1.11,.58-1.8,.58c-.9,0-1.61-.31-2.13-.93v3.95l-2.05,.22v-11.95h1.79l.11,1.04c.33-.43,.71-.75,1.14-.96,.43-.21,.87-.32,1.34-.32,1.07,0,1.86,.39,2.37,1.17Zm-1.38,3.3c0-1.03-.13-1.78-.4-2.24-.27-.46-.67-.69-1.2-.69-.34,0-.66,.1-.96,.31s-.55,.49-.77,.84v3.81c.39,.59,.91,.88,1.55,.88,1.18,0,1.78-.97,1.78-2.91Z"/><path d="M19.02,34.54c.1,.15,.26,.27,.49,.36l-.43,1.36c-.48-.04-.87-.16-1.18-.35-.3-.19-.54-.49-.7-.88-.29,.43-.65,.74-1.08,.95-.43,.21-.92,.31-1.45,.31-.84,0-1.51-.24-2-.72-.49-.48-.74-1.11-.74-1.89,0-.92,.33-1.62,1-2.1,.67-.49,1.62-.73,2.86-.73h1.06v-.48c0-.54-.12-.93-.38-1.14-.25-.22-.65-.33-1.21-.33-.62,0-1.37,.15-2.24,.45l-.48-1.39c1.06-.41,2.08-.61,3.07-.61,2.17,0,3.25,.97,3.25,2.91v3.55c0,.33,.05,.57,.15,.73Zm-2.17-.78v-1.71h-.85c-1.32,0-1.98,.49-1.98,1.47,0,.41,.1,.72,.3,.94,.2,.22,.5,.34,.9,.34,.69,0,1.24-.35,1.63-1.04Z"/><path d="M26.25,27.58c.44,.16,.86,.41,1.26,.75l-.91,1.23c-.29-.21-.57-.37-.83-.46-.27-.1-.56-.14-.88-.14-1.27,0-1.9,.97-1.9,2.9,0,.98,.17,1.69,.5,2.12,.33,.43,.8,.65,1.41,.65,.3,0,.57-.05,.82-.14,.25-.1,.55-.25,.89-.46l.91,1.3c-.8,.65-1.71,.98-2.74,.98-.81,0-1.51-.18-2.11-.54s-1.06-.87-1.38-1.53c-.32-.66-.48-1.44-.48-2.34s.16-1.69,.48-2.38c.32-.69,.78-1.22,1.38-1.6s1.3-.57,2.1-.57c.55,0,1.05,.08,1.5,.24Z"/><path d="M30.94,23.66c.24,.24,.36,.54,.36,.89s-.12,.65-.36,.88c-.24,.24-.55,.35-.94,.35s-.68-.12-.92-.35c-.24-.23-.36-.53-.36-.88s.12-.65,.36-.89c.24-.24,.55-.36,.92-.36s.7,.12,.94,.36Zm.1,3.93v8.46h-2.05v-8.46h2.05Z"/><path d="M40.4,32.45h-5.31c.06,.82,.28,1.41,.64,1.76,.36,.35,.84,.53,1.44,.53,.37,0,.72-.06,1.06-.18,.33-.12,.68-.31,1.06-.57l.85,1.17c-.94,.76-1.98,1.14-3.14,1.14-1.29,0-2.29-.39-2.98-1.18-.7-.79-1.05-1.87-1.05-3.23,0-.86,.15-1.64,.45-2.33,.3-.69,.73-1.23,1.3-1.62,.57-.39,1.24-.58,2.02-.58,1.18,0,2.1,.38,2.75,1.13,.65,.75,.98,1.8,.98,3.14,0,.11-.02,.38-.05,.83Zm-1.98-1.42c0-1.48-.55-2.22-1.65-2.22-.5,0-.89,.18-1.18,.55-.28,.37-.45,.96-.5,1.77h3.33v-.1Z"/><path d="M48.57,28.02c.42,.45,.63,1.08,.63,1.9v6.13h-2.05v-5.81c0-.5-.09-.85-.26-1.06-.18-.2-.43-.3-.78-.3s-.67,.11-.95,.33c-.28,.22-.56,.54-.82,.95v5.89h-2.05v-8.46h1.78l.16,1.1c.69-.9,1.55-1.34,2.58-1.34,.76,0,1.35,.23,1.77,.68Z"/><path d="M56.43,35.65c-.3,.21-.63,.37-1,.48s-.74,.16-1.13,.16c-.83-.01-1.46-.25-1.9-.71-.43-.46-.65-1.15-.65-2.06v-4.46h-1.33v-1.47h1.33v-1.87l2.05-.24v2.11h1.97l-.21,1.47h-1.76v4.42c0,.42,.07,.71,.22,.9,.14,.18,.37,.27,.68,.27s.65-.1,1.01-.3l.72,1.31Z"/><path d="M64.35,36.05h-1.78l-.11-1.18c-.31,.48-.67,.84-1.1,1.07-.42,.23-.92,.35-1.5,.35-.76,0-1.34-.23-1.75-.7-.41-.46-.62-1.11-.62-1.93v-6.08h2.05v5.82c0,.48,.08,.82,.25,1.02,.17,.2,.43,.3,.79,.3,.65,0,1.22-.4,1.71-1.2v-5.95h2.05v8.46Zm-1.95-13.1c.37,.37,.56,.82,.56,1.37s-.19,.99-.57,1.36c-.38,.37-.87,.56-1.46,.56s-1.1-.19-1.48-.56c-.38-.37-.57-.83-.57-1.36s.19-1,.57-1.37,.87-.55,1.48-.55,1.1,.18,1.47,.55Zm-2.05,.74c-.14,.15-.21,.36-.21,.62s.07,.47,.21,.62c.14,.14,.33,.22,.58,.22s.42-.07,.56-.22c.14-.14,.21-.35,.21-.62s-.07-.47-.21-.62-.33-.22-.56-.22c-.25,0-.44,.08-.58,.22Z"/><path d="M68.42,34.06c.25,.25,.38,.55,.38,.93,0,.2-.03,.41-.1,.62-.06,.21-.17,.49-.32,.82l-1.04,2.37h-1.25l.66-2.75c-.36-.25-.54-.6-.54-1.07,0-.36,.12-.67,.37-.91,.25-.25,.55-.37,.91-.37s.68,.12,.94,.37Z"/><path d="M79.03,25.49c.53,.27,.93,.63,1.21,1.09,.28,.46,.42,.97,.42,1.54,0,.61-.13,1.19-.39,1.75-.26,.56-.7,1.18-1.3,1.86-.61,.68-1.5,1.58-2.67,2.7h4.61l-.22,1.62h-6.7v-1.5c1.37-1.39,2.34-2.41,2.94-3.08,.59-.67,1.01-1.24,1.26-1.71,.25-.47,.38-.97,.38-1.48s-.14-.88-.42-1.15c-.28-.28-.66-.42-1.13-.42-.42,0-.78,.09-1.1,.26-.31,.18-.64,.47-.98,.87l-1.25-.99c.91-1.17,2.07-1.76,3.49-1.76,.73,0,1.35,.13,1.88,.4Z"/><path d="M88.98,26.53c.66,.96,.98,2.34,.98,4.14s-.33,3.2-.98,4.17c-.66,.97-1.61,1.45-2.87,1.45s-2.22-.48-2.87-1.45c-.66-.96-.98-2.35-.98-4.17s.33-3.18,.98-4.14,1.61-1.44,2.87-1.44,2.22,.48,2.87,1.44Zm-4.2,1.03c-.28,.61-.42,1.65-.42,3.11s.14,2.52,.42,3.14c.28,.62,.72,.93,1.33,.93s1.05-.31,1.33-.92,.42-1.66,.42-3.14-.14-2.51-.42-3.12c-.28-.61-.72-.91-1.33-.91s-1.05,.31-1.33,.92Z"/><path d="M96.02,25.28v10.77h-2.02v-8.7l-2.4,1.46-.9-1.38,3.5-2.14h1.81Z"/><path d="M105.94,32.02v1.57h-1.3v2.46h-2v-2.46h-4.58v-1.41l3.14-7.1,1.74,.66-2.75,6.29h2.46l.21-2.7h1.78v2.7h1.3Z"/><path d="M106.75,31.86v-1.63h7.49v1.63h-7.49Z"/><path d="M119.4,25.49c.53,.27,.93,.63,1.21,1.09,.28,.46,.42,.97,.42,1.54,0,.61-.13,1.19-.39,1.75-.26,.56-.7,1.18-1.3,1.86-.61,.68-1.5,1.58-2.67,2.7h4.61l-.22,1.62h-6.7v-1.5c1.37-1.39,2.34-2.41,2.94-3.08,.59-.67,1.01-1.24,1.26-1.71,.25-.47,.38-.97,.38-1.48s-.14-.88-.42-1.15c-.28-.28-.66-.42-1.13-.42-.42,0-.78,.09-1.1,.26-.31,.18-.64,.47-.98,.87l-1.25-.99c.91-1.17,2.07-1.76,3.49-1.76,.73,0,1.35,.13,1.88,.4Z"/><path d="M129.35,26.53c.66,.96,.98,2.34,.98,4.14s-.33,3.2-.98,4.17c-.66,.97-1.61,1.45-2.87,1.45s-2.22-.48-2.87-1.45c-.66-.96-.98-2.35-.98-4.17s.33-3.18,.98-4.14,1.61-1.44,2.87-1.44,2.22,.48,2.87,1.44Zm-4.2,1.03c-.28,.61-.42,1.65-.42,3.11s.14,2.52,.42,3.14c.28,.62,.72,.93,1.33,.93s1.05-.31,1.33-.92,.42-1.66,.42-3.14-.14-2.51-.42-3.12c-.28-.61-.72-.91-1.33-.91s-1.05,.31-1.33,.92Z"/><path d="M136.38,25.28v10.77h-2.02v-8.7l-2.4,1.46-.9-1.38,3.5-2.14h1.81Z"/><path d="M146.4,33.15c0,.59-.17,1.12-.5,1.59-.33,.47-.8,.85-1.4,1.13s-1.3,.42-2.1,.42-1.48-.14-2.06-.41c-.59-.27-1.04-.64-1.36-1.11-.32-.47-.48-1-.48-1.58,0-1.24,.68-2.14,2.05-2.72-1.08-.59-1.62-1.43-1.62-2.54,0-.57,.16-1.06,.47-1.5,.31-.43,.74-.76,1.28-.99,.54-.23,1.13-.34,1.77-.34s1.24,.11,1.78,.32c.53,.21,.96,.53,1.27,.94s.47,.91,.47,1.49c0,1.01-.59,1.82-1.78,2.43,1.47,.66,2.21,1.62,2.21,2.88Zm-2.58,1.17c.33-.3,.5-.69,.5-1.17s-.14-.88-.43-1.16-.8-.56-1.54-.82l-.5-.18c-.86,.46-1.3,1.17-1.3,2.13,0,.51,.17,.92,.51,1.21,.34,.29,.8,.44,1.38,.44s1.04-.15,1.38-.45Zm-2.5-7.42c-.27,.25-.41,.6-.41,1.06,0,.43,.13,.77,.38,1.02,.26,.25,.67,.48,1.23,.68l.3,.11c.42-.26,.71-.53,.89-.81,.18-.28,.26-.62,.26-1.02,0-.44-.13-.78-.4-1.03s-.65-.38-1.14-.38-.86,.12-1.13,.37Z"/></g><g><path d="M8.87,54.27c0,.55-.11,1.04-.34,1.46-.23,.42-.56,.75-1,.98-.44,.24-.96,.35-1.57,.35-.92,0-1.63-.25-2.13-.76-.5-.51-.75-1.19-.75-2.03v-5.62h1.14v5.53c0,.64,.14,1.12,.43,1.44,.29,.32,.72,.48,1.31,.48s1.03-.16,1.32-.47c.29-.32,.43-.8,.43-1.45v-5.53h1.15v5.62Z"/><path d="M18.59,50.97c.32,.34,.49,.82,.49,1.42v4.54h-1.1v-4.38c0-.45-.08-.76-.25-.95s-.42-.28-.74-.28-.63,.1-.89,.29-.5,.47-.72,.83v4.49h-1.1v-6.32h.95l.1,.94c.22-.34,.5-.6,.83-.79s.7-.29,1.1-.29c.58,0,1.03,.17,1.35,.52Z"/><path d="M26.05,54.14h-4.03c.05,.7,.22,1.21,.53,1.54,.3,.33,.7,.49,1.18,.49,.3,0,.58-.04,.84-.13,.26-.09,.52-.23,.8-.42l.48,.66c-.67,.53-1.41,.79-2.21,.79-.88,0-1.57-.29-2.06-.86s-.74-1.37-.74-2.38c0-.66,.11-1.24,.32-1.75,.21-.51,.52-.91,.91-1.2,.4-.29,.86-.43,1.4-.43,.84,0,1.48,.28,1.93,.83,.45,.55,.67,1.32,.67,2.29,0,.18,0,.37-.02,.56Zm-1.07-.89c0-.62-.12-1.1-.37-1.43-.25-.33-.62-.49-1.12-.49-.9,0-1.4,.66-1.48,1.99h2.96v-.07Z"/><path d="M28.92,56.54c0,.58-.07,1.05-.22,1.4-.14,.35-.35,.64-.63,.86-.28,.22-.66,.44-1.16,.67l-.32-.8c.31-.14,.55-.29,.72-.43s.29-.34,.38-.59,.13-.6,.13-1.04v-6.01h1.1v5.94Zm.01-8.76c.14,.14,.22,.32,.22,.54s-.07,.39-.22,.53c-.14,.14-.33,.21-.56,.21s-.41-.07-.55-.21c-.14-.14-.22-.32-.22-.53s.07-.4,.22-.54c.14-.14,.33-.22,.55-.22s.42,.07,.56,.22Z"/><path d="M34.53,50.62c.31,.11,.61,.28,.9,.52l-.53,.7c-.22-.16-.44-.28-.65-.35s-.45-.11-.7-.11c-.51,0-.91,.2-1.19,.61-.28,.41-.43,1.01-.43,1.81s.14,1.39,.42,1.77,.68,.57,1.2,.57c.25,0,.48-.04,.68-.11s.44-.2,.7-.37l.5,.72c-.58,.46-1.22,.7-1.93,.7-.86,0-1.53-.29-2.02-.86s-.74-1.37-.74-2.39c0-.67,.11-1.26,.34-1.76,.22-.5,.54-.9,.95-1.18,.41-.28,.9-.42,1.47-.42,.38,0,.72,.05,1.03,.16Zm.52-3.11l.47,.54-1.62,1.36h-.73l-1.63-1.36,.48-.54,1.51,1.01,1.52-1.01Z"/><path d="M41.21,56.02c.09,.12,.22,.22,.4,.28l-.25,.77c-.33-.04-.59-.13-.79-.28-.2-.14-.35-.37-.44-.67-.42,.63-1.05,.95-1.88,.95-.62,0-1.12-.18-1.48-.53-.36-.35-.54-.81-.54-1.38,0-.67,.24-1.19,.73-1.55,.48-.36,1.17-.54,2.06-.54h.97v-.47c0-.45-.11-.77-.32-.96-.22-.19-.55-.29-1-.29s-1.03,.11-1.7,.34l-.28-.8c.78-.29,1.51-.43,2.18-.43,.74,0,1.3,.18,1.67,.55,.37,.36,.55,.88,.55,1.55v2.89c0,.26,.04,.45,.13,.57Zm-1.24-.76v-1.45h-.83c-1.17,0-1.75,.43-1.75,1.3,0,.38,.09,.66,.28,.85,.18,.19,.46,.29,.82,.29,.63,0,1.13-.33,1.49-.98Z"/><path d="M46.1,50.63c.34,.12,.67,.3,.98,.54l-.47,.7c-.29-.18-.56-.32-.82-.41s-.53-.13-.82-.13c-.36,0-.64,.07-.85,.22-.21,.15-.31,.35-.31,.61s.1,.46,.29,.6c.2,.14,.55,.28,1.06,.42,.7,.18,1.23,.42,1.58,.72s.52,.72,.52,1.25c0,.62-.24,1.1-.73,1.43-.48,.33-1.07,.49-1.77,.49-.96,0-1.76-.28-2.39-.83l.59-.67c.54,.41,1.13,.61,1.78,.61,.42,0,.75-.09,.99-.26,.24-.17,.37-.41,.37-.7,0-.21-.04-.39-.13-.52s-.24-.25-.46-.35c-.22-.1-.53-.21-.95-.32-.67-.18-1.16-.41-1.46-.71-.3-.3-.45-.67-.45-1.13,0-.33,.1-.63,.29-.89,.2-.27,.47-.47,.82-.62,.35-.15,.74-.22,1.17-.22s.82,.06,1.16,.18Z"/><path d="M52.02,56.63c-.42,.29-.89,.43-1.42,.43s-.95-.15-1.25-.46-.45-.75-.45-1.34v-3.82h-1.1v-.85h1.1v-1.43l1.1-.13v1.56h1.5l-.12,.85h-1.38v3.77c0,.33,.06,.57,.17,.71,.12,.15,.31,.22,.58,.22,.25,0,.53-.08,.84-.25l.42,.73Z"/><path d="M57.73,54.14h-4.03c.05,.7,.22,1.21,.53,1.54,.3,.33,.7,.49,1.18,.49,.3,0,.58-.04,.84-.13,.26-.09,.52-.23,.8-.42l.48,.66c-.67,.53-1.41,.79-2.21,.79-.88,0-1.57-.29-2.06-.86s-.74-1.37-.74-2.38c0-.66,.11-1.24,.32-1.75,.21-.51,.52-.91,.91-1.2,.4-.29,.86-.43,1.4-.43,.84,0,1.48,.28,1.93,.83,.45,.55,.67,1.32,.67,2.29,0,.18,0,.37-.02,.56Zm-1.02-6.63l.47,.54-1.62,1.36h-.73l-1.63-1.36,.48-.54,1.51,1.01,1.52-1.01Zm-.05,5.75c0-.62-.12-1.1-.37-1.43-.25-.33-.62-.49-1.12-.49-.9,0-1.4,.66-1.48,1.99h2.96v-.07Z"/><path d="M60.6,56.54c0,.58-.07,1.05-.22,1.4-.14,.35-.35,.64-.63,.86-.28,.22-.66,.44-1.16,.67l-.32-.8c.31-.14,.55-.29,.72-.43s.29-.34,.38-.59,.13-.6,.13-1.04v-6.01h1.1v5.94Zm.01-8.76c.14,.14,.22,.32,.22,.54s-.07,.39-.22,.53c-.14,.14-.33,.21-.56,.21s-.41-.07-.55-.21c-.14-.14-.22-.32-.22-.53s.07-.4,.22-.54c.14-.14,.33-.22,.55-.22s.42,.07,.56,.22Z"/><path d="M65.76,50.63c.34,.12,.67,.3,.98,.54l-.47,.7c-.29-.18-.56-.32-.82-.41s-.53-.13-.82-.13c-.36,0-.64,.07-.85,.22-.21,.15-.31,.35-.31,.61s.1,.46,.29,.6c.2,.14,.55,.28,1.06,.42,.7,.18,1.23,.42,1.58,.72s.52,.72,.52,1.25c0,.62-.24,1.1-.73,1.43-.48,.33-1.07,.49-1.77,.49-.96,0-1.76-.28-2.39-.83l.59-.67c.54,.41,1.13,.61,1.78,.61,.42,0,.75-.09,.99-.26,.24-.17,.37-.41,.37-.7,0-.21-.04-.39-.13-.52s-.24-.25-.46-.35c-.22-.1-.53-.21-.95-.32-.67-.18-1.16-.41-1.46-.71-.3-.3-.45-.67-.45-1.13,0-.33,.1-.63,.29-.89,.2-.27,.47-.47,.82-.62,.35-.15,.74-.22,1.17-.22s.82,.06,1.16,.18Zm.44-3.13l.47,.54-1.62,1.36h-.73l-1.63-1.36,.48-.54,1.51,1.01,1.52-1.01Z"/><path d="M69.98,47.31l.49,.92-2.54,1.03-.34-.59,2.39-1.37Zm-.4,3.29v6.32h-1.1v-6.32h1.1Z"/><path d="M75.2,50.62c.31,.11,.61,.28,.9,.52l-.53,.7c-.22-.16-.44-.28-.65-.35s-.45-.11-.7-.11c-.51,0-.91,.2-1.19,.61-.28,.41-.43,1.01-.43,1.81s.14,1.39,.42,1.77,.68,.57,1.2,.57c.25,0,.48-.04,.68-.11s.44-.2,.7-.37l.5,.72c-.58,.46-1.22,.7-1.93,.7-.86,0-1.53-.29-2.02-.86s-.74-1.37-.74-2.39c0-.67,.11-1.26,.34-1.76,.22-.5,.54-.9,.95-1.18,.41-.28,.9-.42,1.47-.42,.38,0,.72,.05,1.03,.16Z"/><path d="M81.93,50.97c.32,.34,.49,.82,.49,1.42v4.54h-1.1v-4.38c0-.45-.09-.76-.26-.95s-.42-.28-.75-.28-.62,.1-.88,.29-.5,.46-.72,.82v4.5h-1.1v-8.86l1.1-.12v3.53c.5-.68,1.12-1.02,1.87-1.02,.58,0,1.03,.17,1.35,.52Z"/><path d="M91.52,50.6v.84l-3.3,4.56h3.34l-.13,.92h-4.45v-.83l3.29-4.56h-3.01v-.94h4.27Z"/><path d="M97.38,50.97c.32,.34,.49,.82,.49,1.42v4.54h-1.1v-4.38c0-.45-.09-.76-.26-.95s-.42-.28-.75-.28-.62,.1-.88,.29-.5,.46-.72,.82v4.5h-1.1v-8.86l1.1-.12v3.53c.5-.68,1.12-1.02,1.87-1.02,.58,0,1.03,.17,1.35,.52Z"/><path d="M104.53,51.34c.49,.59,.74,1.4,.74,2.41,0,.66-.11,1.23-.34,1.73-.22,.5-.55,.89-.97,1.16s-.93,.41-1.51,.41c-.89,0-1.58-.3-2.08-.89s-.74-1.4-.74-2.41c0-.66,.11-1.23,.34-1.73,.22-.5,.55-.89,.97-1.16,.42-.28,.93-.41,1.52-.41,.89,0,1.58,.3,2.07,.89Zm-3.71,2.42c0,1.61,.54,2.41,1.63,2.41s1.63-.81,1.63-2.42-.54-2.41-1.62-2.41-1.64,.81-1.64,2.42Z"/><path d="M111.8,56.92h-.95l-.08-.98c-.24,.39-.52,.68-.83,.86-.31,.18-.69,.27-1.14,.27-.55,0-.98-.17-1.3-.5-.31-.34-.47-.81-.47-1.43v-4.54h1.1v4.42c0,.43,.08,.74,.23,.92,.15,.18,.4,.27,.74,.27,.62,0,1.14-.36,1.58-1.09v-4.51h1.1v6.32Z"/><path d="M118.69,51.32c.42,.58,.64,1.39,.64,2.43,0,.66-.1,1.23-.3,1.73s-.49,.89-.86,1.16-.82,.41-1.32,.41c-.66,0-1.22-.28-1.68-.84l-.11,.7h-.97v-8.87l1.1-.13v3.47c.46-.62,1.05-.94,1.79-.94s1.29,.29,1.72,.87Zm-.97,4.27c.28-.4,.41-1.01,.41-1.84s-.13-1.47-.38-1.85c-.26-.38-.62-.57-1.09-.57-.56,0-1.05,.33-1.48,.98v3.02c.17,.26,.37,.47,.62,.62,.24,.15,.5,.23,.77,.23,.49,0,.87-.2,1.15-.59Z"/><path d="M125.53,50.97c.32,.34,.49,.82,.49,1.42v4.54h-1.1v-4.38c0-.45-.08-.76-.25-.95s-.42-.28-.74-.28-.63,.1-.89,.29-.5,.47-.72,.83v4.49h-1.1v-6.32h.95l.1,.94c.22-.34,.5-.6,.83-.79s.7-.29,1.1-.29c.58,0,1.03,.17,1.35,.52Z"/><path d="M130.69,56.96c-.25,.74-.59,1.32-1.04,1.75-.44,.43-1.08,.69-1.9,.77l-.12-.86c.42-.07,.75-.18,1-.31,.25-.14,.45-.31,.59-.52,.15-.21,.29-.5,.41-.86h-.37l-2.12-6.32h1.18l1.69,5.52,1.66-5.52h1.14l-2.11,6.36Zm.23-9.65l.49,.92-2.54,1.03-.34-.59,2.39-1.37Z"/><path d="M137.35,50.62c.31,.11,.61,.28,.9,.52l-.53,.7c-.22-.16-.44-.28-.65-.35s-.45-.11-.7-.11c-.51,0-.91,.2-1.19,.61-.28,.41-.43,1.01-.43,1.81s.14,1.39,.42,1.77,.68,.57,1.2,.57c.25,0,.48-.04,.68-.11s.44-.2,.7-.37l.5,.72c-.58,.46-1.22,.7-1.93,.7-.86,0-1.53-.29-2.02-.86s-.74-1.37-.74-2.39c0-.67,.11-1.26,.34-1.76,.22-.5,.54-.9,.95-1.18,.41-.28,.9-.42,1.47-.42,.38,0,.72,.05,1.03,.16Z"/><path d="M144.07,50.97c.32,.34,.49,.82,.49,1.42v4.54h-1.1v-4.38c0-.45-.09-.76-.26-.95s-.42-.28-.75-.28-.62,.1-.88,.29-.5,.46-.72,.82v4.5h-1.1v-8.86l1.1-.12v3.53c.5-.68,1.12-1.02,1.87-1.02,.58,0,1.03,.17,1.35,.52Z"/><path d="M154.29,50.97c.32,.34,.49,.82,.49,1.42v4.54h-1.1v-4.38c0-.45-.08-.76-.25-.95s-.42-.28-.74-.28-.63,.1-.89,.29-.5,.47-.72,.83v4.49h-1.1v-6.32h.95l.1,.94c.22-.34,.5-.6,.83-.79s.7-.29,1.1-.29c.58,0,1.03,.17,1.35,.52Z"/><path d="M161.38,56.02c.09,.12,.22,.22,.4,.28l-.25,.77c-.33-.04-.59-.13-.79-.28-.2-.14-.35-.37-.44-.67-.42,.63-1.05,.95-1.88,.95-.62,0-1.12-.18-1.48-.53-.36-.35-.54-.81-.54-1.38,0-.67,.24-1.19,.73-1.55,.48-.36,1.17-.54,2.06-.54h.97v-.47c0-.45-.11-.77-.32-.96-.22-.19-.55-.29-1-.29s-1.03,.11-1.7,.34l-.28-.8c.78-.29,1.51-.43,2.18-.43,.74,0,1.3,.18,1.67,.55,.37,.36,.55,.88,.55,1.55v2.89c0,.26,.04,.45,.13,.57Zm-1.45-8.71l.49,.92-2.54,1.03-.34-.59,2.39-1.37Zm.22,7.94v-1.45h-.83c-1.17,0-1.75,.43-1.75,1.3,0,.38,.09,.66,.28,.85,.18,.19,.46,.29,.82,.29,.63,0,1.13-.33,1.49-.98Z"/><path d="M168.42,48.05v8.87h-.97l-.11-.88c-.21,.32-.47,.57-.78,.75-.31,.18-.66,.27-1.04,.27-.75,0-1.34-.3-1.76-.89s-.63-1.39-.63-2.39c0-.65,.1-1.22,.3-1.73s.49-.9,.86-1.18c.38-.28,.82-.43,1.32-.43,.65,0,1.22,.26,1.7,.78v-3.31l1.1,.13Zm-1.8,7.9c.24-.16,.47-.39,.7-.7v-3.1c-.21-.27-.43-.48-.67-.62-.24-.14-.5-.21-.8-.21-.49,0-.87,.2-1.13,.61-.27,.41-.4,1.02-.4,1.82s.12,1.42,.37,1.82,.6,.6,1.07,.6c.34,0,.62-.08,.86-.23Z"/><path d="M175.14,51.34c.49,.59,.74,1.4,.74,2.41,0,.66-.11,1.23-.34,1.73-.22,.5-.55,.89-.97,1.16s-.93,.41-1.51,.41c-.89,0-1.58-.3-2.08-.89s-.74-1.4-.74-2.41c0-.66,.11-1.23,.34-1.73,.22-.5,.55-.89,.97-1.16,.42-.28,.93-.41,1.52-.41,.89,0,1.58,.3,2.07,.89Zm-3.71,2.42c0,1.61,.54,2.41,1.63,2.41s1.63-.81,1.63-2.42-.54-2.41-1.62-2.41-1.64,.81-1.64,2.42Z"/><path d="M181.08,50.53l-.2,1.08c-.19-.05-.38-.07-.55-.07-.39,0-.71,.14-.95,.43-.24,.29-.43,.74-.56,1.34v3.61h-1.1v-6.32h.95l.11,1.28c.17-.47,.4-.83,.68-1.07,.29-.24,.62-.36,1.01-.36,.22,0,.43,.02,.62,.07Z"/><path d="M187.04,56.92h-.95l-.08-.98c-.24,.39-.52,.68-.83,.86-.31,.18-.69,.27-1.14,.27-.55,0-.98-.17-1.3-.5-.31-.34-.47-.81-.47-1.43v-4.54h1.1v4.42c0,.43,.08,.74,.23,.92,.15,.18,.4,.27,.74,.27,.62,0,1.14-.36,1.58-1.09v-4.51h1.1v6.32Zm-1.39-9.67c.26,.24,.38,.54,.38,.91s-.13,.66-.38,.91-.58,.37-.98,.37-.73-.12-.98-.37c-.26-.24-.38-.55-.38-.91s.13-.66,.38-.91c.26-.24,.58-.37,.98-.37s.73,.12,.98,.37Zm-1.45,.41c-.11,.12-.17,.28-.17,.49s.06,.37,.17,.49,.27,.18,.47,.18,.35-.06,.46-.18,.17-.28,.17-.49-.06-.37-.17-.49c-.11-.12-.27-.18-.47-.18s-.36,.06-.47,.18Z"/><path d="M195.38,50.63c.34,.12,.67,.3,.98,.54l-.47,.7c-.29-.18-.56-.32-.82-.41s-.53-.13-.82-.13c-.36,0-.64,.07-.85,.22-.21,.15-.31,.35-.31,.61s.1,.46,.29,.6c.2,.14,.55,.28,1.06,.42,.7,.18,1.23,.42,1.58,.72s.52,.72,.52,1.25c0,.62-.24,1.1-.73,1.43-.48,.33-1.07,.49-1.77,.49-.96,0-1.76-.28-2.39-.83l.59-.67c.54,.41,1.13,.61,1.78,.61,.42,0,.75-.09,.99-.26,.24-.17,.37-.41,.37-.7,0-.21-.04-.39-.13-.52s-.24-.25-.46-.35c-.22-.1-.53-.21-.95-.32-.67-.18-1.16-.41-1.46-.71-.3-.3-.45-.67-.45-1.13,0-.33,.1-.63,.29-.89,.2-.27,.47-.47,.82-.62,.35-.15,.74-.22,1.17-.22s.82,.06,1.16,.18Z"/><path d="M202.86,54.14h-4.03c.05,.7,.22,1.21,.53,1.54,.3,.33,.7,.49,1.18,.49,.3,0,.58-.04,.84-.13,.26-.09,.52-.23,.8-.42l.48,.66c-.67,.53-1.41,.79-2.21,.79-.88,0-1.57-.29-2.06-.86s-.74-1.37-.74-2.38c0-.66,.11-1.24,.32-1.75,.21-.51,.52-.91,.91-1.2,.4-.29,.86-.43,1.4-.43,.84,0,1.48,.28,1.93,.83,.45,.55,.67,1.32,.67,2.29,0,.18,0,.37-.02,.56Zm-1.07-.89c0-.62-.12-1.1-.37-1.43-.25-.33-.62-.49-1.12-.49-.9,0-1.4,.66-1.48,1.99h2.96v-.07Z"/><path d="M212.53,56.92h-.95l-.08-.98c-.24,.39-.52,.68-.83,.86-.31,.18-.69,.27-1.14,.27-.55,0-.98-.17-1.3-.5-.31-.34-.47-.81-.47-1.43v-4.54h1.1v4.42c0,.43,.08,.74,.23,.92,.15,.18,.4,.27,.74,.27,.62,0,1.14-.36,1.58-1.09v-4.51h1.1v6.32Zm-1.43-9.61l.49,.92-2.54,1.03-.34-.59,2.39-1.37Z"/><path d="M217.69,50.63c.34,.12,.67,.3,.98,.54l-.47,.7c-.29-.18-.56-.32-.82-.41s-.53-.13-.82-.13c-.36,0-.64,.07-.85,.22-.21,.15-.31,.35-.31,.61s.1,.46,.29,.6c.2,.14,.55,.28,1.06,.42,.7,.18,1.23,.42,1.58,.72s.52,.72,.52,1.25c0,.62-.24,1.1-.73,1.43-.48,.33-1.07,.49-1.77,.49-.96,0-1.76-.28-2.39-.83l.59-.67c.54,.41,1.13,.61,1.78,.61,.42,0,.75-.09,.99-.26,.24-.17,.37-.41,.37-.7,0-.21-.04-.39-.13-.52s-.24-.25-.46-.35c-.22-.1-.53-.21-.95-.32-.67-.18-1.16-.41-1.46-.71-.3-.3-.45-.67-.45-1.13,0-.33,.1-.63,.29-.89,.2-.27,.47-.47,.82-.62,.35-.15,.74-.22,1.17-.22s.82,.06,1.16,.18Z"/><path d="M225.09,51.32c.38,.58,.56,1.39,.56,2.44,0,.99-.22,1.79-.65,2.4-.43,.61-1.04,.91-1.84,.91-.7,0-1.26-.24-1.66-.72v3l-1.1,.13v-8.88h.95l.08,.85c.23-.32,.51-.57,.84-.74s.67-.26,1.03-.26c.81,0,1.4,.29,1.78,.86Zm-.62,2.44c0-1.62-.48-2.42-1.43-2.42-.31,0-.6,.09-.85,.28s-.48,.42-.67,.71v3.08c.16,.25,.36,.44,.6,.57,.24,.13,.5,.2,.79,.2,1.04,0,1.56-.8,1.56-2.41Z"/><path d="M232.29,54.14h-4.03c.05,.7,.22,1.21,.53,1.54,.3,.33,.7,.49,1.18,.49,.3,0,.58-.04,.84-.13,.26-.09,.52-.23,.8-.42l.48,.66c-.67,.53-1.41,.79-2.21,.79-.88,0-1.57-.29-2.06-.86s-.74-1.37-.74-2.38c0-.66,.11-1.24,.32-1.75,.21-.51,.52-.91,.91-1.2,.4-.29,.86-.43,1.4-.43,.84,0,1.48,.28,1.93,.83,.45,.55,.67,1.32,.67,2.29,0,.18,0,.37-.02,.56Zm-1.02-6.63l.47,.54-1.62,1.36h-.73l-1.63-1.36,.48-.54,1.51,1.01,1.52-1.01Zm-.05,5.75c0-.62-.12-1.1-.37-1.43-.25-.33-.62-.49-1.12-.49-.9,0-1.4,.66-1.48,1.99h2.96v-.07Z"/><path d="M236.96,50.63c.34,.12,.67,.3,.98,.54l-.47,.7c-.29-.18-.56-.32-.82-.41s-.53-.13-.82-.13c-.36,0-.64,.07-.85,.22-.21,.15-.31,.35-.31,.61s.1,.46,.29,.6c.2,.14,.55,.28,1.06,.42,.7,.18,1.23,.42,1.58,.72s.52,.72,.52,1.25c0,.62-.24,1.1-.73,1.43-.48,.33-1.07,.49-1.77,.49-.96,0-1.76-.28-2.39-.83l.59-.67c.54,.41,1.13,.61,1.78,.61,.42,0,.75-.09,.99-.26,.24-.17,.37-.41,.37-.7,0-.21-.04-.39-.13-.52s-.24-.25-.46-.35c-.22-.1-.53-.21-.95-.32-.67-.18-1.16-.41-1.46-.71-.3-.3-.45-.67-.45-1.13,0-.33,.1-.63,.29-.89,.2-.27,.47-.47,.82-.62,.35-.15,.74-.22,1.17-.22s.82,.06,1.16,.18Zm.44-3.13l.47,.54-1.62,1.36h-.73l-1.63-1.36,.48-.54,1.51,1.01,1.52-1.01Z"/><path d="M244.01,50.97c.32,.34,.49,.82,.49,1.42v4.54h-1.1v-4.38c0-.45-.08-.76-.25-.95s-.42-.28-.74-.28-.63,.1-.89,.29-.5,.47-.72,.83v4.49h-1.1v-6.32h.95l.1,.94c.22-.34,.5-.6,.83-.79s.7-.29,1.1-.29c.58,0,1.03,.17,1.35,.52Z"/><path d="M251.16,51.34c.49,.59,.74,1.4,.74,2.41,0,.66-.11,1.23-.34,1.73-.22,.5-.55,.89-.97,1.16s-.93,.41-1.51,.41c-.89,0-1.58-.3-2.08-.89s-.74-1.4-.74-2.41c0-.66,.11-1.23,.34-1.73,.22-.5,.55-.89,.97-1.16,.42-.28,.93-.41,1.52-.41,.89,0,1.58,.3,2.07,.89Zm-3.71,2.42c0,1.61,.54,2.41,1.63,2.41s1.63-.81,1.63-2.42-.54-2.41-1.62-2.41-1.64,.81-1.64,2.42Z"/><path d="M256.6,50.63c.34,.12,.67,.3,.98,.54l-.47,.7c-.29-.18-.56-.32-.82-.41s-.53-.13-.82-.13c-.36,0-.64,.07-.85,.22-.21,.15-.31,.35-.31,.61s.1,.46,.29,.6c.2,.14,.55,.28,1.06,.42,.7,.18,1.23,.42,1.58,.72s.52,.72,.52,1.25c0,.62-.24,1.1-.73,1.43-.48,.33-1.07,.49-1.77,.49-.96,0-1.76-.28-2.39-.83l.59-.67c.54,.41,1.13,.61,1.78,.61,.42,0,.75-.09,.99-.26,.24-.17,.37-.41,.37-.7,0-.21-.04-.39-.13-.52s-.24-.25-.46-.35c-.22-.1-.53-.21-.95-.32-.67-.18-1.16-.41-1.46-.71-.3-.3-.45-.67-.45-1.13,0-.33,.1-.63,.29-.89,.2-.27,.47-.47,.82-.62,.35-.15,.74-.22,1.17-.22s.82,.06,1.16,.18Z"/><path d="M262.52,56.63c-.42,.29-.89,.43-1.42,.43s-.95-.15-1.25-.46-.45-.75-.45-1.34v-3.82h-1.1v-.85h1.1v-1.43l1.1-.13v1.56h1.5l-.12,.85h-1.38v3.77c0,.33,.06,.57,.17,.71,.12,.15,.31,.22,.58,.22,.25,0,.53-.08,.84-.25l.42,.73Z"/><path d="M267.13,56.7c-.24-.24-.35-.59-.35-1.03v-7.62l1.1-.13v7.73c0,.18,.03,.3,.09,.38,.06,.08,.16,.12,.31,.12s.29-.02,.41-.07l.29,.77c-.26,.14-.56,.22-.88,.22-.41,0-.73-.12-.97-.37Z"/><path d="M275.05,54.14h-4.03c.05,.7,.22,1.21,.53,1.54,.3,.33,.7,.49,1.18,.49,.3,0,.58-.04,.84-.13,.26-.09,.52-.23,.8-.42l.48,.66c-.67,.53-1.41,.79-2.21,.79-.88,0-1.57-.29-2.06-.86s-.74-1.37-.74-2.38c0-.66,.11-1.24,.32-1.75,.21-.51,.52-.91,.91-1.2,.4-.29,.86-.43,1.4-.43,.84,0,1.48,.28,1.93,.83,.45,.55,.67,1.32,.67,2.29,0,.18,0,.37-.02,.56Zm-1.07-.89c0-.62-.12-1.1-.37-1.43-.25-.33-.62-.49-1.12-.49-.9,0-1.4,.66-1.48,1.99h2.96v-.07Zm-.53-5.94l.49,.92-2.54,1.03-.34-.59,2.39-1.37Z"/><path d="M280.17,50.62c.31,.11,.61,.28,.9,.52l-.53,.7c-.22-.16-.44-.28-.65-.35s-.45-.11-.7-.11c-.51,0-.91,.2-1.19,.61-.28,.41-.43,1.01-.43,1.81s.14,1.39,.42,1.77,.68,.57,1.2,.57c.25,0,.48-.04,.68-.11s.44-.2,.7-.37l.5,.72c-.58,.46-1.22,.7-1.93,.7-.86,0-1.53-.29-2.02-.86s-.74-1.37-.74-2.39c0-.67,.11-1.26,.34-1.76,.22-.5,.54-.9,.95-1.18,.41-.28,.9-.42,1.47-.42,.38,0,.72,.05,1.03,.16Zm.52-3.11l.47,.54-1.62,1.36h-.73l-1.63-1.36,.48-.54,1.51,1.01,1.52-1.01Z"/><path d="M287.08,54.14h-4.03c.05,.7,.22,1.21,.53,1.54,.3,.33,.7,.49,1.18,.49,.3,0,.58-.04,.84-.13,.26-.09,.52-.23,.8-.42l.48,.66c-.67,.53-1.41,.79-2.21,.79-.88,0-1.57-.29-2.06-.86s-.74-1.37-.74-2.38c0-.66,.11-1.24,.32-1.75,.21-.51,.52-.91,.91-1.2,.4-.29,.86-.43,1.4-.43,.84,0,1.48,.28,1.93,.83,.45,.55,.67,1.32,.67,2.29,0,.18,0,.37-.02,.56Zm-1.07-.89c0-.62-.12-1.1-.37-1.43-.25-.33-.62-.49-1.12-.49-.9,0-1.4,.66-1.48,1.99h2.96v-.07Z"/><path d="M293.2,50.97c.32,.34,.49,.82,.49,1.42v4.54h-1.1v-4.38c0-.45-.08-.76-.25-.95s-.42-.28-.74-.28-.63,.1-.89,.29-.5,.47-.72,.83v4.49h-1.1v-6.32h.95l.1,.94c.22-.34,.5-.6,.83-.79s.7-.29,1.1-.29c.58,0,1.03,.17,1.35,.52Z"/><path d="M297.4,47.31l.49,.92-2.54,1.03-.34-.59,2.39-1.37Zm-.4,3.29v6.32h-1.1v-6.32h1.1Z"/><path d="M307.15,51.32c.38,.58,.56,1.39,.56,2.44,0,.99-.22,1.79-.65,2.4-.43,.61-1.04,.91-1.84,.91-.7,0-1.26-.24-1.66-.72v3l-1.1,.13v-8.88h.95l.08,.85c.23-.32,.51-.57,.84-.74s.67-.26,1.03-.26c.81,0,1.4,.29,1.78,.86Zm-.62,2.44c0-1.62-.48-2.42-1.43-2.42-.31,0-.6,.09-.85,.28s-.48,.42-.67,.71v3.08c.16,.25,.36,.44,.6,.57,.24,.13,.5,.2,.79,.2,1.04,0,1.56-.8,1.56-2.41Z"/><path d="M314.04,51.34c.49,.59,.74,1.4,.74,2.41,0,.66-.11,1.23-.34,1.73-.22,.5-.55,.89-.97,1.16s-.93,.41-1.51,.41c-.89,0-1.58-.3-2.08-.89s-.74-1.4-.74-2.41c0-.66,.11-1.23,.34-1.73,.22-.5,.55-.89,.97-1.16,.42-.28,.93-.41,1.52-.41,.89,0,1.58,.3,2.07,.89Zm-3.71,2.42c0,1.61,.54,2.41,1.63,2.41s1.63-.81,1.63-2.42-.54-2.41-1.62-2.41-1.64,.81-1.64,2.42Z"/><path d="M320.93,50.97c.32,.34,.49,.82,.49,1.42v4.54h-1.1v-4.38c0-.45-.09-.76-.26-.95s-.42-.28-.75-.28-.62,.1-.88,.29-.5,.46-.72,.82v4.5h-1.1v-8.86l1.1-.12v3.53c.5-.68,1.12-1.02,1.87-1.02,.58,0,1.03,.17,1.35,.52Z"/><path d="M326.08,56.96c-.25,.74-.59,1.32-1.04,1.75-.44,.43-1.08,.69-1.9,.77l-.12-.86c.42-.07,.75-.18,1-.31,.25-.14,.45-.31,.59-.52,.15-.21,.29-.5,.41-.86h-.37l-2.12-6.32h1.18l1.69,5.52,1.66-5.52h1.14l-2.11,6.36Z"/><path d="M334.06,51.32c.42,.58,.64,1.39,.64,2.43,0,.66-.1,1.23-.3,1.73s-.49,.89-.86,1.16-.82,.41-1.32,.41c-.66,0-1.22-.28-1.68-.84l-.11,.7h-.97v-8.87l1.1-.13v3.47c.46-.62,1.05-.94,1.79-.94s1.29,.29,1.72,.87Zm-.97,4.27c.28-.4,.41-1.01,.41-1.84s-.13-1.47-.38-1.85c-.26-.38-.62-.57-1.09-.57-.56,0-1.05,.33-1.48,.98v3.02c.17,.26,.37,.47,.62,.62,.24,.15,.5,.23,.77,.23,.49,0,.87-.2,1.15-.59Z"/><path d="M341.29,56.92h-.95l-.08-.98c-.24,.39-.52,.68-.83,.86-.31,.18-.69,.27-1.14,.27-.55,0-.98-.17-1.3-.5-.31-.34-.47-.81-.47-1.43v-4.54h1.1v4.42c0,.43,.08,.74,.23,.92,.15,.18,.4,.27,.74,.27,.62,0,1.14-.36,1.58-1.09v-4.51h1.1v6.32Z"/><path d="M344.65,56.54c0,.58-.07,1.05-.22,1.4-.14,.35-.35,.64-.63,.86-.28,.22-.66,.44-1.16,.67l-.32-.8c.31-.14,.55-.29,.72-.43s.29-.34,.38-.59,.13-.6,.13-1.04v-6.01h1.1v5.94Zm.01-8.76c.14,.14,.22,.32,.22,.54s-.07,.39-.22,.53c-.14,.14-.33,.21-.56,.21s-.41-.07-.55-.21c-.14-.14-.22-.32-.22-.53s.07-.4,.22-.54c.14-.14,.33-.22,.55-.22s.42,.07,.56,.22Z"/><path d="M351.68,54.14h-4.03c.05,.7,.22,1.21,.53,1.54,.3,.33,.7,.49,1.18,.49,.3,0,.58-.04,.84-.13,.26-.09,.52-.23,.8-.42l.48,.66c-.67,.53-1.41,.79-2.21,.79-.88,0-1.57-.29-2.06-.86s-.74-1.37-.74-2.38c0-.66,.11-1.24,.32-1.75,.21-.51,.52-.91,.91-1.2,.4-.29,.86-.43,1.4-.43,.84,0,1.48,.28,1.93,.83,.45,.55,.67,1.32,.67,2.29,0,.18,0,.37-.02,.56Zm-1.07-.89c0-.62-.12-1.1-.37-1.43-.25-.33-.62-.49-1.12-.49-.9,0-1.4,.66-1.48,1.99h2.96v-.07Z"/><path d="M4.25,62.32v9h-1.1v-8.87l1.1-.13Zm3.64,2.68l-2.33,2.8,2.59,3.53h-1.32l-2.51-3.46,2.33-2.87h1.24Z"/><path d="M13.62,65.74c.49,.59,.74,1.4,.74,2.41,0,.66-.11,1.23-.34,1.73-.22,.5-.55,.89-.97,1.16-.42,.28-.93,.41-1.51,.41-.89,0-1.58-.29-2.08-.89-.5-.59-.74-1.4-.74-2.41,0-.66,.11-1.23,.34-1.73,.22-.5,.55-.89,.97-1.16,.42-.28,.93-.41,1.52-.41,.89,0,1.58,.3,2.07,.89Zm-3.71,2.42c0,1.61,.54,2.41,1.63,2.41s1.63-.81,1.63-2.42-.54-2.41-1.62-2.41-1.64,.81-1.64,2.42Z"/><path d="M16.48,71.1c-.24-.24-.35-.59-.35-1.03v-7.62l1.1-.13v7.73c0,.18,.03,.3,.09,.38,.06,.08,.16,.12,.31,.12s.29-.02,.41-.07l.29,.77c-.26,.14-.56,.21-.88,.21-.41,0-.73-.12-.97-.37Z"/><path d="M24.39,68.54h-4.03c.05,.7,.22,1.21,.53,1.54,.3,.33,.7,.49,1.18,.49,.3,0,.58-.04,.84-.13,.26-.09,.52-.23,.8-.42l.48,.66c-.67,.53-1.41,.79-2.21,.79-.88,0-1.57-.29-2.06-.86s-.74-1.37-.74-2.38c0-.66,.11-1.24,.32-1.75,.21-.51,.52-.91,.91-1.19,.4-.29,.86-.43,1.4-.43,.84,0,1.48,.28,1.93,.83,.45,.55,.67,1.32,.67,2.29,0,.18,0,.37-.02,.56Zm-1.07-.89c0-.62-.12-1.1-.37-1.43-.25-.33-.62-.49-1.12-.49-.9,0-1.4,.66-1.48,1.99h2.96v-.07Z"/><path d="M33.78,65.38c.31,.35,.47,.82,.47,1.41v4.54h-1.1v-4.38c0-.82-.3-1.22-.89-1.22-.31,0-.58,.09-.79,.27s-.45,.46-.7,.85v4.49h-1.1v-4.38c0-.82-.3-1.22-.89-1.22-.32,0-.59,.09-.8,.28-.22,.18-.44,.46-.68,.84v4.49h-1.1v-6.32h.95l.1,.92c.47-.71,1.08-1.07,1.82-1.07,.39,0,.73,.1,1,.3,.28,.2,.47,.48,.59,.84,.25-.37,.52-.65,.82-.85s.65-.29,1.06-.29c.52,0,.94,.17,1.25,.52Z"/><path d="M43.54,64.01c.44,.56,.66,1.32,.66,2.29,0,1.1-.15,1.98-.44,2.65s-.75,1.2-1.36,1.6c-.61,.4-1.43,.75-2.47,1.05l-.25-.83c1.07-.3,1.89-.72,2.47-1.24,.57-.52,.88-1.21,.92-2.08-.18,.29-.43,.52-.74,.7-.31,.18-.66,.26-1.06,.26-.42,0-.79-.11-1.13-.32-.34-.21-.6-.51-.8-.9-.2-.39-.29-.84-.29-1.36s.12-1.02,.35-1.42c.23-.4,.54-.71,.93-.92,.39-.21,.82-.32,1.29-.32,.85,0,1.49,.28,1.93,.83Zm-.46,2.54c.02-.89-.09-1.53-.33-1.91-.24-.39-.61-.58-1.12-.58-.47,0-.84,.16-1.09,.47-.26,.31-.38,.76-.38,1.33s.12,.98,.36,1.27c.24,.28,.56,.43,.97,.43,.63,0,1.16-.33,1.6-1Z"/><path d="M50.16,64.24c.45,.71,.68,1.73,.68,3.08s-.23,2.37-.68,3.08c-.45,.71-1.12,1.07-2.01,1.07s-1.56-.36-2.01-1.07-.68-1.74-.68-3.08,.23-2.37,.68-3.08,1.12-1.06,2.01-1.06,1.56,.35,2.01,1.06Zm-3.17,.58c-.25,.51-.38,1.34-.38,2.5s.13,1.99,.38,2.5c.25,.52,.64,.77,1.16,.77s.9-.26,1.15-.77c.26-.52,.38-1.35,.38-2.5s-.13-1.97-.38-2.49-.64-.77-1.15-.77-.91,.26-1.16,.77Z"/><path d="M60.5,65.72c.38,.58,.56,1.39,.56,2.44,0,.99-.22,1.79-.65,2.4-.43,.61-1.04,.91-1.84,.91-.7,0-1.26-.24-1.66-.72v3l-1.1,.13v-8.88h.95l.08,.85c.23-.32,.51-.57,.84-.74s.67-.26,1.03-.26c.81,0,1.4,.29,1.78,.86Zm-.62,2.44c0-1.62-.48-2.42-1.43-2.42-.31,0-.6,.09-.85,.28-.26,.18-.48,.42-.67,.71v3.08c.16,.25,.36,.44,.6,.57,.24,.13,.5,.2,.79,.2,1.04,0,1.56-.8,1.56-2.41Z"/><path d="M66.32,64.93l-.2,1.08c-.19-.05-.38-.07-.55-.07-.39,0-.71,.14-.95,.43-.24,.29-.43,.74-.56,1.34v3.61h-1.1v-6.32h.95l.11,1.28c.17-.47,.4-.83,.68-1.07s.62-.36,1.01-.36c.22,0,.43,.02,.62,.07Z"/><path d="M71.67,65.74c.49,.59,.74,1.4,.74,2.41,0,.66-.11,1.23-.34,1.73-.22,.5-.55,.89-.97,1.16-.42,.28-.93,.41-1.51,.41-.89,0-1.58-.29-2.08-.89-.5-.59-.74-1.4-.74-2.41,0-.66,.11-1.23,.34-1.73,.22-.5,.55-.89,.97-1.16,.42-.28,.93-.41,1.52-.41,.89,0,1.58,.3,2.07,.89Zm-3.71,2.42c0,1.61,.54,2.41,1.63,2.41s1.63-.81,1.63-2.42-.54-2.41-1.62-2.41-1.64,.81-1.64,2.42Z"/><path d="M77.56,65.02c.31,.11,.61,.28,.9,.52l-.53,.7c-.22-.16-.44-.28-.65-.35s-.45-.11-.7-.11c-.51,0-.91,.2-1.19,.61s-.43,1.01-.43,1.81,.14,1.39,.42,1.77c.28,.38,.68,.57,1.2,.57,.25,0,.48-.04,.68-.11,.21-.08,.44-.2,.7-.37l.5,.72c-.58,.46-1.22,.7-1.93,.7-.86,0-1.53-.29-2.02-.86s-.74-1.37-.74-2.39c0-.67,.11-1.26,.34-1.76,.22-.5,.54-.9,.95-1.18,.41-.28,.9-.42,1.47-.42,.38,0,.72,.05,1.03,.16Z"/><path d="M84.48,68.54h-4.03c.05,.7,.22,1.21,.53,1.54,.3,.33,.7,.49,1.18,.49,.3,0,.58-.04,.84-.13,.26-.09,.52-.23,.8-.42l.48,.66c-.67,.53-1.41,.79-2.21,.79-.88,0-1.57-.29-2.06-.86s-.74-1.37-.74-2.38c0-.66,.11-1.24,.32-1.75,.21-.51,.52-.91,.91-1.19,.4-.29,.86-.43,1.4-.43,.84,0,1.48,.28,1.93,.83,.45,.55,.67,1.32,.67,2.29,0,.18,0,.37-.02,.56Zm-1.07-.89c0-.62-.12-1.1-.37-1.43-.25-.33-.62-.49-1.12-.49-.9,0-1.4,.66-1.48,1.99h2.96v-.07Z"/><path d="M90.59,65.37c.32,.34,.49,.82,.49,1.42v4.54h-1.1v-4.38c0-.45-.08-.76-.25-.95-.17-.18-.42-.28-.74-.28s-.63,.1-.89,.29c-.26,.19-.5,.47-.72,.83v4.49h-1.1v-6.32h.95l.1,.94c.22-.34,.5-.6,.83-.79,.33-.19,.7-.29,1.1-.29,.58,0,1.03,.17,1.35,.52Z"/><path d="M96.49,71.03c-.42,.29-.89,.43-1.42,.43s-.95-.15-1.25-.46c-.3-.31-.45-.75-.45-1.34v-3.82h-1.1v-.85h1.1v-1.43l1.1-.13v1.56h1.5l-.12,.85h-1.38v3.77c0,.33,.06,.57,.17,.71,.12,.15,.31,.22,.58,.22,.25,0,.53-.08,.84-.25l.42,.73Z"/></g><g><path d="M67.24,260.08v.96l-4.03,6.96h4.02l-.13,1.03h-5.21v-.96l4.06-6.98h-3.65v-1h4.95Z" style="fill:#999;"/><path d="M73.32,259.41v9.61h-1.04l-.08-.9c-.44,.71-1.04,1.07-1.78,1.07s-1.32-.32-1.74-.95c-.41-.63-.62-1.5-.62-2.61,0-.72,.1-1.35,.3-1.9,.2-.55,.49-.97,.87-1.27,.37-.3,.8-.45,1.29-.45,.65,0,1.19,.27,1.62,.82v-3.55l1.17,.13Zm-1.81,8.59c.23-.17,.44-.43,.64-.77v-3.43c-.39-.58-.85-.87-1.37-.87-.46,0-.82,.22-1.09,.66-.27,.44-.4,1.11-.39,2,0,.91,.12,1.58,.36,2.02,.24,.43,.58,.65,1.03,.65,.31,0,.58-.09,.81-.26Z" style="fill:#999;"/><path d="M78.82,262.1l-.19,1.13c-.17-.05-.34-.08-.53-.08-.38,0-.69,.15-.93,.45-.24,.3-.43,.77-.57,1.39v4.02h-1.17v-6.84h1.01l.09,1.35c.34-1.01,.91-1.51,1.7-1.51,.23,0,.42,.03,.58,.08Z" style="fill:#999;"/><path d="M84.02,262.94c.49,.62,.73,1.5,.73,2.65s-.25,1.99-.74,2.63-1.17,.97-2.04,.97-1.56-.32-2.05-.95c-.49-.63-.73-1.51-.73-2.64s.25-2.02,.74-2.65c.49-.63,1.18-.94,2.05-.94s1.56,.31,2.04,.92Zm-3.21,.66c-.27,.43-.4,1.1-.4,2.01,0,1.78,.52,2.67,1.56,2.67s1.56-.89,1.56-2.68c0-.91-.13-1.58-.39-2s-.65-.64-1.16-.64-.9,.21-1.17,.64Z" style="fill:#999;"/><path d="M87.61,268.75c0,.58-.08,1.05-.23,1.42s-.37,.67-.65,.9c-.28,.23-.66,.46-1.14,.68l-.36-.85c.3-.16,.54-.31,.7-.47,.16-.16,.29-.36,.38-.62,.09-.26,.13-.61,.13-1.04v-6.59h1.17v6.57Zm-.03-9.57c.14,.15,.21,.33,.21,.55s-.07,.4-.21,.54c-.14,.14-.32,.21-.56,.21s-.41-.07-.55-.21c-.14-.14-.21-.32-.21-.54s.07-.4,.21-.55c.14-.15,.33-.22,.55-.22s.41,.07,.55,.22Z" style="fill:#999;"/><path d="M97.63,259.41v9.61h-1.04l-.08-.9c-.44,.71-1.04,1.07-1.78,1.07s-1.32-.32-1.74-.95c-.41-.63-.62-1.5-.62-2.61,0-.72,.1-1.35,.3-1.9,.2-.55,.49-.97,.87-1.27,.37-.3,.8-.45,1.29-.45,.65,0,1.19,.27,1.62,.82v-3.55l1.17,.13Zm-1.81,8.59c.23-.17,.44-.43,.64-.77v-3.43c-.39-.58-.85-.87-1.37-.87-.46,0-.82,.22-1.09,.66-.27,.44-.4,1.11-.39,2,0,.91,.12,1.58,.36,2.02,.24,.43,.58,.65,1.03,.65,.31,0,.58-.09,.81-.26Z" style="fill:#999;"/><path d="M104.12,268.08c.08,.13,.2,.24,.36,.31l-.25,.79c-.34-.05-.6-.16-.79-.31-.19-.16-.33-.39-.4-.72-.44,.69-1.06,1.04-1.86,1.04-.61,0-1.09-.19-1.44-.57s-.53-.88-.53-1.51c0-.73,.24-1.28,.71-1.66,.48-.38,1.16-.57,2.04-.57h.88v-.58c0-.48-.1-.82-.29-1.03-.2-.21-.51-.32-.96-.32-.48,0-1.03,.12-1.66,.36l-.29-.82c.76-.31,1.47-.47,2.13-.47,1.48,0,2.22,.74,2.22,2.22v3.22c0,.28,.04,.48,.12,.62Zm-1.27-.84v-1.61h-.75c-1.13,0-1.69,.47-1.69,1.42,0,.41,.09,.72,.27,.94,.18,.22,.44,.33,.78,.33,.61,0,1.07-.36,1.39-1.07Z" style="fill:#999;"/><path d="M109.35,268.72c-.43,.31-.92,.47-1.44,.47-.55,0-.98-.16-1.28-.48s-.45-.77-.45-1.35v-4.29h-.98v-.88h.98v-1.57l1.17-.14v1.72h1.51l-.13,.88h-1.38v4.28c0,.59,.25,.88,.74,.88,.15,0,.28-.02,.41-.06,.12-.04,.27-.11,.42-.2l.43,.75Z" style="fill:#999;"/><path d="M111.32,262.94c.15,.16,.23,.35,.23,.58s-.08,.42-.23,.58c-.15,.17-.35,.25-.59,.25s-.43-.08-.58-.25c-.15-.16-.23-.36-.23-.58s.08-.42,.23-.58,.34-.24,.58-.24,.44,.08,.59,.24Zm0,4.84c.15,.16,.23,.35,.23,.58s-.08,.42-.23,.58c-.15,.17-.35,.25-.59,.25s-.43-.08-.58-.25c-.15-.16-.23-.36-.23-.58s.08-.42,.23-.58,.34-.24,.58-.24,.44,.08,.59,.24Z" style="fill:#999;"/><path d="M121.85,266.39c0,.82-.25,1.5-.74,2.02-.49,.52-1.2,.78-2.12,.78s-1.63-.26-2.12-.77-.73-1.19-.73-2.02v-6.32h1.21v6.24c0,1.26,.55,1.89,1.64,1.89s1.64-.63,1.64-1.89v-6.24h1.22v6.32Zm-1.94-9.18l.49,.95-2.52,1.03-.31-.61,2.34-1.37Z" style="fill:#999;"/><path d="M128.37,260.08v.96l-4.03,6.96h4.02l-.13,1.03h-5.21v-.96l4.06-6.98h-3.65v-1h4.95Z" style="fill:#999;"/><path d="M131.13,260.08v8.94h-1.21v-8.94h1.21Z" style="fill:#999;"/><path d="M136.83,260.17c.39,.17,.76,.43,1.11,.78l-.61,.69c-.29-.26-.59-.45-.88-.58-.29-.13-.6-.19-.94-.19-.43,0-.78,.12-1.05,.36s-.4,.55-.4,.94c0,.26,.05,.48,.16,.67,.1,.19,.28,.36,.53,.51,.25,.15,.61,.3,1.07,.46,.53,.19,.96,.39,1.3,.61s.6,.49,.78,.83,.27,.76,.27,1.27-.12,.97-.35,1.37c-.23,.4-.57,.72-1.01,.95-.44,.23-.95,.34-1.54,.34-1.08,0-2.01-.39-2.77-1.17l.64-.69c.32,.29,.65,.5,.98,.66,.33,.15,.7,.23,1.11,.23,.51,0,.92-.15,1.23-.44s.46-.69,.46-1.2c0-.44-.12-.79-.37-1.05-.25-.26-.7-.5-1.36-.73-.84-.29-1.45-.64-1.81-1.03-.37-.39-.55-.9-.55-1.52,0-.44,.11-.84,.33-1.2,.22-.36,.53-.64,.93-.84,.4-.2,.85-.3,1.35-.3,.53,0,.99,.09,1.38,.26Z" style="fill:#999;"/><path d="M144.59,258.53v11.82h-1.09v-11.82h1.09Z" style="fill:#999;"/><path d="M158.97,260.08l-2.47,8.94h-1.44l-2.51-8.94h1.25l2,7.77,1.98-7.77h1.2Z" style="fill:#999;"/><path d="M161.26,259.18c.14,.15,.21,.33,.21,.55s-.07,.4-.21,.54c-.14,.14-.33,.21-.56,.21s-.41-.07-.55-.21-.21-.32-.21-.54,.07-.4,.21-.55c.14-.15,.33-.22,.55-.22s.41,.07,.55,.22Zm.03,3v6.84h-1.17v-6.84h1.17Z" style="fill:#999;"/><path d="M167.13,262.18v.87l-3.24,5h3.25l-.12,.96h-4.42v-.87l3.24-5h-2.96v-.96h4.25Z" style="fill:#999;"/><path d="M173.12,269.02h-1.01l-.07-1.03c-.48,.8-1.11,1.2-1.91,1.2-.55,0-.97-.18-1.29-.53-.31-.36-.47-.84-.47-1.44v-5.03h1.17v4.93c0,.4,.08,.69,.23,.88s.38,.28,.68,.28c.58,0,1.08-.38,1.5-1.14v-4.94h1.17v6.84Z" style="fill:#999;"/><path d="M179.61,268.08c.08,.13,.2,.24,.36,.31l-.25,.79c-.34-.05-.6-.16-.79-.31-.19-.16-.33-.39-.4-.72-.44,.69-1.06,1.04-1.86,1.04-.61,0-1.09-.19-1.44-.57s-.53-.88-.53-1.51c0-.73,.24-1.28,.71-1.66,.48-.38,1.16-.57,2.04-.57h.88v-.58c0-.48-.1-.82-.29-1.03-.2-.21-.51-.32-.96-.32-.48,0-1.03,.12-1.66,.36l-.29-.82c.76-.31,1.47-.47,2.13-.47,1.48,0,2.22,.74,2.22,2.22v3.22c0,.28,.04,.48,.12,.62Zm-1.27-.84v-1.61h-.75c-1.13,0-1.69,.47-1.69,1.42,0,.41,.09,.72,.27,.94,.18,.22,.44,.33,.78,.33,.61,0,1.07-.36,1.39-1.07Z" style="fill:#999;"/><path d="M181.77,268.81c-.24-.25-.36-.6-.36-1.05v-8.35l1.17-.13v8.44c0,.34,.14,.51,.42,.51,.11,0,.24-.03,.38-.08l.26,.82c-.28,.15-.57,.22-.87,.22-.42,0-.75-.12-.99-.38Z" style="fill:#999;"/><path d="M186.04,259.18c.14,.15,.21,.33,.21,.55s-.07,.4-.21,.54c-.14,.14-.32,.21-.56,.21s-.41-.07-.55-.21c-.14-.14-.21-.32-.21-.54s.07-.4,.21-.55c.14-.15,.33-.22,.55-.22s.41,.07,.55,.22Zm.03,3v6.84h-1.17v-6.84h1.17Z" style="fill:#999;"/><path d="M191.91,262.18v.87l-3.24,5h3.25l-.12,.96h-4.42v-.87l3.24-5h-2.96v-.96h4.25Z" style="fill:#999;"/><path d="M197.54,268.08c.08,.13,.2,.24,.36,.31l-.25,.79c-.34-.05-.6-.16-.79-.31-.19-.16-.33-.39-.4-.72-.44,.69-1.06,1.04-1.86,1.04-.61,0-1.09-.19-1.44-.57s-.53-.88-.53-1.51c0-.73,.24-1.28,.71-1.66,.48-.38,1.16-.57,2.04-.57h.88v-.58c0-.48-.1-.82-.29-1.03-.2-.21-.51-.32-.96-.32-.48,0-1.03,.12-1.66,.36l-.29-.82c.76-.31,1.47-.47,2.13-.47,1.48,0,2.22,.74,2.22,2.22v3.22c0,.28,.04,.48,.12,.62Zm-1.27-.84v-1.61h-.75c-1.13,0-1.69,.47-1.69,1.42,0,.41,.09,.72,.27,.94,.18,.22,.44,.33,.78,.33,.61,0,1.07-.36,1.39-1.07Z" style="fill:#999;"/><path d="M202.91,262.2c.3,.12,.59,.31,.87,.56l-.52,.7c-.21-.17-.42-.29-.62-.37-.21-.08-.43-.12-.68-.12-.51,0-.91,.22-1.19,.65-.28,.43-.42,1.11-.42,2.03,0,1.72,.54,2.57,1.61,2.57,.24,0,.46-.04,.66-.12,.2-.08,.41-.21,.64-.37l.55,.71c-.55,.5-1.18,.75-1.88,.75-.88,0-1.56-.3-2.06-.91-.5-.61-.75-1.48-.75-2.63,0-.75,.11-1.39,.34-1.94s.55-.97,.98-1.26c.42-.29,.91-.44,1.48-.44,.36,0,.7,.06,1,.18Z" style="fill:#999;"/><path d="M209.61,266h-3.98c.03,.8,.2,1.37,.48,1.72,.29,.35,.68,.53,1.17,.53,.31,0,.59-.05,.84-.14,.25-.09,.5-.25,.77-.47l.52,.69c-.64,.57-1.37,.86-2.18,.86-.89,0-1.58-.31-2.07-.93-.49-.62-.73-1.49-.73-2.61s.23-2,.7-2.66,1.12-.98,1.95-.98,1.46,.29,1.9,.88c.44,.58,.66,1.42,.66,2.5,0,.18,0,.39-.03,.61Zm-1.11-.96c0-1.43-.47-2.15-1.42-2.15-.43,0-.78,.18-1.03,.54-.25,.36-.39,.94-.43,1.75h2.87v-.14Z" style="fill:#999;"/><path d="M212.17,262.94c.15,.16,.23,.35,.23,.58s-.08,.42-.23,.58c-.15,.17-.35,.25-.59,.25s-.43-.08-.58-.25c-.15-.16-.23-.36-.23-.58s.08-.42,.23-.58,.34-.24,.58-.24,.44,.08,.59,.24Zm0,4.84c.15,.16,.23,.35,.23,.58s-.08,.42-.23,.58c-.15,.17-.35,.25-.59,.25s-.43-.08-.58-.25c-.15-.16-.23-.36-.23-.58s.08-.42,.23-.58,.34-.24,.58-.24,.44,.08,.59,.24Z" style="fill:#999;"/><path d="M218.21,259.18c.14,.15,.21,.33,.21,.55s-.07,.4-.21,.54c-.14,.14-.33,.21-.56,.21s-.41-.07-.55-.21-.21-.32-.21-.54,.07-.4,.21-.55c.14-.15,.33-.22,.55-.22s.41,.07,.55,.22Zm.03,3v6.84h-1.17v-6.84h1.17Z" style="fill:#999;"/><path d="M224.8,269.02l-1.92-3.81h-1.26v3.81h-1.21v-8.94h2.09c2.13,0,3.2,.84,3.2,2.52,0,.59-.14,1.09-.43,1.5s-.71,.71-1.26,.9l2.13,4.03h-1.34Zm-.82-5.14c.3-.27,.46-.7,.46-1.28,0-.55-.15-.95-.46-1.21s-.81-.39-1.5-.39h-.86v3.29h.98c.62,0,1.09-.14,1.39-.41Z" style="fill:#999;"/><path d="M232.86,261.08c.61,.79,.92,1.94,.92,3.46s-.3,2.65-.91,3.45c-.61,.8-1.45,1.2-2.52,1.2s-1.9-.39-2.52-1.18c-.61-.79-.92-1.94-.92-3.45,0-1,.14-1.84,.42-2.54,.28-.7,.68-1.22,1.2-1.58,.52-.35,1.12-.53,1.81-.53,1.07,0,1.9,.39,2.52,1.18Zm-4.67,3.48c0,2.44,.72,3.65,2.16,3.65,.71,0,1.25-.29,1.61-.87,.36-.58,.55-1.51,.55-2.79s-.18-2.21-.55-2.79c-.37-.59-.9-.88-1.61-.88-1.44,0-2.16,1.23-2.16,3.69Z" style="fill:#999;"/><path d="M239.79,260.08v.96l-4.03,6.96h4.02l-.13,1.03h-5.21v-.96l4.06-6.98h-3.65v-1h4.95Z" style="fill:#999;"/><path d="M245.8,269.02v-4.2h-3.25v4.2h-1.21v-8.94h1.21v3.76h3.25v-3.76h1.21v8.94h-1.21Z" style="fill:#999;"/><path d="M250.43,260.08v7.92h3.26l-.13,1.03h-4.34v-8.94h1.21Z" style="fill:#999;"/><path d="M259.38,269.02l-.6-2.27h-3l-.6,2.27h-1.21l2.59-8.94h1.48l2.59,8.94h-1.25Zm-3.35-3.22h2.51l-1.25-4.76-1.26,4.76Z" style="fill:#999;"/><path d="M265.32,260.17c.39,.17,.76,.43,1.11,.78l-.61,.69c-.29-.26-.59-.45-.88-.58-.29-.13-.6-.19-.94-.19-.43,0-.78,.12-1.05,.36-.26,.24-.4,.55-.4,.94,0,.26,.05,.48,.16,.67,.1,.19,.28,.36,.53,.51,.25,.15,.61,.3,1.07,.46,.53,.19,.96,.39,1.3,.61s.6,.49,.78,.83c.18,.34,.27,.76,.27,1.27s-.12,.97-.35,1.37c-.23,.4-.57,.72-1.01,.95-.44,.23-.95,.34-1.54,.34-1.08,0-2.01-.39-2.77-1.17l.64-.69c.32,.29,.65,.5,.98,.66,.33,.15,.7,.23,1.11,.23,.51,0,.92-.15,1.23-.44,.31-.29,.46-.69,.46-1.2,0-.44-.12-.79-.37-1.05-.25-.26-.7-.5-1.36-.73-.84-.29-1.45-.64-1.81-1.03-.37-.39-.55-.9-.55-1.52,0-.44,.11-.84,.33-1.2,.22-.36,.53-.64,.93-.84s.85-.3,1.35-.3c.53,0,.99,.09,1.38,.26Z" style="fill:#999;"/><path d="M269.12,267.78c.15,.16,.23,.35,.23,.58s-.08,.42-.23,.58c-.15,.17-.35,.25-.59,.25s-.43-.08-.58-.25c-.15-.16-.23-.36-.23-.58s.08-.42,.23-.58,.34-.24,.58-.24,.44,.08,.59,.24Z" style="fill:#999;"/><path d="M274.22,262.2c.3,.12,.59,.31,.87,.56l-.52,.7c-.21-.17-.42-.29-.62-.37-.21-.08-.43-.12-.68-.12-.51,0-.91,.22-1.19,.65-.28,.43-.42,1.11-.42,2.03,0,1.72,.54,2.57,1.61,2.57,.24,0,.46-.04,.66-.12,.2-.08,.41-.21,.64-.37l.55,.71c-.55,.5-1.18,.75-1.89,.75-.88,0-1.56-.3-2.06-.91-.5-.61-.75-1.48-.75-2.63,0-.75,.12-1.39,.34-1.94s.55-.97,.97-1.26c.42-.29,.91-.44,1.48-.44,.36,0,.7,.06,1,.18Z" style="fill:#999;"/><path d="M280.14,262.18v.87l-3.24,5h3.25l-.12,.96h-4.42v-.87l3.24-5h-2.96v-.96h4.25Z" style="fill:#999;"/><path d="M282.41,267.77c.15,.16,.22,.35,.22,.57,0,.12-.02,.25-.06,.38s-.1,.32-.19,.56l-.71,1.83h-.73l.48-2.07c-.25-.17-.38-.39-.38-.69,0-.23,.08-.43,.23-.58,.15-.16,.34-.23,.58-.23s.41,.08,.56,.23Z" style="fill:#999;"/><path d="M288.57,260.08v8.94h-1.21v-8.94h1.21Zm4.39,0l-3.03,4.08,3.24,4.86h-1.39l-3.16-4.78,3.05-4.16h1.29Z" style="fill:#999;"/><path d="M297.58,262.1l-.2,1.13c-.16-.05-.34-.08-.53-.08-.38,0-.69,.15-.93,.45-.24,.3-.43,.77-.57,1.39v4.02h-1.17v-6.84h1.01l.09,1.35c.34-1.01,.91-1.51,1.7-1.51,.23,0,.42,.03,.58,.08Z" style="fill:#999;"/><path d="M299.86,259.18c.14,.15,.21,.33,.21,.55s-.07,.4-.21,.54c-.14,.14-.33,.21-.56,.21s-.41-.07-.55-.21-.21-.32-.21-.54,.07-.4,.21-.55c.14-.15,.33-.22,.55-.22s.41,.07,.55,.22Zm.03,3v6.84h-1.17v-6.84h1.17Z" style="fill:#999;"/><path d="M305.88,262.79l-.49,.69c-.28-.19-.54-.33-.78-.43-.24-.1-.5-.14-.77-.14-.36,0-.63,.08-.84,.25-.2,.17-.3,.4-.3,.7s.1,.51,.29,.68c.2,.16,.57,.33,1.11,.51,.68,.22,1.18,.48,1.5,.79,.31,.31,.47,.74,.47,1.29,0,.64-.23,1.15-.7,1.51-.47,.37-1.05,.55-1.76,.55-.93,0-1.71-.31-2.35-.92l.6-.65c.55,.44,1.12,.66,1.73,.66,.38,0,.69-.09,.92-.29,.23-.19,.35-.46,.35-.79,0-.24-.04-.44-.12-.58-.08-.15-.23-.28-.44-.4-.21-.12-.52-.24-.93-.37-.65-.22-1.12-.48-1.4-.78-.29-.3-.43-.69-.43-1.16,0-.36,.1-.69,.29-.98s.46-.51,.79-.68c.34-.16,.73-.25,1.17-.25,.79,0,1.49,.26,2.11,.78Z" style="fill:#999;"/><path d="M310.79,268.72c-.43,.31-.91,.47-1.44,.47-.55,0-.98-.16-1.28-.48-.3-.32-.45-.77-.45-1.35v-4.29h-.97v-.88h.97v-1.57l1.17-.14v1.72h1.51l-.13,.88h-1.38v4.28c0,.59,.25,.88,.74,.88,.15,0,.28-.02,.41-.06,.13-.04,.27-.11,.42-.2l.43,.75Z" style="fill:#999;"/><path d="M313.25,258.66l.49,.94-2.5,1.13-.34-.6,2.34-1.47Zm-.27,3.52v6.84h-1.17v-6.84h1.17Z" style="fill:#999;"/><path d="M319.42,262.55c.31,.36,.46,.86,.46,1.49v4.98h-1.17v-4.84c0-.44-.07-.76-.22-.96-.15-.2-.37-.29-.68-.29-.57,0-1.09,.41-1.56,1.22v4.86h-1.17v-6.84h1.01l.09,1.01c.53-.79,1.18-1.18,1.95-1.18,.55,0,.97,.18,1.28,.54Z" style="fill:#999;"/><path d="M326.31,268.08c.08,.13,.2,.24,.36,.31l-.25,.79c-.34-.05-.6-.16-.79-.31-.19-.16-.33-.39-.4-.72-.44,.69-1.06,1.04-1.86,1.04-.61,0-1.09-.19-1.44-.57s-.53-.88-.53-1.51c0-.73,.24-1.28,.72-1.66,.48-.38,1.16-.57,2.04-.57h.88v-.58c0-.48-.1-.82-.29-1.03-.19-.21-.51-.32-.96-.32-.48,0-1.03,.12-1.66,.36l-.29-.82c.76-.31,1.47-.47,2.13-.47,1.48,0,2.22,.74,2.22,2.22v3.22c0,.28,.04,.48,.12,.62Zm-1.27-.84v-1.61h-.75c-1.13,0-1.69,.47-1.69,1.42,0,.41,.09,.72,.27,.94,.18,.22,.44,.33,.78,.33,.61,0,1.07-.36,1.39-1.07Z" style="fill:#999;"/><path d="M335.98,260.08v.96l-4.03,6.96h4.02l-.13,1.03h-5.21v-.96l4.06-6.98h-3.65v-1h4.95Z" style="fill:#999;"/><path d="M341.68,268.08c.08,.13,.2,.24,.36,.31l-.25,.79c-.34-.05-.6-.16-.79-.31-.19-.16-.33-.39-.4-.72-.44,.69-1.06,1.04-1.86,1.04-.61,0-1.09-.19-1.44-.57s-.53-.88-.53-1.51c0-.73,.24-1.28,.72-1.66,.48-.38,1.16-.57,2.04-.57h.88v-.58c0-.48-.1-.82-.29-1.03-.19-.21-.51-.32-.96-.32-.48,0-1.03,.12-1.66,.36l-.29-.82c.76-.31,1.47-.47,2.13-.47,1.48,0,2.22,.74,2.22,2.22v3.22c0,.28,.04,.48,.12,.62Zm-1.49-9.42l.49,.94-2.5,1.13-.34-.6,2.34-1.47Zm.22,8.58v-1.61h-.75c-1.13,0-1.69,.47-1.69,1.42,0,.41,.09,.72,.27,.94,.18,.22,.44,.33,.78,.33,.61,0,1.07-.36,1.39-1.07Z" style="fill:#999;"/><path d="M344.84,259.28v9.74h-1.17v-9.61l1.17-.13Zm3.6,2.9l-2.31,3.04,2.54,3.8h-1.3l-2.46-3.74,2.31-3.09h1.22Z" style="fill:#999;"/><path d="M354.03,262.94c.49,.62,.73,1.5,.73,2.65s-.25,1.99-.74,2.63-1.17,.97-2.04,.97-1.56-.32-2.05-.95c-.49-.63-.73-1.51-.73-2.64s.25-2.02,.74-2.65c.49-.63,1.18-.94,2.05-.94s1.56,.31,2.04,.92Zm-3.21,.66c-.27,.43-.4,1.1-.4,2.01,0,1.78,.52,2.67,1.56,2.67s1.56-.89,1.56-2.68c0-.91-.13-1.58-.39-2s-.65-.64-1.16-.64-.9,.21-1.17,.64Z" style="fill:#999;"/><path d="M361.08,262.94c.38,.62,.57,1.5,.57,2.64s-.21,1.99-.63,2.64c-.42,.65-1.01,.97-1.76,.97-.68,0-1.22-.27-1.64-.82v3.25l-1.17,.14v-9.58h1.03l.06,.92c.47-.73,1.09-1.09,1.86-1.09s1.31,.31,1.68,.92Zm-.66,2.65c0-.93-.11-1.6-.33-2.02-.22-.42-.56-.63-1.01-.63-.3,0-.57,.09-.81,.27-.23,.18-.46,.43-.66,.74v3.46c.36,.56,.81,.84,1.37,.84,.96,0,1.44-.89,1.44-2.67Z" style="fill:#999;"/><path d="M366.74,262.2c.3,.12,.59,.31,.87,.56l-.52,.7c-.21-.17-.42-.29-.62-.37-.21-.08-.43-.12-.68-.12-.51,0-.91,.22-1.19,.65-.28,.43-.42,1.11-.42,2.03,0,1.72,.54,2.57,1.61,2.57,.24,0,.46-.04,.66-.12,.2-.08,.41-.21,.64-.37l.55,.71c-.55,.5-1.18,.75-1.88,.75-.88,0-1.56-.3-2.06-.91-.5-.61-.75-1.48-.75-2.63,0-.75,.12-1.39,.34-1.94s.55-.97,.97-1.26c.42-.29,.91-.44,1.48-.44,.36,0,.7,.06,1,.18Zm.47-3.35l.46,.52-1.57,1.51h-.73l-1.57-1.51,.45-.52,1.48,1.14,1.48-1.14Z" style="fill:#999;"/><path d="M373.18,268.08c.08,.13,.2,.24,.36,.31l-.25,.79c-.34-.05-.6-.16-.79-.31-.19-.16-.33-.39-.4-.72-.44,.69-1.06,1.04-1.86,1.04-.61,0-1.09-.19-1.44-.57s-.53-.88-.53-1.51c0-.73,.24-1.28,.72-1.66,.48-.38,1.16-.57,2.04-.57h.88v-.58c0-.48-.1-.82-.29-1.03-.19-.21-.51-.32-.96-.32-.48,0-1.03,.12-1.66,.36l-.29-.82c.76-.31,1.47-.47,2.13-.47,1.48,0,2.22,.74,2.22,2.22v3.22c0,.28,.04,.48,.12,.62Zm-1.27-.84v-1.61h-.75c-1.13,0-1.69,.47-1.69,1.42,0,.41,.09,.72,.27,.94,.18,.22,.44,.33,.78,.33,.61,0,1.07-.36,1.39-1.07Z" style="fill:#999;"/><path d="M379.5,262.55c.31,.36,.46,.86,.46,1.49v4.98h-1.17v-4.84c0-.44-.07-.76-.22-.96-.15-.2-.37-.29-.68-.29-.57,0-1.09,.41-1.56,1.22v4.86h-1.17v-6.84h1.01l.09,1.01c.53-.79,1.18-1.18,1.95-1.18,.55,0,.97,.18,1.28,.54Z" style="fill:#999;"/><path d="M386.44,262.94c.49,.62,.73,1.5,.73,2.65s-.25,1.99-.74,2.63-1.17,.97-2.04,.97-1.56-.32-2.05-.95c-.49-.63-.73-1.51-.73-2.64s.25-2.02,.74-2.65c.49-.63,1.18-.94,2.05-.94s1.56,.31,2.04,.92Zm-3.21,.66c-.27,.43-.4,1.1-.4,2.01,0,1.78,.52,2.67,1.56,2.67s1.56-.89,1.56-2.68c0-.91-.13-1.58-.39-2s-.65-.64-1.16-.64-.9,.21-1.17,.64Z" style="fill:#999;"/><path d="M393.42,262.18l-2.04,6.84h-1.4l-2.11-6.84h1.22l1.59,5.85,1.57-5.85h1.17Z" style="fill:#999;"/><path d="M398.79,268.08c.08,.13,.2,.24,.36,.31l-.25,.79c-.34-.05-.6-.16-.79-.31-.19-.16-.33-.39-.4-.72-.44,.69-1.06,1.04-1.86,1.04-.61,0-1.09-.19-1.44-.57s-.53-.88-.53-1.51c0-.73,.24-1.28,.72-1.66,.48-.38,1.16-.57,2.04-.57h.88v-.58c0-.48-.1-.82-.29-1.03-.19-.21-.51-.32-.96-.32-.48,0-1.03,.12-1.66,.36l-.29-.82c.76-.31,1.47-.47,2.13-.47,1.48,0,2.22,.74,2.22,2.22v3.22c0,.28,.04,.48,.12,.62Zm-1.49-9.42l.49,.94-2.5,1.13-.34-.6,2.34-1.47Zm.22,8.58v-1.61h-.75c-1.13,0-1.69,.47-1.69,1.42,0,.41,.09,.72,.27,.94,.18,.22,.44,.33,.78,.33,.61,0,1.07-.36,1.39-1.07Z" style="fill:#999;"/></g><g><path d="M139.09,157.96l-2.47,8.94h-1.44l-2.51-8.94h1.25l2,7.77,1.98-7.77h1.2Z" style="fill:#3f32c9;"/><path d="M143.87,160.68l-.49,.69c-.28-.19-.54-.33-.78-.43-.24-.1-.5-.14-.77-.14-.36,0-.63,.08-.84,.25-.2,.17-.31,.4-.31,.7s.1,.51,.29,.68c.2,.17,.57,.33,1.11,.51,.68,.22,1.18,.48,1.49,.79,.31,.31,.47,.74,.47,1.29,0,.64-.23,1.15-.7,1.51-.47,.37-1.05,.55-1.75,.55-.93,0-1.71-.31-2.35-.92l.6-.65c.55,.44,1.12,.66,1.73,.66,.38,0,.69-.09,.92-.29,.23-.19,.35-.46,.35-.79,0-.24-.04-.44-.12-.58s-.23-.28-.44-.4c-.21-.12-.52-.24-.93-.37-.65-.22-1.12-.48-1.4-.78-.29-.3-.43-.69-.43-1.16,0-.36,.09-.69,.29-.97,.19-.29,.46-.51,.79-.68,.34-.17,.73-.25,1.17-.25,.79,0,1.49,.26,2.11,.78Zm-.58-3.95l.46,.52-1.57,1.51h-.73l-1.57-1.51,.46-.52,1.48,1.14,1.48-1.14Z" style="fill:#3f32c9;"/><path d="M150.31,163.89h-3.98c.04,.8,.2,1.37,.48,1.72,.29,.35,.68,.53,1.17,.53,.31,0,.59-.05,.84-.14,.25-.09,.5-.25,.77-.47l.52,.69c-.64,.57-1.37,.86-2.18,.86-.89,0-1.58-.31-2.07-.93-.49-.62-.73-1.49-.73-2.61s.23-2,.7-2.66,1.12-.98,1.95-.98,1.46,.29,1.9,.88c.44,.58,.66,1.42,.66,2.5,0,.18,0,.39-.03,.61Zm-1.11-.96c0-1.43-.47-2.15-1.42-2.15-.43,0-.78,.18-1.03,.54-.25,.36-.39,.94-.43,1.75h2.87v-.14Z" style="fill:#3f32c9;"/><path d="M155.34,160.08c.3,.12,.59,.31,.87,.56l-.52,.7c-.21-.16-.42-.29-.62-.37-.21-.08-.43-.12-.68-.12-.51,0-.91,.22-1.19,.65-.28,.43-.42,1.11-.42,2.03,0,1.72,.54,2.57,1.61,2.57,.24,0,.46-.04,.66-.12,.2-.08,.41-.21,.64-.37l.55,.71c-.55,.5-1.18,.75-1.88,.75-.88,0-1.56-.3-2.06-.91-.5-.61-.75-1.48-.75-2.63,0-.75,.12-1.39,.34-1.94s.55-.97,.97-1.26c.42-.29,.91-.44,1.48-.44,.36,0,.7,.06,1,.18Z" style="fill:#3f32c9;"/><path d="M161.86,160.45c.31,.36,.46,.86,.46,1.48v4.98h-1.17v-4.84c0-.44-.08-.76-.23-.96-.15-.2-.38-.29-.67-.29-.57,0-1.09,.41-1.56,1.22v4.86h-1.17v-9.59l1.17-.13v3.86c.25-.37,.53-.66,.83-.85,.3-.19,.65-.29,1.05-.29,.55,0,.97,.18,1.28,.55Z" style="fill:#3f32c9;"/><path d="M168.71,160.44c.31,.36,.46,.86,.46,1.49v4.98h-1.17v-4.84c0-.44-.07-.76-.22-.96-.15-.2-.37-.29-.68-.29-.57,0-1.09,.41-1.56,1.22v4.86h-1.17v-6.84h1.01l.09,1.01c.53-.79,1.18-1.18,1.95-1.18,.55,0,.97,.18,1.28,.54Z" style="fill:#3f32c9;"/><path d="M175.65,160.83c.49,.62,.73,1.5,.73,2.65s-.25,1.99-.74,2.63c-.49,.65-1.17,.97-2.04,.97s-1.56-.32-2.05-.95c-.49-.63-.73-1.51-.73-2.64s.25-2.02,.74-2.65c.49-.63,1.18-.94,2.05-.94s1.56,.31,2.04,.92Zm-3.21,.66c-.27,.43-.4,1.1-.4,2.01,0,1.78,.52,2.67,1.56,2.67s1.56-.89,1.56-2.68c0-.91-.13-1.58-.39-2s-.65-.64-1.16-.64-.9,.21-1.17,.64Z" style="fill:#3f32c9;"/><path d="M185.73,160.82c.39,.61,.59,1.5,.59,2.66s-.21,1.99-.64,2.63c-.43,.65-1.01,.97-1.75,.97-.35,0-.66-.08-.95-.24s-.53-.39-.74-.68l-.08,.75h-1.04v-9.59l1.17-.13v3.72c.22-.31,.47-.56,.77-.73,.3-.18,.63-.27,1-.27,.72,0,1.28,.31,1.67,.92Zm-.63,2.66c0-.96-.12-1.64-.35-2.05-.23-.4-.57-.6-1-.6-.3,0-.57,.09-.8,.27-.23,.18-.45,.44-.66,.77v3.39c.17,.27,.36,.49,.6,.65,.23,.17,.49,.25,.77,.25,.96,0,1.44-.89,1.44-2.68Z" style="fill:#3f32c9;"/><path d="M192.73,166.91h-1.01l-.07-1.03c-.48,.8-1.11,1.2-1.91,1.2-.55,0-.97-.18-1.29-.53-.31-.36-.47-.84-.47-1.44v-5.03h1.17v4.93c0,.4,.08,.69,.23,.88s.38,.28,.68,.28c.58,0,1.08-.38,1.5-1.14v-4.94h1.17v6.84Z" style="fill:#3f32c9;"/><path d="M199.7,157.3v9.61h-1.04l-.08-.9c-.44,.71-1.04,1.07-1.78,1.07s-1.32-.32-1.74-.95c-.41-.63-.62-1.5-.62-2.61,0-.72,.1-1.35,.31-1.9,.2-.55,.49-.97,.86-1.27,.37-.3,.8-.45,1.29-.45,.65,0,1.19,.27,1.62,.82v-3.55l1.17,.13Zm-1.81,8.59c.23-.17,.44-.43,.64-.77v-3.43c-.39-.58-.84-.87-1.37-.87-.46,0-.82,.22-1.09,.66s-.4,1.11-.39,2c0,.91,.12,1.58,.36,2.01,.24,.43,.58,.65,1.03,.65,.31,0,.58-.09,.81-.26Z" style="fill:#3f32c9;"/><path d="M206.58,163.89h-3.98c.04,.8,.2,1.37,.48,1.72,.29,.35,.68,.53,1.17,.53,.31,0,.59-.05,.84-.14,.25-.09,.5-.25,.77-.47l.52,.69c-.64,.57-1.37,.86-2.18,.86-.89,0-1.58-.31-2.07-.93-.49-.62-.73-1.49-.73-2.61s.23-2,.7-2.66,1.12-.98,1.95-.98,1.46,.29,1.9,.88c.44,.58,.66,1.42,.66,2.5,0,.18,0,.39-.03,.61Zm-1.11-.96c0-1.43-.47-2.15-1.42-2.15-.43,0-.78,.18-1.03,.54-.25,.36-.39,.94-.43,1.75h2.87v-.14Z" style="fill:#3f32c9;"/><path d="M215.62,160.44c.31,.36,.46,.86,.46,1.49v4.98h-1.17v-4.84c0-.44-.07-.76-.22-.96-.15-.2-.37-.29-.68-.29-.57,0-1.09,.41-1.56,1.22v4.86h-1.17v-6.84h1.01l.09,1.01c.53-.79,1.18-1.18,1.95-1.18,.55,0,.97,.18,1.28,.54Z" style="fill:#3f32c9;"/><path d="M222.51,165.97c.08,.13,.2,.24,.36,.31l-.25,.79c-.34-.05-.6-.16-.79-.31-.19-.16-.33-.39-.4-.71-.44,.69-1.06,1.04-1.86,1.04-.61,0-1.09-.19-1.44-.57s-.53-.88-.53-1.51c0-.73,.24-1.28,.72-1.66,.48-.38,1.16-.57,2.04-.57h.88v-.58c0-.48-.1-.82-.29-1.03-.19-.21-.51-.32-.96-.32-.48,0-1.03,.12-1.66,.36l-.29-.82c.76-.31,1.47-.47,2.13-.47,1.48,0,2.22,.74,2.22,2.22v3.22c0,.28,.04,.48,.12,.62Zm-1.27-.84v-1.61h-.75c-1.13,0-1.69,.47-1.69,1.42,0,.41,.09,.72,.27,.94,.18,.22,.44,.33,.78,.33,.61,0,1.07-.36,1.39-1.07Z" style="fill:#3f32c9;"/><path d="M235.06,160.46c.29,.37,.44,.86,.44,1.48v4.98h-1.16v-4.85c0-.83-.27-1.25-.81-1.25s-1,.4-1.43,1.2v4.9h-1.16v-4.85c0-.83-.27-1.25-.81-1.25s-1,.4-1.43,1.2v4.9h-1.16v-6.84h1.01l.09,1c.5-.78,1.11-1.17,1.82-1.17,.37,0,.69,.11,.95,.33s.45,.52,.56,.92c.53-.83,1.16-1.25,1.88-1.25,.49,0,.89,.18,1.18,.55Z" style="fill:#3f32c9;"/><path d="M241.97,160.83c.49,.62,.73,1.5,.73,2.65s-.25,1.99-.74,2.63c-.49,.65-1.17,.97-2.04,.97s-1.56-.32-2.05-.95c-.49-.63-.73-1.51-.73-2.64s.25-2.02,.74-2.65c.49-.63,1.18-.94,2.05-.94s1.56,.31,2.04,.92Zm-3.21,.66c-.27,.43-.4,1.1-.4,2.01,0,1.78,.52,2.67,1.56,2.67s1.56-.89,1.56-2.68c0-.91-.13-1.58-.39-2s-.65-.64-1.16-.64-.9,.21-1.17,.64Z" style="fill:#3f32c9;"/><path d="M249,160.82c.39,.61,.59,1.5,.59,2.66s-.21,1.99-.64,2.63c-.43,.65-1.01,.97-1.75,.97-.35,0-.66-.08-.95-.24s-.53-.39-.74-.68l-.08,.75h-1.04v-9.59l1.17-.13v3.72c.22-.31,.47-.56,.77-.73,.3-.18,.63-.27,1-.27,.72,0,1.28,.31,1.67,.92Zm-.63,2.66c0-.96-.12-1.64-.35-2.05-.23-.4-.57-.6-1-.6-.3,0-.57,.09-.8,.27-.23,.18-.45,.44-.66,.77v3.39c.17,.27,.36,.49,.6,.65,.23,.17,.49,.25,.77,.25,.96,0,1.44-.89,1.44-2.68Z" style="fill:#3f32c9;"/><path d="M252.45,157.07c.14,.15,.21,.33,.21,.55s-.07,.4-.21,.54c-.14,.14-.33,.21-.56,.21s-.41-.07-.55-.21c-.14-.14-.21-.32-.21-.54s.07-.4,.21-.55c.14-.15,.33-.22,.55-.22s.41,.07,.55,.22Zm.03,3v6.84h-1.17v-6.84h1.17Z" style="fill:#3f32c9;"/><path d="M254.88,166.7c-.24-.25-.36-.6-.36-1.05v-8.35l1.17-.13v8.44c0,.34,.14,.51,.42,.51,.11,0,.24-.03,.38-.08l.26,.82c-.28,.15-.57,.22-.87,.22-.42,0-.75-.13-.99-.38Z" style="fill:#3f32c9;"/></g></svg>