<?xml version="1.0" encoding="UTF-8"?><svg id="Layer_1" xmlns="http://www.w3.org/2000/svg" viewBox="0 0 620 887.31"><rect width="620" height="887.31" style="fill:#fff;"/><g style="isolation:isolate;"><path d="M6.23,21.61c0,1.33-.32,2.34-.95,3.01-.63,.68-1.53,1.21-2.71,1.59l-.63-1.71c.53-.2,.93-.44,1.2-.69,.27-.26,.45-.56,.55-.92,.1-.35,.14-.81,.14-1.38V10.99h2.39v10.62Z"/><path d="M16.21,21.73c.11,.17,.3,.31,.55,.41l-.49,1.53c-.54-.05-.98-.18-1.32-.4-.34-.22-.6-.55-.78-.99-.32,.48-.73,.84-1.21,1.07s-1.03,.35-1.63,.35c-.95,0-1.7-.27-2.25-.81s-.83-1.25-.83-2.12c0-1.03,.38-1.82,1.12-2.37,.75-.55,1.82-.82,3.21-.82h1.19v-.54c0-.61-.14-1.04-.42-1.29-.28-.25-.74-.37-1.36-.37-.7,0-1.54,.17-2.52,.5l-.54-1.57c1.19-.46,2.34-.68,3.46-.68,2.44,0,3.65,1.09,3.65,3.28v4c0,.37,.06,.65,.17,.82Zm-2.44-.87v-1.93h-.95c-1.49,0-2.23,.55-2.23,1.66,0,.46,.11,.81,.34,1.06,.23,.25,.56,.38,1.01,.38,.78,0,1.39-.39,1.84-1.17Z"/><path d="M21.13,9.84v13.59h-2.3V10.09l2.3-.25Zm5.71,4.07l-3.17,4.19,3.47,5.33h-2.65l-3.28-5.2,3.19-4.32h2.43Z"/><path d="M40.59,13.91l-3.1,9.52h-2.75l-3.15-9.52h2.5l2.03,7.67,2.09-7.67h2.38Z"/><path d="M54.75,17.76c.52,.46,.78,1.15,.78,2.09,0,1.3-.46,2.22-1.37,2.76s-2.19,.82-3.83,.82h-3.74V10.99h3.26c3.43,0,5.15,1.06,5.15,3.17,0,.73-.22,1.33-.67,1.79-.44,.46-.99,.76-1.64,.89,.85,.16,1.54,.46,2.06,.92Zm-5.79-5.02v3.37h1.46c.66,0,1.18-.15,1.57-.44,.38-.29,.58-.73,.58-1.3s-.2-1.02-.6-1.26c-.4-.24-1.03-.36-1.88-.36h-1.12Zm3.39,8.51c.46-.26,.69-.76,.69-1.49s-.22-1.22-.66-1.53c-.44-.31-1.04-.47-1.79-.47h-1.64v3.89h1.39c.88,0,1.54-.13,2.01-.4Z"/><path d="M63.2,13.78l-.4,2.23c-.29-.07-.57-.11-.85-.11-.56,0-1.01,.2-1.33,.6s-.58,1.02-.77,1.84v5.08h-2.3V13.91h2l.22,1.87c.23-.68,.56-1.21,.99-1.58,.43-.37,.93-.55,1.49-.55,.35,0,.67,.04,.95,.13Z"/><path d="M71.71,14.4c.47,.51,.71,1.22,.71,2.13v6.89h-2.3v-6.53c0-.56-.1-.96-.3-1.19-.2-.23-.49-.34-.87-.34s-.75,.12-1.07,.37c-.32,.25-.63,.6-.93,1.07v6.62h-2.3V13.91h2l.18,1.24c.78-1.01,1.75-1.51,2.9-1.51,.85,0,1.51,.25,1.99,.77Z"/><path d="M82.86,19.38h-5.98c.07,.92,.31,1.58,.72,1.98s.95,.59,1.62,.59c.42,0,.82-.07,1.19-.21,.37-.14,.77-.35,1.19-.64l.95,1.31c-1.06,.85-2.23,1.28-3.53,1.28-1.45,0-2.57-.44-3.36-1.33-.79-.89-1.18-2.1-1.18-3.64,0-.97,.17-1.84,.5-2.62s.82-1.38,1.46-1.82c.64-.44,1.39-.66,2.27-.66,1.33,0,2.36,.42,3.1,1.27,.73,.85,1.1,2.02,1.1,3.54,0,.12-.02,.43-.05,.94Zm-1.75-10.35l.88,1.01-2.5,2.25h-1.44l-2.5-2.25,.88-1.01,2.34,1.58,2.34-1.58Zm-.49,8.75c0-1.67-.62-2.5-1.85-2.5-.56,0-1,.21-1.32,.62-.32,.41-.51,1.08-.57,1.99h3.74v-.11Z"/><path d="M96.54,14.41c.48,.52,.72,1.22,.72,2.12v6.89h-2.3v-6.53c0-.56-.1-.96-.3-1.19-.2-.23-.49-.34-.87-.34s-.74,.12-1.06,.37-.64,.6-.94,1.05v6.64h-2.3V10.11l2.3-.23v5.17c.77-.94,1.69-1.4,2.77-1.4,.84,0,1.5,.26,1.98,.77Z"/><path d="M100.47,23.06c-.41-.43-.62-1.03-.62-1.81V10.09l2.3-.25v11.34c0,.44,.18,.67,.54,.67,.18,0,.36-.03,.54-.09l.49,1.62c-.48,.22-.99,.32-1.53,.32-.73,0-1.3-.21-1.72-.64Z"/><path d="M112.37,21.73c.11,.17,.3,.31,.55,.41l-.49,1.53c-.54-.05-.98-.18-1.32-.4-.34-.22-.6-.55-.78-.99-.32,.48-.73,.84-1.21,1.07s-1.03,.35-1.63,.35c-.95,0-1.7-.27-2.25-.81s-.83-1.25-.83-2.12c0-1.03,.38-1.82,1.12-2.37,.75-.55,1.82-.82,3.21-.82h1.19v-.54c0-.61-.14-1.04-.42-1.29-.28-.25-.74-.37-1.36-.37-.7,0-1.54,.17-2.52,.5l-.54-1.57c1.19-.46,2.34-.68,3.46-.68,2.44,0,3.65,1.09,3.65,3.28v4c0,.37,.06,.65,.17,.82Zm-2.44-.87v-1.93h-.95c-1.49,0-2.23,.55-2.23,1.66,0,.46,.11,.81,.34,1.06,.23,.25,.56,.38,1.01,.38,.78,0,1.39-.39,1.84-1.17Z"/><path d="M121.2,14.77l-.9,1.35c-.82-.52-1.61-.77-2.39-.77-.46,0-.81,.09-1.06,.26s-.38,.4-.38,.69c0,.22,.05,.4,.16,.54,.11,.14,.3,.28,.58,.4s.7,.27,1.25,.42c1.03,.28,1.8,.64,2.29,1.1,.5,.46,.75,1.09,.75,1.91,0,.95-.38,1.69-1.15,2.22-.77,.53-1.72,.8-2.86,.8-.78,0-1.49-.12-2.13-.36-.64-.24-1.2-.57-1.67-.99l1.15-1.3c.83,.62,1.69,.94,2.59,.94,.52,0,.93-.1,1.23-.31,.31-.2,.46-.49,.46-.85,0-.28-.06-.5-.17-.66-.11-.16-.32-.31-.61-.43s-.75-.28-1.38-.46c-.97-.26-1.69-.63-2.14-1.11-.46-.47-.68-1.06-.68-1.77,0-.53,.15-1,.46-1.42,.31-.42,.74-.75,1.3-.99,.56-.24,1.2-.36,1.92-.36,1.28,0,2.41,.38,3.38,1.13Z"/><path d="M130.55,14.98c.79,.89,1.18,2.12,1.18,3.68,0,1-.18,1.88-.54,2.64-.36,.76-.88,1.35-1.55,1.77-.67,.42-1.47,.63-2.39,.63-1.4,0-2.5-.45-3.29-1.34s-1.19-2.13-1.19-3.7c0-1,.18-1.87,.54-2.63,.36-.76,.88-1.34,1.56-1.76,.68-.42,1.48-.63,2.4-.63,1.4,0,2.5,.45,3.28,1.34Zm-5.35,3.68c0,1.13,.17,1.96,.51,2.49s.86,.8,1.54,.8,1.2-.27,1.54-.81,.51-1.37,.51-2.48-.17-1.94-.51-2.48c-.34-.53-.85-.8-1.52-.8-1.38,0-2.07,1.09-2.07,3.28Z"/><path d="M141.43,13.91l-3.1,9.52h-2.75l-3.15-9.52h2.5l2.03,7.67,2.09-7.67h2.38Z"/><path d="M149.72,21.73c.11,.17,.3,.31,.55,.41l-.49,1.53c-.54-.05-.98-.18-1.32-.4-.34-.22-.6-.55-.78-.99-.32,.48-.73,.84-1.21,1.07s-1.03,.35-1.63,.35c-.95,0-1.7-.27-2.25-.81s-.83-1.25-.83-2.12c0-1.03,.38-1.82,1.12-2.37,.75-.55,1.82-.82,3.21-.82h1.19v-.54c0-.61-.14-1.04-.42-1.29-.28-.25-.74-.37-1.36-.37-.7,0-1.54,.17-2.52,.5l-.54-1.57c1.19-.46,2.34-.68,3.46-.68,2.44,0,3.65,1.09,3.65,3.28v4c0,.37,.06,.65,.17,.82Zm-2.44-.87v-1.93h-.95c-1.49,0-2.23,.55-2.23,1.66,0,.46,.11,.81,.34,1.06,.23,.25,.56,.38,1.01,.38,.78,0,1.39-.39,1.84-1.17Z"/><path d="M152.69,23.06c-.41-.43-.62-1.03-.62-1.81V10.09l2.3-.25v11.34c0,.44,.18,.67,.54,.67,.18,0,.36-.03,.54-.09l.49,1.62c-.48,.22-.99,.32-1.53,.32-.73,0-1.3-.21-1.72-.64Z"/><path d="M159.65,9.49c.27,.27,.4,.6,.4,1s-.13,.73-.4,.99c-.27,.26-.62,.4-1.05,.4s-.76-.13-1.03-.4c-.27-.26-.41-.59-.41-.99s.13-.73,.41-1c.27-.27,.61-.41,1.03-.41s.78,.14,1.05,.41Zm.12,4.42v9.52h-2.3V13.91h2.3Z"/><path d="M175.05,10.09v13.34h-2.03l-.16-1.21c-.3,.46-.68,.82-1.14,1.08s-.99,.4-1.57,.4c-1.16,0-2.06-.45-2.68-1.35s-.94-2.12-.94-3.67c0-.97,.16-1.84,.47-2.6,.31-.76,.76-1.36,1.34-1.79s1.26-.65,2.03-.65c.91,0,1.71,.34,2.39,1.03v-4.82l2.3,.25Zm-3.19,11.56c.31-.2,.61-.51,.88-.93v-4.36c-.28-.34-.55-.59-.84-.76s-.61-.25-.98-.25c-.61,0-1.1,.27-1.45,.82-.35,.55-.53,1.37-.53,2.48,0,1.18,.16,2.02,.47,2.53,.31,.51,.77,.77,1.37,.77,.41,0,.77-.1,1.08-.3Z"/><path d="M185.58,19.38h-5.98c.07,.92,.31,1.58,.72,1.98s.95,.59,1.62,.59c.42,0,.82-.07,1.19-.21,.37-.14,.77-.35,1.19-.64l.95,1.31c-1.06,.85-2.23,1.28-3.53,1.28-1.45,0-2.57-.44-3.36-1.33-.79-.89-1.18-2.1-1.18-3.64,0-.97,.17-1.84,.5-2.62s.82-1.38,1.46-1.82c.64-.44,1.39-.66,2.27-.66,1.33,0,2.36,.42,3.1,1.27,.73,.85,1.1,2.02,1.1,3.54,0,.12-.02,.43-.05,.94Zm-2.23-1.6c0-1.67-.62-2.5-1.85-2.5-.56,0-1,.21-1.32,.62-.32,.41-.51,1.08-.57,1.99h3.74v-.11Z"/><path d="M194.1,14.77l-.9,1.35c-.82-.52-1.61-.77-2.39-.77-.46,0-.81,.09-1.06,.26s-.38,.4-.38,.69c0,.22,.05,.4,.16,.54,.11,.14,.3,.28,.58,.4s.7,.27,1.25,.42c1.03,.28,1.8,.64,2.29,1.1,.5,.46,.75,1.09,.75,1.91,0,.95-.38,1.69-1.15,2.22-.77,.53-1.72,.8-2.86,.8-.78,0-1.49-.12-2.13-.36-.64-.24-1.2-.57-1.67-.99l1.15-1.3c.83,.62,1.69,.94,2.59,.94,.52,0,.93-.1,1.23-.31,.31-.2,.46-.49,.46-.85,0-.28-.06-.5-.17-.66-.11-.16-.32-.31-.61-.43s-.75-.28-1.38-.46c-.97-.26-1.69-.63-2.14-1.11-.46-.47-.68-1.06-.68-1.77,0-.53,.15-1,.46-1.42,.31-.42,.74-.75,1.3-.99,.56-.24,1.2-.36,1.92-.36,1.28,0,2.41,.38,3.38,1.13Z"/><path d="M198.58,9.84v13.59h-2.3V10.09l2.3-.25Zm5.71,4.07l-3.17,4.19,3.47,5.33h-2.65l-3.28-5.2,3.19-4.32h2.43Z"/><path d="M211.34,22.98c-.34,.24-.71,.42-1.12,.54-.41,.12-.84,.18-1.27,.18-.94-.01-1.65-.28-2.13-.8-.49-.52-.73-1.29-.73-2.31v-5.02h-1.49v-1.66h1.49v-2.11l2.3-.27v2.38h2.21l-.23,1.66h-1.98v4.97c0,.47,.08,.8,.24,1.01,.16,.2,.42,.31,.77,.31s.73-.11,1.13-.34l.81,1.48Z"/><path d="M219.5,14.98c.79,.89,1.18,2.12,1.18,3.68,0,1-.18,1.88-.54,2.64-.36,.76-.88,1.35-1.55,1.77-.67,.42-1.47,.63-2.39,.63-1.4,0-2.5-.45-3.29-1.34s-1.19-2.13-1.19-3.7c0-1,.18-1.87,.54-2.63,.36-.76,.88-1.34,1.56-1.76,.68-.42,1.48-.63,2.4-.63,1.4,0,2.5,.45,3.28,1.34Zm-5.35,3.68c0,1.13,.17,1.96,.51,2.49s.86,.8,1.54,.8,1.2-.27,1.54-.81,.51-1.37,.51-2.48-.17-1.94-.51-2.48c-.34-.53-.85-.8-1.52-.8-1.38,0-2.07,1.09-2.07,3.28Z"/><path d="M230.44,14.95c.58,.88,.86,2.11,.86,3.69,0,.98-.15,1.86-.44,2.62-.29,.76-.73,1.36-1.3,1.79-.57,.43-1.25,.65-2.03,.65-1.01,0-1.81-.35-2.39-1.04v4.45l-2.3,.25V13.91h2.02l.13,1.17c.37-.48,.8-.84,1.28-1.08,.48-.24,.98-.36,1.51-.36,1.2,0,2.09,.44,2.66,1.31Zm-1.55,3.71c0-1.16-.15-2-.45-2.52-.3-.52-.75-.77-1.35-.77-.38,0-.74,.12-1.08,.35s-.62,.55-.86,.94v4.28c.44,.66,1.03,.99,1.75,.99,1.33,0,2-1.09,2-3.28Z"/></g><g><path d="M10.27,46.63c0,1.02-.29,1.84-.87,2.45-.58,.61-1.42,.92-2.5,.92s-1.94-.31-2.51-.92c-.58-.61-.86-1.43-.86-2.46v-7.06h.9v6.99c0,.86,.2,1.52,.61,1.98,.41,.46,1.03,.69,1.87,.69s1.46-.23,1.86-.7c.4-.46,.6-1.12,.6-1.97v-6.99h.92v7.06Z"/><path d="M22.65,42.46c.38,.42,.56,1.01,.56,1.77v5.61h-.87v-5.49c0-.63-.12-1.09-.38-1.38s-.62-.44-1.11-.44-.94,.14-1.33,.41c-.38,.28-.75,.68-1.1,1.21v5.69h-.87v-7.85h.75l.09,1.34c.32-.47,.7-.84,1.14-1.1,.44-.27,.93-.4,1.48-.4,.71,0,1.25,.21,1.63,.63Z"/><path d="M31.85,46.25h-5.24c.05,1.02,.29,1.78,.73,2.27,.44,.5,1.01,.74,1.72,.74,.41,0,.77-.06,1.09-.19,.31-.12,.66-.32,1.03-.59l.41,.56c-.39,.32-.79,.56-1.2,.72-.41,.16-.87,.24-1.37,.24-1.04,0-1.86-.35-2.45-1.06s-.88-1.7-.88-2.96c0-.83,.13-1.56,.38-2.18,.25-.62,.62-1.11,1.09-1.46,.47-.34,1.03-.52,1.66-.52,1,0,1.76,.34,2.28,1.01,.52,.68,.78,1.6,.78,2.78,0,.22-.01,.43-.03,.63Zm-.83-.9c0-.88-.18-1.57-.55-2.06-.37-.5-.91-.74-1.63-.74-.65,0-1.17,.25-1.58,.75-.4,.5-.62,1.26-.66,2.28h4.41v-.23Z"/><path d="M35.23,49.55c0,.68-.08,1.22-.22,1.63-.15,.41-.37,.73-.66,.98s-.7,.49-1.23,.73l-.25-.63c.38-.19,.67-.38,.88-.56,.2-.19,.36-.44,.46-.77,.1-.33,.16-.77,.16-1.34v-7.59h.87v7.56Zm.03-10.83c.12,.12,.18,.27,.18,.45s-.06,.33-.18,.45c-.12,.12-.28,.18-.48,.18-.19,0-.34-.06-.46-.18-.12-.12-.18-.27-.18-.45s.06-.33,.18-.45c.12-.12,.28-.18,.46-.18,.2,0,.36,.06,.48,.18Z"/><path d="M42.29,42.01c.35,.12,.69,.33,1.02,.61l-.44,.57c-.26-.21-.53-.36-.8-.46-.28-.1-.59-.15-.94-.15-.74,0-1.33,.29-1.77,.86s-.66,1.41-.66,2.51,.22,1.91,.65,2.46c.43,.55,1.02,.82,1.76,.82,.35,0,.67-.05,.95-.17,.29-.11,.57-.27,.86-.49l.42,.58c-.66,.56-1.41,.84-2.25,.84-.67,0-1.25-.16-1.75-.48s-.89-.78-1.16-1.39c-.27-.6-.41-1.33-.41-2.17s.14-1.56,.41-2.18c.28-.62,.66-1.11,1.16-1.45s1.08-.51,1.74-.51c.45,0,.85,.06,1.2,.19Zm.63-3.71l.39,.45-1.94,1.59h-.54l-1.95-1.59,.39-.45,1.83,1.26,1.82-1.26Z"/><path d="M50.32,48.98c.11,.18,.27,.31,.5,.4l-.2,.62c-.36-.07-.64-.21-.83-.41-.2-.2-.32-.5-.38-.91-.54,.88-1.36,1.32-2.45,1.32-.75,0-1.34-.21-1.78-.64-.43-.42-.65-.99-.65-1.7,0-.81,.29-1.44,.86-1.88s1.37-.66,2.39-.66h1.5v-.77c0-.63-.14-1.09-.42-1.37-.28-.28-.75-.43-1.39-.43-.6,0-1.31,.15-2.13,.45l-.23-.66c.88-.35,1.71-.52,2.48-.52,1.71,0,2.56,.83,2.56,2.49v3.78c0,.41,.05,.71,.16,.89Zm-1.03-1.06v-2.16h-1.36c-.8,0-1.41,.16-1.83,.46-.42,.31-.63,.78-.63,1.4,0,.54,.15,.96,.44,1.25s.7,.44,1.21,.44c.94,0,1.67-.46,2.17-1.38Z"/><path d="M56.44,42.04c.4,.15,.79,.36,1.17,.65l-.4,.57c-.36-.25-.7-.43-1.02-.55-.32-.11-.67-.17-1.05-.17-.52,0-.94,.12-1.26,.36-.32,.24-.48,.56-.48,.96s.14,.68,.41,.89c.27,.21,.77,.41,1.49,.6,.89,.23,1.53,.52,1.93,.87,.39,.35,.59,.85,.59,1.5,0,.7-.27,1.26-.81,1.67-.54,.41-1.21,.62-2.03,.62-.6,0-1.12-.09-1.57-.26-.45-.17-.86-.42-1.23-.74l.48-.56c.35,.28,.71,.49,1.07,.62,.36,.13,.78,.2,1.24,.2,.58,0,1.05-.13,1.4-.4,.36-.27,.53-.63,.53-1.1,0-.32-.06-.58-.18-.78-.12-.2-.33-.37-.62-.52-.29-.14-.71-.29-1.27-.44-.83-.22-1.43-.5-1.79-.82-.37-.33-.55-.77-.55-1.32,0-.39,.11-.74,.34-1.06,.23-.31,.54-.56,.94-.73,.39-.17,.84-.26,1.33-.26s.94,.07,1.33,.22Z"/><path d="M63.71,49.51c-.5,.33-1.05,.5-1.65,.5s-1.07-.18-1.41-.53c-.34-.35-.51-.87-.51-1.54v-5.24h-1.32v-.71h1.32v-1.88l.87-.1v1.98h2.03l-.11,.71h-1.92v5.19c0,.46,.09,.8,.29,1.03,.19,.23,.48,.34,.87,.34s.8-.11,1.2-.35l.34,.6Z"/><path d="M70.61,46.25h-5.24c.05,1.02,.29,1.78,.73,2.27,.44,.5,1.01,.74,1.72,.74,.41,0,.77-.06,1.09-.19,.31-.12,.66-.32,1.03-.59l.41,.56c-.39,.32-.79,.56-1.2,.72-.41,.16-.87,.24-1.37,.24-1.04,0-1.86-.35-2.45-1.06s-.88-1.7-.88-2.96c0-.83,.13-1.56,.38-2.18,.25-.62,.62-1.11,1.09-1.46,.47-.34,1.03-.52,1.66-.52,1,0,1.76,.34,2.28,1.01,.52,.68,.78,1.6,.78,2.78,0,.22-.01,.43-.03,.63Zm-.83-.9c0-.88-.18-1.57-.55-2.06-.37-.5-.91-.74-1.63-.74-.65,0-1.17,.25-1.58,.75-.4,.5-.62,1.26-.66,2.28h4.41v-.23Zm-.34-7.05l.39,.45-1.93,1.59h-.54l-1.95-1.59,.39-.45,1.83,1.26,1.82-1.26Z"/><path d="M73.99,49.55c0,.68-.08,1.22-.22,1.63-.15,.41-.37,.73-.66,.98s-.7,.49-1.23,.73l-.25-.63c.38-.19,.67-.38,.88-.56,.2-.19,.36-.44,.46-.77,.1-.33,.16-.77,.16-1.34v-7.59h.87v7.56Zm.03-10.83c.12,.12,.18,.27,.18,.45s-.06,.33-.18,.45c-.12,.12-.28,.18-.48,.18-.19,0-.34-.06-.46-.18-.12-.12-.18-.27-.18-.45s.06-.33,.18-.45c.12-.12,.28-.18,.46-.18,.2,0,.36,.06,.48,.18Z"/><path d="M80.42,42.04c.4,.15,.79,.36,1.17,.65l-.4,.57c-.36-.25-.7-.43-1.02-.55-.32-.11-.67-.17-1.05-.17-.52,0-.94,.12-1.26,.36-.32,.24-.48,.56-.48,.96s.14,.68,.41,.89c.27,.21,.77,.41,1.49,.6,.89,.23,1.53,.52,1.93,.87,.39,.35,.59,.85,.59,1.5,0,.7-.27,1.26-.81,1.67-.54,.41-1.21,.62-2.03,.62-.6,0-1.12-.09-1.57-.26-.45-.17-.86-.42-1.23-.74l.48-.56c.35,.28,.71,.49,1.07,.62,.36,.13,.78,.2,1.24,.2,.58,0,1.05-.13,1.4-.4,.36-.27,.53-.63,.53-1.1,0-.32-.06-.58-.18-.78-.12-.2-.33-.37-.62-.52-.29-.14-.71-.29-1.27-.44-.83-.22-1.43-.5-1.79-.82-.37-.33-.55-.77-.55-1.32,0-.39,.11-.74,.34-1.06,.23-.31,.54-.56,.94-.73,.39-.17,.84-.26,1.33-.26s.94,.07,1.33,.22Zm.57-3.74l.39,.45-1.93,1.59h-.54l-1.95-1.59,.39-.45,1.83,1.26,1.82-1.26Z"/><path d="M85.69,38.11l.39,.78-2.92,1.28-.29-.51,2.82-1.54Zm-.69,3.88v7.85h-.87v-7.85h.87Z"/><path d="M92.06,42.01c.35,.12,.69,.33,1.02,.61l-.44,.57c-.26-.21-.53-.36-.8-.46-.28-.1-.59-.15-.94-.15-.74,0-1.33,.29-1.77,.86s-.66,1.41-.66,2.51,.22,1.91,.65,2.46c.43,.55,1.02,.82,1.76,.82,.35,0,.67-.05,.95-.17,.29-.11,.57-.27,.86-.49l.42,.58c-.66,.56-1.41,.84-2.25,.84-.67,0-1.25-.16-1.75-.48s-.89-.78-1.16-1.39c-.27-.6-.41-1.33-.41-2.17s.14-1.56,.41-2.18c.28-.62,.66-1.11,1.16-1.45s1.08-.51,1.74-.51c.45,0,.85,.06,1.2,.19Z"/><path d="M100.29,42.46c.38,.43,.57,1.01,.57,1.76v5.61h-.87v-5.49c0-1.21-.5-1.81-1.49-1.81-.5,0-.94,.14-1.33,.41-.38,.28-.75,.68-1.1,1.21v5.69h-.87v-11.04l.87-.1v4.6c.7-.98,1.57-1.47,2.59-1.47,.7,0,1.24,.21,1.62,.64Z"/><path d="M112.38,41.99v.68l-4.38,6.42h4.35l-.09,.75h-5.28v-.67l4.38-6.42h-4.02v-.75h5.04Z"/><path d="M119.57,42.46c.38,.43,.57,1.01,.57,1.76v5.61h-.87v-5.49c0-1.21-.5-1.81-1.49-1.81-.5,0-.94,.14-1.33,.41-.38,.28-.75,.68-1.1,1.21v5.69h-.87v-11.04l.87-.1v4.6c.7-.98,1.57-1.47,2.59-1.47,.7,0,1.24,.21,1.62,.64Z"/><path d="M128.38,42.9c.58,.71,.88,1.71,.88,2.99s-.3,2.27-.89,3.01c-.6,.73-1.41,1.1-2.44,1.1s-1.85-.36-2.44-1.09-.88-1.72-.88-2.99c0-.83,.13-1.55,.41-2.17,.27-.62,.65-1.1,1.15-1.43s1.09-.49,1.77-.49c1.04,0,1.85,.36,2.44,1.07Zm-4.21,.52c-.42,.57-.63,1.4-.63,2.5s.21,1.92,.62,2.49c.42,.57,1,.85,1.76,.85s1.35-.29,1.78-.85c.42-.57,.64-1.41,.64-2.52s-.21-1.92-.62-2.48c-.42-.56-1.01-.85-1.78-.85s-1.35,.28-1.77,.85Z"/><path d="M137.31,49.84h-.75l-.04-1.4c-.62,1.04-1.47,1.56-2.56,1.56-.71,0-1.26-.21-1.64-.62-.39-.42-.58-1.01-.58-1.78v-5.61h.87v5.52c0,.61,.13,1.06,.38,1.34s.64,.43,1.16,.43c.91,0,1.67-.53,2.29-1.6v-5.69h.87v7.85Z"/><path d="M145.83,42.88c.5,.7,.75,1.7,.75,3s-.26,2.27-.79,3.02c-.53,.74-1.26,1.11-2.2,1.11-.47,0-.9-.1-1.28-.31s-.71-.49-.97-.84l-.09,.99h-.77v-11.04l.87-.1v4.4c.62-.84,1.41-1.26,2.36-1.26s1.61,.35,2.11,1.05Zm-.76,5.54c.38-.57,.58-1.42,.58-2.54,0-2.22-.71-3.33-2.12-3.33-.47,0-.88,.12-1.21,.35s-.66,.57-.96,1v4.12c.25,.39,.55,.7,.9,.92,.35,.23,.74,.34,1.17,.34,.71,0,1.26-.29,1.64-.86Z"/><path d="M154.3,42.46c.38,.42,.56,1.01,.56,1.77v5.61h-.87v-5.49c0-.63-.12-1.09-.38-1.38s-.62-.44-1.11-.44-.94,.14-1.33,.41c-.38,.28-.75,.68-1.1,1.21v5.69h-.87v-7.85h.75l.09,1.34c.32-.47,.7-.84,1.14-1.1,.44-.27,.93-.4,1.48-.4,.71,0,1.25,.21,1.63,.63Z"/><path d="M160.34,49.87c-.21,.61-.44,1.11-.69,1.5-.25,.39-.58,.71-.98,.97-.4,.25-.92,.44-1.54,.56l-.09-.68c.52-.13,.93-.29,1.22-.48s.53-.43,.71-.71c.17-.28,.35-.68,.53-1.19h-.3l-2.73-7.85h.95l2.37,7.2,2.33-7.2h.92l-2.69,7.88Zm.54-11.76l.39,.78-2.93,1.28-.28-.51,2.82-1.54Z"/><path d="M168.71,42.01c.35,.12,.69,.33,1.02,.61l-.44,.57c-.26-.21-.53-.36-.8-.46-.28-.1-.59-.15-.94-.15-.74,0-1.33,.29-1.77,.86s-.66,1.41-.66,2.51,.22,1.91,.65,2.46c.43,.55,1.02,.82,1.76,.82,.35,0,.67-.05,.95-.17,.29-.11,.57-.27,.86-.49l.42,.58c-.66,.56-1.41,.84-2.25,.84-.67,0-1.25-.16-1.75-.48s-.89-.78-1.16-1.39c-.27-.6-.41-1.33-.41-2.17s.14-1.56,.41-2.18c.28-.62,.66-1.11,1.16-1.45s1.08-.51,1.74-.51c.45,0,.85,.06,1.2,.19Z"/><path d="M176.94,42.46c.38,.43,.57,1.01,.57,1.76v5.61h-.87v-5.49c0-1.21-.5-1.81-1.49-1.81-.5,0-.94,.14-1.33,.41-.38,.28-.75,.68-1.1,1.21v5.69h-.87v-11.04l.87-.1v4.6c.7-.98,1.57-1.47,2.59-1.47,.7,0,1.24,.21,1.62,.64Z"/><path d="M189.9,42.46c.38,.42,.56,1.01,.56,1.77v5.61h-.87v-5.49c0-.63-.12-1.09-.38-1.38s-.62-.44-1.11-.44-.94,.14-1.33,.41c-.38,.28-.75,.68-1.1,1.21v5.69h-.87v-7.85h.75l.09,1.34c.32-.47,.7-.84,1.14-1.1,.44-.27,.93-.4,1.48-.4,.71,0,1.25,.21,1.63,.63Z"/><path d="M198.6,48.98c.11,.18,.27,.31,.5,.4l-.2,.62c-.36-.07-.64-.21-.83-.41-.2-.2-.32-.5-.38-.91-.54,.88-1.36,1.32-2.45,1.32-.75,0-1.34-.21-1.78-.64-.43-.42-.65-.99-.65-1.7,0-.81,.29-1.44,.86-1.88s1.37-.66,2.39-.66h1.5v-.77c0-.63-.14-1.09-.42-1.37-.28-.28-.75-.43-1.39-.43-.6,0-1.31,.15-2.13,.45l-.23-.66c.88-.35,1.71-.52,2.48-.52,1.71,0,2.56,.83,2.56,2.49v3.78c0,.41,.05,.71,.16,.89Zm-1.03-1.06v-2.16h-1.36c-.8,0-1.41,.16-1.83,.46-.42,.31-.63,.78-.63,1.4,0,.54,.15,.96,.44,1.25s.7,.44,1.21,.44c.94,0,1.67-.46,2.17-1.38Zm-.6-9.81l.39,.78-2.92,1.28-.29-.51,2.82-1.54Z"/><path d="M207.2,38.8v11.04h-.75l-.1-1.2c-.54,.91-1.33,1.37-2.36,1.37-.91,0-1.63-.36-2.15-1.09-.52-.73-.79-1.71-.79-2.96,0-.81,.12-1.52,.37-2.15s.6-1.1,1.07-1.46,1.01-.52,1.64-.52c.89,0,1.62,.35,2.21,1.06v-4.2l.87,.1Zm-1.81,10.12c.34-.24,.66-.6,.94-1.09v-4.1c-.56-.79-1.25-1.19-2.06-1.19-.71,0-1.27,.29-1.69,.89-.42,.59-.62,1.42-.61,2.5,0,1.08,.19,1.91,.57,2.48,.38,.58,.9,.86,1.58,.86,.5,0,.92-.12,1.27-.36Z"/><path d="M215.52,42.9c.58,.71,.88,1.71,.88,2.99s-.3,2.27-.89,3.01c-.6,.73-1.41,1.1-2.44,1.1s-1.85-.36-2.44-1.09-.88-1.72-.88-2.99c0-.83,.13-1.55,.41-2.17,.27-.62,.65-1.1,1.15-1.43s1.09-.49,1.77-.49c1.04,0,1.85,.36,2.44,1.07Zm-4.21,.52c-.42,.57-.63,1.4-.63,2.5s.21,1.92,.62,2.49c.42,.57,1,.85,1.76,.85s1.35-.29,1.78-.85c.42-.57,.64-1.41,.64-2.52s-.21-1.92-.62-2.48c-.42-.56-1.01-.85-1.78-.85s-1.35,.28-1.77,.85Z"/><path d="M222.77,41.92l-.17,.82c-.22-.06-.45-.09-.69-.09-.53,0-.96,.19-1.28,.58s-.6,.99-.82,1.81v4.8h-.87v-7.85h.75l.08,1.76c.21-.65,.5-1.13,.86-1.45s.82-.47,1.36-.47c.31,0,.57,.03,.78,.09Z"/><path d="M230.04,49.84h-.75l-.04-1.4c-.62,1.04-1.47,1.56-2.56,1.56-.71,0-1.26-.21-1.64-.62-.39-.42-.58-1.01-.58-1.78v-5.61h.87v5.52c0,.61,.13,1.06,.38,1.34s.64,.43,1.16,.43c.91,0,1.67-.53,2.29-1.6v-5.69h.87v7.85Zm-1.73-11.92c.28,.27,.41,.6,.41,1.01s-.14,.75-.41,1.01c-.28,.27-.63,.4-1.06,.4s-.8-.13-1.07-.4c-.28-.26-.41-.6-.41-1.01s.14-.75,.41-1.01c.28-.26,.63-.4,1.07-.4s.78,.13,1.06,.4Zm-1.68,.38c-.15,.16-.22,.37-.22,.64s.07,.49,.22,.65c.14,.15,.35,.22,.62,.22s.46-.07,.61-.22c.15-.15,.22-.37,.22-.65s-.07-.48-.22-.64c-.14-.15-.35-.23-.61-.23s-.48,.08-.62,.23Z"/><path d="M240.66,42.04c.4,.15,.79,.36,1.17,.65l-.4,.57c-.36-.25-.7-.43-1.02-.55-.32-.11-.67-.17-1.05-.17-.52,0-.94,.12-1.26,.36-.32,.24-.48,.56-.48,.96s.14,.68,.41,.89c.27,.21,.77,.41,1.49,.6,.89,.23,1.53,.52,1.93,.87,.39,.35,.59,.85,.59,1.5,0,.7-.27,1.26-.81,1.67-.54,.41-1.21,.62-2.03,.62-.6,0-1.12-.09-1.57-.26-.45-.17-.86-.42-1.23-.74l.48-.56c.35,.28,.71,.49,1.07,.62,.36,.13,.78,.2,1.24,.2,.58,0,1.05-.13,1.4-.4,.36-.27,.53-.63,.53-1.1,0-.32-.06-.58-.18-.78-.12-.2-.33-.37-.62-.52-.29-.14-.71-.29-1.27-.44-.83-.22-1.43-.5-1.79-.82-.37-.33-.55-.77-.55-1.32,0-.39,.11-.74,.34-1.06,.23-.31,.54-.56,.94-.73,.39-.17,.84-.26,1.33-.26s.94,.07,1.33,.22Z"/><path d="M249.9,46.25h-5.24c.05,1.02,.29,1.78,.73,2.27,.44,.5,1.01,.74,1.72,.74,.41,0,.77-.06,1.09-.19,.31-.12,.66-.32,1.03-.59l.41,.56c-.39,.32-.79,.56-1.2,.72-.41,.16-.87,.24-1.37,.24-1.04,0-1.86-.35-2.45-1.06s-.88-1.7-.88-2.96c0-.83,.13-1.56,.38-2.18,.25-.62,.62-1.11,1.09-1.46,.47-.34,1.03-.52,1.66-.52,1,0,1.76,.34,2.28,1.01,.52,.68,.78,1.6,.78,2.78,0,.22-.01,.43-.03,.63Zm-.83-.9c0-.88-.18-1.57-.55-2.06-.37-.5-.91-.74-1.63-.74-.65,0-1.17,.25-1.58,.75-.4,.5-.62,1.26-.66,2.28h4.41v-.23Z"/><path d="M262.1,49.84h-.75l-.04-1.4c-.62,1.04-1.47,1.56-2.56,1.56-.71,0-1.26-.21-1.64-.62-.39-.42-.58-1.01-.58-1.78v-5.61h.87v5.52c0,.61,.13,1.06,.38,1.34s.64,.43,1.16,.43c.91,0,1.67-.53,2.29-1.6v-5.69h.87v7.85Zm-1.67-11.73l.39,.78-2.93,1.28-.28-.51,2.82-1.54Z"/><path d="M268.53,42.04c.4,.15,.79,.36,1.17,.65l-.4,.57c-.36-.25-.7-.43-1.02-.55-.32-.11-.67-.17-1.05-.17-.52,0-.94,.12-1.26,.36-.32,.24-.48,.56-.48,.96s.14,.68,.41,.89c.27,.21,.77,.41,1.49,.6,.89,.23,1.53,.52,1.93,.87,.39,.35,.59,.85,.59,1.5,0,.7-.27,1.26-.81,1.67-.54,.41-1.21,.62-2.03,.62-.6,0-1.12-.09-1.57-.26-.45-.17-.86-.42-1.23-.74l.48-.56c.35,.28,.71,.49,1.07,.62,.36,.13,.78,.2,1.24,.2,.58,0,1.05-.13,1.4-.4,.36-.27,.53-.63,.53-1.1,0-.32-.06-.58-.18-.78-.12-.2-.33-.37-.62-.52-.29-.14-.71-.29-1.27-.44-.83-.22-1.43-.5-1.79-.82-.37-.33-.55-.77-.55-1.32,0-.39,.11-.74,.34-1.06,.23-.31,.54-.56,.94-.73,.39-.17,.84-.26,1.33-.26s.94,.07,1.33,.22Z"/><path d="M277.62,42.88c.47,.71,.71,1.7,.71,2.99s-.26,2.26-.77,3.01c-.51,.75-1.25,1.12-2.21,1.12-.47,0-.9-.1-1.28-.29s-.7-.46-.96-.79v3.87l-.87,.12v-10.92h.75l.08,1.14c.29-.41,.64-.73,1.06-.96s.87-.34,1.36-.34c.95,0,1.66,.35,2.14,1.06Zm-.79,5.53c.38-.57,.57-1.42,.57-2.54,0-2.22-.7-3.33-2.08-3.33-.47,0-.88,.12-1.22,.36-.34,.24-.67,.57-.98,.99v4.17c.52,.8,1.21,1.2,2.07,1.2,.72,0,1.27-.29,1.65-.85Z"/><path d="M286.49,46.25h-5.24c.05,1.02,.29,1.78,.73,2.27,.44,.5,1.01,.74,1.72,.74,.41,0,.77-.06,1.09-.19,.31-.12,.66-.32,1.03-.59l.41,.56c-.39,.32-.79,.56-1.2,.72-.41,.16-.87,.24-1.37,.24-1.04,0-1.86-.35-2.45-1.06s-.88-1.7-.88-2.96c0-.83,.13-1.56,.38-2.18,.25-.62,.62-1.11,1.09-1.46,.47-.34,1.03-.52,1.66-.52,1,0,1.76,.34,2.28,1.01,.52,.68,.78,1.6,.78,2.78,0,.22-.01,.43-.03,.63Zm-.83-.9c0-.88-.18-1.57-.55-2.06-.37-.5-.91-.74-1.63-.74-.65,0-1.17,.25-1.58,.75-.4,.5-.62,1.26-.66,2.28h4.41v-.23Zm-.34-7.05l.39,.45-1.93,1.59h-.54l-1.95-1.59,.39-.45,1.83,1.26,1.82-1.26Z"/><path d="M292.25,42.04c.4,.15,.79,.36,1.17,.65l-.4,.57c-.36-.25-.7-.43-1.02-.55-.32-.11-.67-.17-1.05-.17-.52,0-.94,.12-1.26,.36-.32,.24-.48,.56-.48,.96s.14,.68,.41,.89c.27,.21,.77,.41,1.49,.6,.89,.23,1.53,.52,1.93,.87,.39,.35,.59,.85,.59,1.5,0,.7-.27,1.26-.81,1.67-.54,.41-1.21,.62-2.03,.62-.6,0-1.12-.09-1.57-.26-.45-.17-.86-.42-1.23-.74l.48-.56c.35,.28,.71,.49,1.07,.62,.36,.13,.78,.2,1.24,.2,.58,0,1.05-.13,1.4-.4,.36-.27,.53-.63,.53-1.1,0-.32-.06-.58-.18-.78-.12-.2-.33-.37-.62-.52-.29-.14-.71-.29-1.27-.44-.83-.22-1.43-.5-1.79-.82-.37-.33-.55-.77-.55-1.32,0-.39,.11-.74,.34-1.06,.23-.31,.54-.56,.94-.73,.39-.17,.84-.26,1.33-.26s.94,.07,1.33,.22Zm.57-3.74l.39,.45-1.93,1.59h-.54l-1.95-1.59,.39-.45,1.83,1.26,1.82-1.26Z"/><path d="M301.04,42.46c.38,.42,.56,1.01,.56,1.77v5.61h-.87v-5.49c0-.63-.12-1.09-.38-1.38s-.62-.44-1.11-.44-.94,.14-1.33,.41c-.38,.28-.75,.68-1.1,1.21v5.69h-.87v-7.85h.75l.09,1.34c.32-.47,.7-.84,1.14-1.1,.44-.27,.93-.4,1.48-.4,.71,0,1.25,.21,1.63,.63Z"/><path d="M309.85,42.9c.58,.71,.88,1.71,.88,2.99s-.3,2.27-.89,3.01c-.6,.73-1.41,1.1-2.44,1.1s-1.85-.36-2.44-1.09-.88-1.72-.88-2.99c0-.83,.13-1.55,.41-2.17,.27-.62,.65-1.1,1.15-1.43s1.09-.49,1.77-.49c1.04,0,1.85,.36,2.44,1.07Zm-4.21,.52c-.42,.57-.63,1.4-.63,2.5s.21,1.92,.62,2.49c.42,.57,1,.85,1.76,.85s1.35-.29,1.78-.85c.42-.57,.64-1.41,.64-2.52s-.21-1.92-.62-2.48c-.42-.56-1.01-.85-1.78-.85s-1.35,.28-1.77,.85Z"/><path d="M316.53,42.04c.4,.15,.79,.36,1.17,.65l-.4,.57c-.36-.25-.7-.43-1.02-.55-.32-.11-.67-.17-1.05-.17-.52,0-.94,.12-1.26,.36-.32,.24-.48,.56-.48,.96s.14,.68,.41,.89c.27,.21,.77,.41,1.49,.6,.89,.23,1.53,.52,1.93,.87,.39,.35,.59,.85,.59,1.5,0,.7-.27,1.26-.81,1.67-.54,.41-1.21,.62-2.03,.62-.6,0-1.12-.09-1.57-.26-.45-.17-.86-.42-1.23-.74l.48-.56c.35,.28,.71,.49,1.07,.62,.36,.13,.78,.2,1.24,.2,.58,0,1.05-.13,1.4-.4,.36-.27,.53-.63,.53-1.1,0-.32-.06-.58-.18-.78-.12-.2-.33-.37-.62-.52-.29-.14-.71-.29-1.27-.44-.83-.22-1.43-.5-1.79-.82-.37-.33-.55-.77-.55-1.32,0-.39,.11-.74,.34-1.06,.23-.31,.54-.56,.94-.73,.39-.17,.84-.26,1.33-.26s.94,.07,1.33,.22Z"/><path d="M323.81,49.51c-.5,.33-1.05,.5-1.65,.5s-1.07-.18-1.41-.53c-.34-.35-.51-.87-.51-1.54v-5.24h-1.32v-.71h1.32v-1.88l.87-.1v1.98h2.03l-.11,.71h-1.92v5.19c0,.46,.09,.8,.29,1.03,.19,.23,.48,.34,.87,.34s.8-.11,1.2-.35l.34,.6Z"/><path d="M329.83,49.63c-.25-.25-.37-.62-.37-1.11v-9.72l.87-.1v9.79c0,.51,.21,.77,.63,.77,.21,0,.39-.04,.54-.1l.24,.65c-.28,.14-.58,.21-.9,.21-.43,0-.77-.12-1.01-.38Z"/><path d="M339.26,46.25h-5.24c.05,1.02,.29,1.78,.73,2.27,.44,.5,1.01,.74,1.72,.74,.41,0,.77-.06,1.09-.19,.31-.12,.66-.32,1.03-.59l.41,.56c-.39,.32-.79,.56-1.2,.72-.41,.16-.87,.24-1.37,.24-1.04,0-1.86-.35-2.45-1.06s-.88-1.7-.88-2.96c0-.83,.13-1.56,.38-2.18,.25-.62,.62-1.11,1.09-1.46,.47-.34,1.03-.52,1.66-.52,1,0,1.76,.34,2.28,1.01,.52,.68,.78,1.6,.78,2.78,0,.22-.01,.43-.03,.63Zm-.83-.9c0-.88-.18-1.57-.55-2.06-.37-.5-.91-.74-1.63-.74-.65,0-1.17,.25-1.58,.75-.4,.5-.62,1.26-.66,2.28h4.41v-.23Zm-1.04-7.25l.39,.78-2.92,1.28-.29-.51,2.82-1.54Z"/><path d="M345.65,42.01c.35,.12,.69,.33,1.02,.61l-.44,.57c-.26-.21-.53-.36-.8-.46-.28-.1-.59-.15-.94-.15-.74,0-1.33,.29-1.77,.86s-.66,1.41-.66,2.51,.22,1.91,.65,2.46c.43,.55,1.02,.82,1.76,.82,.35,0,.67-.05,.95-.17,.29-.11,.57-.27,.86-.49l.42,.58c-.66,.56-1.41,.84-2.25,.84-.67,0-1.25-.16-1.75-.48s-.89-.78-1.16-1.39c-.27-.6-.41-1.33-.41-2.17s.14-1.56,.41-2.18c.28-.62,.66-1.11,1.16-1.45s1.08-.51,1.74-.51c.45,0,.85,.06,1.2,.19Zm.63-3.71l.39,.45-1.94,1.59h-.54l-1.95-1.59,.39-.45,1.83,1.26,1.82-1.26Z"/><path d="M354.08,46.25h-5.24c.05,1.02,.29,1.78,.73,2.27,.44,.5,1.01,.74,1.72,.74,.41,0,.77-.06,1.09-.19,.31-.12,.66-.32,1.03-.59l.41,.56c-.39,.32-.79,.56-1.2,.72-.41,.16-.87,.24-1.37,.24-1.04,0-1.86-.35-2.45-1.06s-.88-1.7-.88-2.96c0-.83,.13-1.56,.38-2.18,.25-.62,.62-1.11,1.09-1.46,.47-.34,1.03-.52,1.66-.52,1,0,1.76,.34,2.28,1.01,.52,.68,.78,1.6,.78,2.78,0,.22-.01,.43-.03,.63Zm-.83-.9c0-.88-.18-1.57-.55-2.06-.37-.5-.91-.74-1.63-.74-.65,0-1.17,.25-1.58,.75-.4,.5-.62,1.26-.66,2.28h4.41v-.23Z"/><path d="M361.67,42.46c.38,.42,.56,1.01,.56,1.77v5.61h-.87v-5.49c0-.63-.12-1.09-.38-1.38s-.62-.44-1.11-.44-.94,.14-1.33,.41c-.38,.28-.75,.68-1.1,1.21v5.69h-.87v-7.85h.75l.09,1.34c.32-.47,.7-.84,1.14-1.1,.44-.27,.93-.4,1.48-.4,.71,0,1.25,.21,1.63,.63Z"/><path d="M366.9,38.11l.39,.78-2.92,1.28-.29-.51,2.82-1.54Zm-.69,3.88v7.85h-.87v-7.85h.87Z"/><path d="M378.95,42.88c.47,.71,.71,1.7,.71,2.99s-.26,2.26-.77,3.01c-.51,.75-1.25,1.12-2.21,1.12-.47,0-.9-.1-1.28-.29s-.7-.46-.96-.79v3.87l-.87,.12v-10.92h.75l.08,1.14c.29-.41,.64-.73,1.06-.96s.87-.34,1.36-.34c.95,0,1.66,.35,2.14,1.06Zm-.79,5.53c.38-.57,.57-1.42,.57-2.54,0-2.22-.7-3.33-2.08-3.33-.47,0-.88,.12-1.22,.36-.34,.24-.67,.57-.98,.99v4.17c.52,.8,1.21,1.2,2.07,1.2,.72,0,1.27-.29,1.65-.85Z"/><path d="M387.43,42.9c.58,.71,.88,1.71,.88,2.99s-.3,2.27-.89,3.01c-.6,.73-1.41,1.1-2.44,1.1s-1.85-.36-2.44-1.09-.88-1.72-.88-2.99c0-.83,.13-1.55,.41-2.17,.27-.62,.65-1.1,1.15-1.43s1.09-.49,1.77-.49c1.04,0,1.85,.36,2.44,1.07Zm-4.21,.52c-.42,.57-.63,1.4-.63,2.5s.21,1.92,.62,2.49c.42,.57,1,.85,1.76,.85s1.35-.29,1.78-.85c.42-.57,.64-1.41,.64-2.52s-.21-1.92-.62-2.48c-.42-.56-1.01-.85-1.78-.85s-1.35,.28-1.77,.85Z"/><path d="M395.94,42.46c.38,.43,.57,1.01,.57,1.76v5.61h-.87v-5.49c0-1.21-.5-1.81-1.49-1.81-.5,0-.94,.14-1.33,.41-.38,.28-.75,.68-1.1,1.21v5.69h-.87v-11.04l.87-.1v4.6c.7-.98,1.57-1.47,2.59-1.47,.7,0,1.24,.21,1.62,.64Z"/><path d="M401.99,49.87c-.21,.61-.44,1.11-.69,1.5-.25,.39-.58,.71-.98,.97-.4,.25-.92,.44-1.54,.56l-.09-.68c.52-.13,.93-.29,1.22-.48s.53-.43,.71-.71c.17-.28,.35-.68,.53-1.19h-.3l-2.73-7.85h.95l2.37,7.2,2.33-7.2h.92l-2.69,7.88Z"/><path d="M411.84,42.88c.5,.7,.75,1.7,.75,3s-.26,2.27-.79,3.02c-.53,.74-1.26,1.11-2.2,1.11-.47,0-.9-.1-1.28-.31s-.71-.49-.97-.84l-.09,.99h-.77v-11.04l.87-.1v4.4c.62-.84,1.41-1.26,2.36-1.26s1.61,.35,2.11,1.05Zm-.76,5.54c.38-.57,.58-1.42,.58-2.54,0-2.22-.71-3.33-2.12-3.33-.47,0-.88,.12-1.21,.35s-.66,.57-.96,1v4.12c.25,.39,.55,.7,.9,.92,.35,.23,.74,.34,1.17,.34,.71,0,1.26-.29,1.64-.86Z"/><path d="M420.72,49.84h-.75l-.04-1.4c-.62,1.04-1.47,1.56-2.56,1.56-.71,0-1.26-.21-1.64-.62-.39-.42-.58-1.01-.58-1.78v-5.61h.87v5.52c0,.61,.13,1.06,.38,1.34s.64,.43,1.16,.43c.91,0,1.67-.53,2.29-1.6v-5.69h.87v7.85Z"/><path d="M424.77,49.55c0,.68-.08,1.22-.22,1.63-.15,.41-.37,.73-.66,.98s-.7,.49-1.23,.73l-.25-.63c.38-.19,.67-.38,.88-.56,.2-.19,.36-.44,.46-.77,.1-.33,.16-.77,.16-1.34v-7.59h.87v7.56Zm.03-10.83c.12,.12,.18,.27,.18,.45s-.06,.33-.18,.45c-.12,.12-.28,.18-.48,.18-.19,0-.34-.06-.46-.18-.12-.12-.18-.27-.18-.45s.06-.33,.18-.45c.12-.12,.28-.18,.46-.18,.2,0,.36,.06,.48,.18Z"/><path d="M433.49,46.25h-5.24c.05,1.02,.29,1.78,.73,2.27,.44,.5,1.01,.74,1.72,.74,.41,0,.77-.06,1.09-.19,.31-.12,.66-.32,1.03-.59l.41,.56c-.39,.32-.79,.56-1.2,.72-.41,.16-.87,.24-1.37,.24-1.04,0-1.86-.35-2.45-1.06s-.88-1.7-.88-2.96c0-.83,.13-1.56,.38-2.18,.25-.62,.62-1.11,1.09-1.46,.47-.34,1.03-.52,1.66-.52,1,0,1.76,.34,2.28,1.01,.52,.68,.78,1.6,.78,2.78,0,.22-.01,.43-.03,.63Zm-.83-.9c0-.88-.18-1.57-.55-2.06-.37-.5-.91-.74-1.63-.74-.65,0-1.17,.25-1.58,.75-.4,.5-.62,1.26-.66,2.28h4.41v-.23Z"/><path d="M441.05,38.69v11.15h-.87v-11.04l.87-.1Zm4.4,3.3l-3.3,3.51,3.65,4.33h-1.05l-3.6-4.29,3.3-3.56h1.01Z"/><path d="M452.53,42.9c.58,.71,.88,1.71,.88,2.99s-.3,2.27-.89,3.01c-.6,.73-1.41,1.1-2.44,1.1s-1.85-.36-2.44-1.09-.88-1.72-.88-2.99c0-.83,.13-1.55,.41-2.17,.27-.62,.65-1.1,1.15-1.43s1.09-.49,1.77-.49c1.04,0,1.85,.36,2.44,1.07Zm-4.21,.52c-.42,.57-.63,1.4-.63,2.5s.21,1.92,.62,2.49c.42,.57,1,.85,1.76,.85s1.35-.29,1.78-.85c.42-.57,.64-1.41,.64-2.52s-.21-1.92-.62-2.48c-.42-.56-1.01-.85-1.78-.85s-1.35,.28-1.77,.85Z"/><path d="M456.25,49.63c-.25-.25-.37-.62-.37-1.11v-9.72l.87-.1v9.79c0,.51,.21,.77,.63,.77,.21,0,.39-.04,.54-.1l.24,.65c-.28,.14-.58,.21-.9,.21-.43,0-.77-.12-1.01-.38Z"/><path d="M465.68,46.25h-5.24c.05,1.02,.29,1.78,.73,2.27,.44,.5,1.01,.74,1.72,.74,.41,0,.77-.06,1.09-.19,.31-.12,.66-.32,1.03-.59l.41,.56c-.39,.32-.79,.56-1.2,.72-.41,.16-.87,.24-1.37,.24-1.04,0-1.86-.35-2.45-1.06s-.88-1.7-.88-2.96c0-.83,.13-1.56,.38-2.18,.25-.62,.62-1.11,1.09-1.46,.47-.34,1.03-.52,1.66-.52,1,0,1.76,.34,2.28,1.01,.52,.68,.78,1.6,.78,2.78,0,.22-.01,.43-.03,.63Zm-.83-.9c0-.88-.18-1.57-.55-2.06-.37-.5-.91-.74-1.63-.74-.65,0-1.17,.25-1.58,.75-.4,.5-.62,1.26-.66,2.28h4.41v-.23Z"/><path d="M477.32,42.47c.37,.43,.55,1.02,.55,1.76v5.61h-.87v-5.49c0-.62-.12-1.08-.35-1.37-.24-.29-.56-.44-.98-.44-.44,0-.83,.14-1.19,.42-.35,.28-.69,.68-1.02,1.2v5.69h-.87v-5.49c0-.62-.12-1.08-.35-1.37s-.56-.44-.98-.44c-.45,0-.85,.14-1.2,.42-.35,.28-.68,.68-1,1.2v5.69h-.87v-7.85h.75l.08,1.34c.3-.47,.66-.84,1.07-1.1,.41-.27,.86-.4,1.35-.4s.92,.14,1.26,.41c.34,.28,.57,.66,.69,1.15,.31-.49,.67-.87,1.09-1.15,.42-.27,.87-.41,1.37-.41,.63,0,1.13,.21,1.49,.64Z"/><path d="M489.67,40.75c.5,.71,.76,1.69,.76,2.96s-.19,2.35-.56,3.17c-.37,.82-.91,1.48-1.63,1.96-.72,.49-1.66,.92-2.83,1.28l-.22-.68c1.38-.42,2.43-.99,3.16-1.73,.72-.73,1.12-1.73,1.19-3-.3,.44-.66,.78-1.08,1.03s-.88,.37-1.38,.37-.98-.13-1.39-.38-.73-.62-.97-1.09c-.24-.48-.35-1.03-.35-1.67s.13-1.24,.4-1.73,.63-.88,1.09-1.14c.46-.26,.97-.4,1.54-.4,1.01,0,1.77,.35,2.27,1.06Zm-1.17,4.26c.38-.26,.72-.63,1.04-1.12,0-1.19-.16-2.07-.5-2.63s-.88-.85-1.62-.85c-.67,0-1.2,.22-1.58,.67s-.58,1.08-.58,1.9c0,.77,.18,1.36,.53,1.79,.35,.42,.83,.63,1.43,.63,.47,0,.89-.13,1.27-.38Z"/><path d="M497.81,41.01c.53,.88,.79,2.16,.79,3.85s-.27,2.96-.8,3.83c-.53,.88-1.31,1.31-2.33,1.31s-1.81-.44-2.34-1.31c-.53-.88-.79-2.16-.79-3.85s.26-2.97,.79-3.84c.53-.87,1.31-1.31,2.34-1.31s1.81,.44,2.34,1.31Zm-4.58,3.83c0,2.96,.75,4.44,2.24,4.44,.73,0,1.28-.36,1.66-1.08,.38-.72,.56-1.83,.56-3.35s-.19-2.63-.56-3.35-.93-1.09-1.66-1.09c-1.49,0-2.24,1.48-2.24,4.42Z"/><path d="M510.74,42.88c.47,.71,.71,1.7,.71,2.99s-.26,2.26-.77,3.01c-.51,.75-1.25,1.12-2.21,1.12-.47,0-.9-.1-1.28-.29s-.7-.46-.96-.79v3.87l-.87,.12v-10.92h.75l.08,1.14c.29-.41,.64-.73,1.06-.96s.87-.34,1.36-.34c.95,0,1.66,.35,2.14,1.06Zm-.79,5.53c.38-.57,.57-1.42,.57-2.54,0-2.22-.7-3.33-2.08-3.33-.47,0-.88,.12-1.22,.36-.34,.24-.67,.57-.98,.99v4.17c.52,.8,1.21,1.2,2.07,1.2,.72,0,1.27-.29,1.65-.85Z"/><path d="M517.91,41.92l-.17,.82c-.22-.06-.45-.09-.69-.09-.53,0-.96,.19-1.28,.58s-.6,.99-.82,1.81v4.8h-.87v-7.85h.75l.08,1.76c.21-.65,.5-1.13,.86-1.45s.82-.47,1.36-.47c.31,0,.57,.03,.78,.09Z"/><path d="M524.36,42.9c.58,.71,.88,1.71,.88,2.99s-.3,2.27-.89,3.01c-.6,.73-1.41,1.1-2.44,1.1s-1.85-.36-2.44-1.09-.88-1.72-.88-2.99c0-.83,.13-1.55,.41-2.17,.27-.62,.65-1.1,1.15-1.43s1.09-.49,1.77-.49c1.04,0,1.85,.36,2.44,1.07Zm-4.21,.52c-.42,.57-.63,1.4-.63,2.5s.21,1.92,.62,2.49c.42,.57,1,.85,1.76,.85s1.35-.29,1.78-.85c.42-.57,.64-1.41,.64-2.52s-.21-1.92-.62-2.48c-.42-.56-1.01-.85-1.78-.85s-1.35,.28-1.77,.85Z"/><path d="M531.67,42.01c.35,.12,.69,.33,1.02,.61l-.44,.57c-.26-.21-.53-.36-.8-.46-.28-.1-.59-.15-.94-.15-.74,0-1.33,.29-1.77,.86s-.66,1.41-.66,2.51,.22,1.91,.65,2.46c.43,.55,1.02,.82,1.76,.82,.35,0,.67-.05,.95-.17,.29-.11,.57-.27,.86-.49l.42,.58c-.66,.56-1.41,.84-2.25,.84-.67,0-1.25-.16-1.75-.48s-.89-.78-1.16-1.39c-.27-.6-.41-1.33-.41-2.17s.14-1.56,.41-2.18c.28-.62,.66-1.11,1.16-1.45s1.08-.51,1.74-.51c.45,0,.85,.06,1.2,.19Z"/><path d="M540.11,46.25h-5.24c.05,1.02,.29,1.78,.73,2.27,.44,.5,1.01,.74,1.72,.74,.41,0,.77-.06,1.09-.19,.31-.12,.66-.32,1.03-.59l.41,.56c-.39,.32-.79,.56-1.2,.72-.41,.16-.87,.24-1.37,.24-1.04,0-1.86-.35-2.45-1.06s-.88-1.7-.88-2.96c0-.83,.13-1.56,.38-2.18,.25-.62,.62-1.11,1.09-1.46,.47-.34,1.03-.52,1.66-.52,1,0,1.76,.34,2.28,1.01,.52,.68,.78,1.6,.78,2.78,0,.22-.01,.43-.03,.63Zm-.83-.9c0-.88-.18-1.57-.55-2.06-.37-.5-.91-.74-1.63-.74-.65,0-1.17,.25-1.58,.75-.4,.5-.62,1.26-.66,2.28h4.41v-.23Z"/><path d="M547.7,42.46c.38,.42,.56,1.01,.56,1.77v5.61h-.87v-5.49c0-.63-.12-1.09-.38-1.38s-.62-.44-1.11-.44-.94,.14-1.33,.41c-.38,.28-.75,.68-1.1,1.21v5.69h-.87v-7.85h.75l.09,1.34c.32-.47,.7-.84,1.14-1.1,.44-.27,.93-.4,1.48-.4,.71,0,1.25,.21,1.63,.63Z"/><path d="M554.94,49.51c-.5,.33-1.05,.5-1.65,.5s-1.07-.18-1.41-.53c-.34-.35-.51-.87-.51-1.54v-5.24h-1.32v-.71h1.32v-1.88l.87-.1v1.98h2.03l-.11,.71h-1.92v5.19c0,.46,.09,.8,.29,1.03,.19,.23,.48,.34,.87,.34s.8-.11,1.2-.35l.34,.6Z"/></g><g><path d="M283.1,849.99v.96l-4.03,6.96h4.02l-.13,1.03h-5.21v-.96l4.06-6.98h-3.65v-1h4.95Z" style="fill:#999;"/><path d="M289.18,849.33v9.61h-1.04l-.08-.9c-.44,.71-1.04,1.07-1.78,1.07s-1.32-.32-1.74-.95c-.41-.63-.62-1.5-.62-2.61,0-.72,.1-1.35,.31-1.9,.2-.55,.49-.97,.86-1.27,.37-.3,.8-.45,1.29-.45,.65,0,1.19,.27,1.62,.82v-3.55l1.17,.13Zm-1.81,8.59c.23-.17,.44-.43,.64-.77v-3.43c-.39-.58-.84-.87-1.37-.87-.46,0-.82,.22-1.09,.66-.27,.44-.4,1.11-.39,2,0,.91,.12,1.58,.36,2.02,.24,.43,.58,.65,1.03,.65,.31,0,.58-.09,.81-.26Z" style="fill:#999;"/><path d="M294.68,852.02l-.2,1.13c-.17-.05-.34-.08-.53-.08-.38,0-.69,.15-.93,.45-.24,.3-.43,.77-.57,1.39v4.02h-1.17v-6.84h1.01l.09,1.35c.34-1.01,.91-1.51,1.7-1.51,.22,0,.42,.03,.58,.08Z" style="fill:#999;"/><path d="M299.88,852.85c.49,.62,.73,1.5,.73,2.65s-.25,1.99-.74,2.63-1.17,.97-2.04,.97-1.56-.32-2.05-.95c-.49-.63-.73-1.51-.73-2.64s.25-2.02,.74-2.65c.49-.63,1.18-.94,2.05-.94s1.56,.31,2.04,.92Zm-3.21,.66c-.27,.43-.4,1.1-.4,2.01,0,1.78,.52,2.67,1.56,2.67s1.56-.89,1.56-2.68c0-.91-.13-1.58-.39-2s-.65-.64-1.16-.64-.9,.21-1.17,.64Z" style="fill:#999;"/><path d="M303.47,858.66c0,.58-.08,1.05-.23,1.42-.15,.37-.37,.67-.65,.9-.28,.23-.66,.46-1.14,.68l-.36-.85c.3-.16,.54-.31,.7-.47,.17-.16,.29-.36,.38-.62,.09-.26,.13-.61,.13-1.04v-6.59h1.17v6.57Zm-.03-9.57c.14,.15,.21,.33,.21,.55s-.07,.4-.21,.54c-.14,.14-.33,.21-.56,.21s-.41-.07-.55-.21-.21-.32-.21-.54,.07-.4,.21-.55c.14-.15,.33-.22,.55-.22s.41,.07,.55,.22Z" style="fill:#999;"/><path d="M313.49,849.33v9.61h-1.04l-.08-.9c-.44,.71-1.04,1.07-1.78,1.07s-1.32-.32-1.74-.95c-.41-.63-.62-1.5-.62-2.61,0-.72,.1-1.35,.31-1.9,.2-.55,.49-.97,.86-1.27,.37-.3,.8-.45,1.29-.45,.65,0,1.19,.27,1.62,.82v-3.55l1.17,.13Zm-1.81,8.59c.23-.17,.44-.43,.64-.77v-3.43c-.39-.58-.84-.87-1.37-.87-.46,0-.82,.22-1.09,.66-.27,.44-.4,1.11-.39,2,0,.91,.12,1.58,.36,2.02,.24,.43,.58,.65,1.03,.65,.31,0,.58-.09,.81-.26Z" style="fill:#999;"/><path d="M319.98,857.99c.08,.13,.2,.24,.36,.31l-.25,.79c-.34-.05-.6-.16-.79-.31-.19-.16-.33-.39-.4-.72-.44,.69-1.06,1.04-1.86,1.04-.61,0-1.09-.19-1.44-.57s-.53-.88-.53-1.51c0-.73,.24-1.28,.72-1.66,.48-.38,1.16-.57,2.04-.57h.88v-.58c0-.48-.1-.82-.29-1.03-.19-.21-.51-.32-.96-.32-.48,0-1.03,.12-1.66,.36l-.29-.82c.76-.31,1.47-.47,2.13-.47,1.48,0,2.22,.74,2.22,2.22v3.22c0,.28,.04,.48,.12,.62Zm-1.27-.84v-1.61h-.75c-1.13,0-1.69,.47-1.69,1.42,0,.41,.09,.72,.27,.94,.18,.22,.44,.33,.78,.33,.61,0,1.07-.36,1.39-1.07Z" style="fill:#999;"/><path d="M325.21,858.63c-.43,.31-.91,.47-1.44,.47s-.98-.16-1.28-.48-.45-.77-.45-1.35v-4.29h-.98v-.88h.98v-1.57l1.17-.14v1.72h1.51l-.13,.88h-1.38v4.28c0,.59,.25,.88,.74,.88,.15,0,.28-.02,.41-.06,.13-.04,.27-.11,.42-.2l.43,.75Z" style="fill:#999;"/><path d="M327.18,852.86c.15,.16,.23,.35,.23,.58s-.08,.42-.23,.58c-.15,.17-.35,.25-.59,.25s-.43-.08-.58-.25c-.15-.16-.23-.36-.23-.58s.08-.42,.23-.58c.15-.16,.34-.24,.58-.24s.44,.08,.59,.24Zm0,4.84c.15,.16,.23,.35,.23,.58s-.08,.42-.23,.58c-.15,.17-.35,.25-.59,.25s-.43-.08-.58-.25c-.15-.16-.23-.36-.23-.58s.08-.42,.23-.58c.15-.16,.34-.24,.58-.24s.44,.08,.59,.24Z" style="fill:#999;"/><path d="M337.71,856.31c0,.82-.25,1.5-.74,2.02-.49,.52-1.2,.78-2.12,.78s-1.63-.26-2.12-.77-.73-1.19-.73-2.02v-6.32h1.21v6.24c0,1.26,.55,1.89,1.64,1.89s1.64-.63,1.64-1.89v-6.24h1.22v6.32Zm-1.94-9.18l.49,.95-2.52,1.03-.31-.61,2.34-1.37Z" style="fill:#f0f;"/><path d="M344.23,849.99v.96l-4.03,6.96h4.02l-.13,1.03h-5.21v-.96l4.06-6.98h-3.65v-1h4.95Z" style="fill:#f0f;"/><path d="M347,849.99v8.94h-1.21v-8.94h1.21Z" style="fill:#f0f;"/><path d="M352.7,850.08c.39,.17,.76,.43,1.11,.78l-.61,.69c-.29-.26-.59-.45-.88-.58-.29-.13-.6-.19-.94-.19-.43,0-.78,.12-1.05,.36-.26,.24-.4,.55-.4,.94,0,.26,.05,.48,.16,.67,.1,.19,.28,.36,.53,.51,.25,.15,.61,.3,1.07,.46,.53,.19,.96,.39,1.3,.61s.6,.49,.78,.83c.18,.34,.27,.76,.27,1.27s-.12,.97-.35,1.37c-.23,.4-.57,.72-1.01,.95-.44,.23-.95,.34-1.54,.34-1.08,0-2.01-.39-2.77-1.17l.64-.69c.32,.29,.65,.5,.98,.66s.7,.23,1.11,.23c.51,0,.92-.15,1.23-.44s.46-.69,.46-1.2c0-.44-.12-.79-.37-1.05-.25-.26-.7-.5-1.36-.73-.84-.29-1.44-.64-1.81-1.03-.37-.39-.55-.9-.55-1.52,0-.44,.11-.84,.33-1.2,.22-.36,.53-.64,.93-.84s.85-.3,1.35-.3c.53,0,.99,.09,1.38,.26Z" style="fill:#f0f;"/><path d="M360.45,848.44v11.82h-1.09v-11.82h1.09Z" style="fill:#999;"/><path d="M374.83,849.99l-2.47,8.94h-1.44l-2.51-8.94h1.25l2,7.77,1.98-7.77h1.2Z" style="fill:#999;"/><path d="M377.12,849.09c.14,.15,.21,.33,.21,.55s-.07,.4-.21,.54c-.14,.14-.33,.21-.56,.21s-.41-.07-.55-.21-.21-.32-.21-.54,.07-.4,.21-.55c.14-.15,.33-.22,.55-.22s.41,.07,.55,.22Zm.03,3v6.84h-1.17v-6.84h1.17Z" style="fill:#999;"/><path d="M382.99,852.1v.87l-3.24,5h3.25l-.12,.96h-4.42v-.87l3.24-5h-2.96v-.96h4.25Z" style="fill:#999;"/><path d="M388.98,858.93h-1.01l-.07-1.03c-.48,.8-1.11,1.2-1.91,1.2-.55,0-.97-.18-1.29-.53-.31-.36-.47-.84-.47-1.44v-5.03h1.17v4.93c0,.4,.08,.69,.23,.88s.38,.28,.68,.28c.58,0,1.08-.38,1.5-1.14v-4.94h1.17v6.84Z" style="fill:#999;"/><path d="M395.47,857.99c.08,.13,.2,.24,.36,.31l-.25,.79c-.34-.05-.6-.16-.79-.31-.19-.16-.33-.39-.4-.72-.44,.69-1.06,1.04-1.86,1.04-.61,0-1.09-.19-1.44-.57s-.53-.88-.53-1.51c0-.73,.24-1.28,.72-1.66,.48-.38,1.16-.57,2.04-.57h.88v-.58c0-.48-.1-.82-.29-1.03-.19-.21-.51-.32-.96-.32-.48,0-1.03,.12-1.66,.36l-.29-.82c.76-.31,1.47-.47,2.13-.47,1.48,0,2.22,.74,2.22,2.22v3.22c0,.28,.04,.48,.12,.62Zm-1.27-.84v-1.61h-.75c-1.13,0-1.69,.47-1.69,1.42,0,.41,.09,.72,.27,.94,.18,.22,.44,.33,.78,.33,.61,0,1.07-.36,1.39-1.07Z" style="fill:#999;"/><path d="M397.63,858.73c-.24-.25-.36-.6-.36-1.05v-8.35l1.17-.13v8.44c0,.34,.14,.51,.42,.51,.11,0,.24-.03,.38-.08l.26,.82c-.28,.15-.57,.22-.87,.22-.42,0-.75-.12-.99-.38Z" style="fill:#999;"/><path d="M401.9,849.09c.14,.15,.21,.33,.21,.55s-.07,.4-.21,.54c-.14,.14-.33,.21-.56,.21s-.41-.07-.55-.21-.21-.32-.21-.54,.07-.4,.21-.55c.14-.15,.33-.22,.55-.22s.41,.07,.55,.22Zm.03,3v6.84h-1.17v-6.84h1.17Z" style="fill:#999;"/><path d="M407.77,852.1v.87l-3.24,5h3.25l-.12,.96h-4.42v-.87l3.24-5h-2.96v-.96h4.25Z" style="fill:#999;"/><path d="M413.4,857.99c.08,.13,.2,.24,.36,.31l-.25,.79c-.34-.05-.6-.16-.79-.31-.19-.16-.33-.39-.4-.72-.44,.69-1.06,1.04-1.86,1.04-.61,0-1.09-.19-1.44-.57s-.53-.88-.53-1.51c0-.73,.24-1.28,.72-1.66,.48-.38,1.16-.57,2.04-.57h.88v-.58c0-.48-.1-.82-.29-1.03-.19-.21-.51-.32-.96-.32-.48,0-1.03,.12-1.66,.36l-.29-.82c.76-.31,1.47-.47,2.13-.47,1.48,0,2.22,.74,2.22,2.22v3.22c0,.28,.04,.48,.12,.62Zm-1.27-.84v-1.61h-.75c-1.13,0-1.69,.47-1.69,1.42,0,.41,.09,.72,.27,.94,.18,.22,.44,.33,.78,.33,.61,0,1.07-.36,1.39-1.07Z" style="fill:#999;"/><path d="M418.77,852.11c.3,.12,.59,.31,.87,.56l-.52,.7c-.21-.17-.42-.29-.62-.37-.21-.08-.43-.12-.68-.12-.51,0-.91,.22-1.19,.65-.28,.43-.42,1.11-.42,2.03,0,1.72,.54,2.57,1.61,2.57,.24,0,.46-.04,.66-.12,.2-.08,.41-.21,.64-.37l.55,.71c-.55,.5-1.18,.75-1.88,.75-.88,0-1.56-.3-2.06-.91-.5-.61-.75-1.48-.75-2.63,0-.75,.12-1.39,.34-1.94s.55-.97,.97-1.26c.42-.29,.91-.44,1.48-.44,.36,0,.7,.06,1,.18Z" style="fill:#999;"/><path d="M425.47,855.92h-3.98c.04,.8,.2,1.37,.48,1.72,.29,.35,.68,.53,1.17,.53,.31,0,.59-.05,.84-.14,.25-.09,.5-.25,.77-.47l.52,.69c-.64,.57-1.37,.86-2.18,.86-.89,0-1.58-.31-2.07-.93-.49-.62-.73-1.49-.73-2.61s.23-2,.7-2.66,1.12-.98,1.95-.98,1.46,.29,1.9,.88c.44,.58,.66,1.42,.66,2.5,0,.18,0,.39-.03,.61Zm-1.11-.96c0-1.43-.47-2.15-1.42-2.15-.43,0-.78,.18-1.03,.54-.25,.36-.39,.94-.43,1.75h2.87v-.14Z" style="fill:#999;"/><path d="M428.03,852.86c.15,.16,.23,.35,.23,.58s-.08,.42-.23,.58c-.15,.17-.35,.25-.59,.25s-.43-.08-.58-.25c-.15-.16-.23-.36-.23-.58s.08-.42,.23-.58c.15-.16,.34-.24,.58-.24s.44,.08,.59,.24Zm0,4.84c.15,.16,.23,.35,.23,.58s-.08,.42-.23,.58c-.15,.17-.35,.25-.59,.25s-.43-.08-.58-.25c-.15-.16-.23-.36-.23-.58s.08-.42,.23-.58c.15-.16,.34-.24,.58-.24s.44,.08,.59,.24Z" style="fill:#999;"/><path d="M434.07,849.09c.14,.15,.21,.33,.21,.55s-.07,.4-.21,.54c-.14,.14-.33,.21-.56,.21s-.41-.07-.55-.21-.21-.32-.21-.54,.07-.4,.21-.55c.14-.15,.33-.22,.55-.22s.41,.07,.55,.22Zm.03,3v6.84h-1.17v-6.84h1.17Z" style="fill:#999;"/><path d="M440.66,858.93l-1.92-3.81h-1.26v3.81h-1.21v-8.94h2.09c2.13,0,3.2,.84,3.2,2.52,0,.59-.14,1.09-.43,1.5s-.71,.71-1.26,.9l2.13,4.03h-1.34Zm-.82-5.14c.3-.27,.46-.7,.46-1.28,0-.55-.15-.95-.46-1.21s-.81-.39-1.5-.39h-.86v3.29h.97c.62,0,1.09-.14,1.39-.41Z" style="fill:#999;"/><path d="M448.72,851c.61,.79,.92,1.94,.92,3.46s-.3,2.65-.91,3.45c-.61,.8-1.45,1.2-2.52,1.2s-1.9-.39-2.52-1.18c-.61-.79-.92-1.94-.92-3.45,0-1,.14-1.84,.42-2.54,.28-.7,.68-1.22,1.2-1.58,.52-.35,1.12-.53,1.81-.53,1.07,0,1.9,.39,2.52,1.18Zm-4.67,3.48c0,2.44,.72,3.65,2.16,3.65,.71,0,1.25-.29,1.61-.87,.36-.58,.55-1.51,.55-2.79s-.18-2.21-.55-2.79c-.37-.59-.9-.88-1.61-.88-1.44,0-2.16,1.23-2.16,3.69Z" style="fill:#999;"/><path d="M455.65,849.99v.96l-4.03,6.96h4.02l-.13,1.03h-5.21v-.96l4.06-6.98h-3.65v-1h4.95Z" style="fill:#999;"/><path d="M461.67,858.93v-4.2h-3.25v4.2h-1.21v-8.94h1.21v3.76h3.25v-3.76h1.21v8.94h-1.21Z" style="fill:#999;"/><path d="M466.29,849.99v7.92h3.26l-.13,1.03h-4.34v-8.94h1.21Z" style="fill:#999;"/><path d="M475.24,858.93l-.6-2.27h-3l-.6,2.27h-1.21l2.59-8.94h1.48l2.59,8.94h-1.25Zm-3.35-3.22h2.51l-1.25-4.76-1.26,4.76Z" style="fill:#999;"/><path d="M481.18,850.08c.39,.17,.76,.43,1.11,.78l-.61,.69c-.29-.26-.59-.45-.88-.58-.29-.13-.6-.19-.94-.19-.43,0-.78,.12-1.05,.36-.26,.24-.4,.55-.4,.94,0,.26,.05,.48,.16,.67,.1,.19,.28,.36,.53,.51,.25,.15,.61,.3,1.07,.46,.53,.19,.96,.39,1.3,.61s.6,.49,.78,.83c.18,.34,.27,.76,.27,1.27s-.12,.97-.35,1.37c-.23,.4-.57,.72-1.01,.95-.44,.23-.95,.34-1.54,.34-1.08,0-2.01-.39-2.77-1.17l.64-.69c.32,.29,.65,.5,.98,.66s.7,.23,1.11,.23c.51,0,.92-.15,1.23-.44s.46-.69,.46-1.2c0-.44-.12-.79-.37-1.05-.25-.26-.7-.5-1.36-.73-.84-.29-1.44-.64-1.81-1.03-.37-.39-.55-.9-.55-1.52,0-.44,.11-.84,.33-1.2,.22-.36,.53-.64,.93-.84s.85-.3,1.35-.3c.53,0,.99,.09,1.38,.26Z" style="fill:#999;"/><path d="M484.98,857.69c.15,.16,.23,.35,.23,.58s-.08,.42-.23,.58c-.15,.17-.35,.25-.59,.25s-.43-.08-.58-.25c-.15-.16-.23-.36-.23-.58s.08-.42,.23-.58c.15-.16,.34-.24,.58-.24s.44,.08,.59,.24Z" style="fill:#999;"/><path d="M490.08,852.11c.3,.12,.59,.31,.87,.56l-.52,.7c-.21-.17-.42-.29-.62-.37-.21-.08-.43-.12-.68-.12-.51,0-.91,.22-1.19,.65-.28,.43-.42,1.11-.42,2.03,0,1.72,.54,2.57,1.61,2.57,.24,0,.46-.04,.66-.12,.2-.08,.41-.21,.64-.37l.55,.71c-.55,.5-1.18,.75-1.88,.75-.88,0-1.56-.3-2.06-.91-.5-.61-.75-1.48-.75-2.63,0-.75,.12-1.39,.34-1.94s.55-.97,.97-1.26c.42-.29,.91-.44,1.48-.44,.36,0,.7,.06,1,.18Z" style="fill:#999;"/><path d="M496,852.1v.87l-3.24,5h3.25l-.12,.96h-4.42v-.87l3.24-5h-2.96v-.96h4.25Z" style="fill:#999;"/><path d="M498.27,857.69c.15,.16,.22,.35,.22,.57,0,.12-.02,.25-.06,.38s-.1,.32-.19,.56l-.72,1.83h-.73l.48-2.07c-.25-.17-.38-.39-.38-.69,0-.23,.08-.43,.23-.58,.15-.16,.34-.23,.58-.23s.41,.08,.56,.23Z" style="fill:#999;"/><path d="M504.43,849.99v8.94h-1.21v-8.94h1.21Zm4.39,0l-3.03,4.08,3.24,4.86h-1.39l-3.16-4.78,3.05-4.16h1.29Z" style="fill:#999;"/><path d="M514.34,857.99c.08,.13,.2,.24,.36,.31l-.25,.79c-.34-.05-.6-.16-.79-.31-.19-.16-.33-.39-.4-.72-.44,.69-1.06,1.04-1.86,1.04-.61,0-1.09-.19-1.44-.57s-.53-.88-.53-1.51c0-.73,.24-1.28,.72-1.66,.48-.38,1.16-.57,2.04-.57h.88v-.58c0-.48-.1-.82-.29-1.03-.19-.21-.51-.32-.96-.32-.48,0-1.03,.12-1.66,.36l-.29-.82c.76-.31,1.47-.47,2.13-.47,1.48,0,2.22,.74,2.22,2.22v3.22c0,.28,.04,.48,.12,.62Zm-1.27-.84v-1.61h-.75c-1.13,0-1.69,.47-1.69,1.42,0,.41,.09,.72,.27,.94,.18,.22,.44,.33,.78,.33,.61,0,1.07-.36,1.39-1.07Z" style="fill:#999;"/><path d="M519.57,858.63c-.43,.31-.91,.47-1.44,.47s-.98-.16-1.28-.48-.45-.77-.45-1.35v-4.29h-.98v-.88h.98v-1.57l1.17-.14v1.72h1.51l-.13,.88h-1.38v4.28c0,.59,.25,.88,.74,.88,.15,0,.28-.02,.41-.06,.13-.04,.27-.11,.42-.2l.43,.75Z" style="fill:#999;"/><path d="M525.16,855.92h-3.98c.04,.8,.2,1.37,.48,1.72,.29,.35,.68,.53,1.17,.53,.31,0,.59-.05,.84-.14,.25-.09,.5-.25,.77-.47l.52,.69c-.64,.57-1.37,.86-2.18,.86-.89,0-1.58-.31-2.07-.93-.49-.62-.73-1.49-.73-2.61s.23-2,.7-2.66,1.12-.98,1.95-.98,1.46,.29,1.9,.88c.44,.58,.66,1.42,.66,2.5,0,.18,0,.39-.03,.61Zm-1.11-.96c0-1.43-.47-2.15-1.42-2.15-.43,0-.78,.18-1.03,.54-.25,.36-.39,.94-.43,1.75h2.87v-.14Z" style="fill:#999;"/><path d="M529.99,848.75l.46,.52-1.57,1.51h-.73l-1.57-1.51,.46-.52,1.48,1.14,1.48-1.14Zm.21,3.26l-.2,1.13c-.17-.05-.34-.08-.53-.08-.38,0-.69,.15-.93,.45-.24,.3-.43,.77-.57,1.39v4.02h-1.17v-6.84h1.01l.09,1.35c.34-1.01,.91-1.51,1.7-1.51,.22,0,.42,.03,.58,.08Z" style="fill:#999;"/><path d="M532.48,849.09c.14,.15,.21,.33,.21,.55s-.07,.4-.21,.54c-.14,.14-.33,.21-.56,.21s-.41-.07-.55-.21-.21-.32-.21-.54,.07-.4,.21-.55c.14-.15,.33-.22,.55-.22s.41,.07,.55,.22Zm.03,3v6.84h-1.17v-6.84h1.17Z" style="fill:#999;"/><path d="M538.96,852.47c.31,.36,.46,.86,.46,1.49v4.98h-1.17v-4.84c0-.44-.07-.76-.22-.96-.15-.2-.37-.29-.68-.29-.57,0-1.09,.41-1.56,1.22v4.86h-1.17v-6.84h1.01l.09,1.01c.53-.79,1.18-1.18,1.95-1.18,.55,0,.97,.18,1.28,.54Z" style="fill:#999;"/><path d="M545.85,857.99c.08,.13,.2,.24,.36,.31l-.25,.79c-.34-.05-.6-.16-.79-.31-.19-.16-.33-.39-.4-.72-.44,.69-1.06,1.04-1.86,1.04-.61,0-1.09-.19-1.44-.57s-.53-.88-.53-1.51c0-.73,.24-1.28,.72-1.66,.48-.38,1.16-.57,2.04-.57h.88v-.58c0-.48-.1-.82-.29-1.03-.19-.21-.51-.32-.96-.32-.48,0-1.03,.12-1.66,.36l-.29-.82c.76-.31,1.47-.47,2.13-.47,1.48,0,2.22,.74,2.22,2.22v3.22c0,.28,.04,.48,.12,.62Zm-1.27-.84v-1.61h-.75c-1.13,0-1.69,.47-1.69,1.42,0,.41,.09,.72,.27,.94,.18,.22,.44,.33,.78,.33,.61,0,1.07-.36,1.39-1.07Z" style="fill:#999;"/><path d="M552.16,849.99v8.94h-1.21v-8.94h1.21Zm4.39,0l-3.03,4.08,3.24,4.86h-1.39l-3.16-4.78,3.05-4.16h1.29Z" style="fill:#999;"/><path d="M562.01,852.85c.49,.62,.73,1.5,.73,2.65s-.25,1.99-.74,2.63-1.17,.97-2.04,.97-1.56-.32-2.05-.95c-.49-.63-.73-1.51-.73-2.64s.25-2.02,.74-2.65c.49-.63,1.18-.94,2.05-.94s1.56,.31,2.04,.92Zm-3.21,.66c-.27,.43-.4,1.1-.4,2.01,0,1.78,.52,2.67,1.56,2.67s1.56-.89,1.56-2.68c0-.91-.13-1.58-.39-2s-.65-.64-1.16-.64-.9,.21-1.17,.64Z" style="fill:#999;"/><path d="M564.73,858.73c-.24-.25-.36-.6-.36-1.05v-8.35l1.17-.13v8.44c0,.34,.14,.51,.42,.51,.11,0,.24-.03,.38-.08l.26,.82c-.28,.15-.57,.22-.87,.22-.42,0-.75-.12-.99-.38Z" style="fill:#999;"/><path d="M572.21,852.85c.49,.62,.73,1.5,.73,2.65s-.25,1.99-.74,2.63-1.17,.97-2.04,.97-1.56-.32-2.05-.95c-.49-.63-.73-1.51-.73-2.64s.25-2.02,.74-2.65c.49-.63,1.18-.94,2.05-.94s1.56,.31,2.04,.92Zm-3.21,.66c-.27,.43-.4,1.1-.4,2.01,0,1.78,.52,2.67,1.56,2.67s1.56-.89,1.56-2.68c0-.91-.13-1.58-.39-2s-.65-.64-1.16-.64-.9,.21-1.17,.64Z" style="fill:#999;"/><path d="M579.33,858.93h-1.01l-.07-1.03c-.48,.8-1.11,1.2-1.91,1.2-.55,0-.97-.18-1.29-.53-.31-.36-.47-.84-.47-1.44v-5.03h1.17v4.93c0,.4,.08,.69,.23,.88s.38,.28,.68,.28c.58,0,1.08-.38,1.5-1.14v-4.94h1.17v6.84Z" style="fill:#999;"/><path d="M584.81,852.11c.3,.12,.59,.31,.87,.56l-.52,.7c-.21-.17-.42-.29-.62-.37-.21-.08-.43-.12-.68-.12-.51,0-.91,.22-1.19,.65-.28,.43-.42,1.11-.42,2.03,0,1.72,.54,2.57,1.61,2.57,.24,0,.46-.04,.66-.12,.2-.08,.41-.21,.64-.37l.55,.71c-.55,.5-1.18,.75-1.88,.75-.88,0-1.56-.3-2.06-.91-.5-.61-.75-1.48-.75-2.63,0-.75,.12-1.39,.34-1.94s.55-.97,.97-1.26c.42-.29,.91-.44,1.48-.44,.36,0,.7,.06,1,.18Z" style="fill:#999;"/><path d="M591.33,852.47c.31,.36,.46,.86,.46,1.48v4.98h-1.17v-4.84c0-.44-.08-.76-.23-.96-.15-.2-.38-.29-.67-.29-.57,0-1.09,.41-1.56,1.22v4.86h-1.17v-9.59l1.17-.13v3.86c.25-.37,.53-.66,.83-.85,.3-.2,.65-.29,1.05-.29,.55,0,.97,.18,1.28,.55Z" style="fill:#999;"/><path d="M598.27,852.85c.49,.62,.73,1.5,.73,2.65s-.25,1.99-.74,2.63-1.17,.97-2.04,.97-1.56-.32-2.05-.95c-.49-.63-.73-1.51-.73-2.64s.25-2.02,.74-2.65c.49-.63,1.18-.94,2.05-.94s1.56,.31,2.04,.92Zm-3.21,.66c-.27,.43-.4,1.1-.4,2.01,0,1.78,.52,2.67,1.56,2.67s1.56-.89,1.56-2.68c0-.91-.13-1.58-.39-2s-.65-.64-1.16-.64-.9,.21-1.17,.64Z" style="fill:#999;"/><path d="M605.25,852.1l-2.04,6.84h-1.4l-2.11-6.84h1.22l1.59,5.85,1.57-5.85h1.17Z" style="fill:#999;"/><path d="M610.62,857.99c.08,.13,.2,.24,.36,.31l-.25,.79c-.34-.05-.6-.16-.79-.31-.19-.16-.33-.39-.4-.72-.44,.69-1.06,1.04-1.86,1.04-.61,0-1.09-.19-1.44-.57s-.53-.88-.53-1.51c0-.73,.24-1.28,.72-1.66,.48-.38,1.16-.57,2.04-.57h.88v-.58c0-.48-.1-.82-.29-1.03-.19-.21-.51-.32-.96-.32-.48,0-1.03,.12-1.66,.36l-.29-.82c.76-.31,1.47-.47,2.13-.47,1.48,0,2.22,.74,2.22,2.22v3.22c0,.28,.04,.48,.12,.62Zm-1.49-9.42l.49,.94-2.5,1.13-.34-.6,2.34-1.47Zm.22,8.58v-1.61h-.75c-1.13,0-1.69,.47-1.69,1.42,0,.41,.09,.72,.27,.94,.18,.22,.44,.33,.78,.33,.61,0,1.07-.36,1.39-1.07Z" style="fill:#999;"/></g><g><path d="M223.05,274.97c1.09,1.74,1.64,4.27,1.64,7.58,0,2.02-.28,3.79-.83,5.33-.55,1.54-1.34,2.72-2.38,3.56-1.03,.84-2.26,1.26-3.67,1.26-.91,0-1.75-.21-2.52-.63-.77-.42-1.43-1.01-1.98-1.78l-.25,1.8h-4.93v-26.71l5.54-.58v10.04c.53-.77,1.2-1.37,2.02-1.82,.82-.44,1.7-.67,2.66-.67,2.04,0,3.61,.87,4.7,2.61Zm-4.81,12.31c.48-.92,.72-2.5,.72-4.73,0-2.38-.22-3.99-.65-4.84-.43-.85-1.06-1.28-1.87-1.28-.53,0-1.03,.19-1.49,.58-.47,.38-.89,.91-1.28,1.58v8.28c.67,1.2,1.51,1.8,2.52,1.8,.89,0,1.57-.46,2.05-1.39Z"/><path d="M242.58,292.09h-4.82l-.25-2.3c-1.25,1.94-2.94,2.92-5.08,2.92-1.56,0-2.77-.52-3.62-1.55s-1.28-2.42-1.28-4.18v-14h5.54v13.57c0,1.37,.48,2.05,1.44,2.05s1.78-.7,2.52-2.09v-13.54h5.54v19.12Z"/><path d="M262.2,265.38v26.71h-4.9l-.25-2.12c-1.22,1.82-2.84,2.74-4.86,2.74-2.14,0-3.77-.89-4.9-2.68-1.13-1.79-1.69-4.29-1.69-7.51,0-2.02,.29-3.79,.88-5.33,.59-1.54,1.42-2.72,2.48-3.56,1.07-.84,2.3-1.26,3.69-1.26,1.61,0,2.94,.59,4,1.76v-9.32l5.54,.58Zm-6.77,22.77c.43-.32,.84-.82,1.22-1.49v-8.68c-.38-.53-.76-.92-1.13-1.17-.37-.25-.81-.38-1.31-.38-1.92,0-2.88,2.03-2.88,6.08,0,2.28,.23,3.87,.68,4.77,.46,.9,1.1,1.35,1.94,1.35,.55,0,1.04-.16,1.48-.49Z"/><path d="M281.39,284.17h-10.66c.14,1.68,.52,2.84,1.12,3.49,.6,.65,1.45,.97,2.56,.97,.72,0,1.4-.13,2.05-.4,.65-.26,1.36-.67,2.12-1.22l2.27,3.06c-1.97,1.75-4.26,2.63-6.88,2.63-2.88,0-5.07-.89-6.57-2.68-1.5-1.79-2.25-4.25-2.25-7.4s.72-5.55,2.16-7.43c1.44-1.88,3.47-2.83,6.08-2.83s4.5,.85,5.94,2.54c1.44,1.69,2.16,4.11,2.16,7.25,0,.77-.04,1.44-.11,2.02Zm-5.33-3.6c0-1.51-.2-2.65-.59-3.4-.4-.76-1.06-1.13-2-1.13-.84,0-1.49,.35-1.94,1.06-.46,.71-.73,1.95-.83,3.73h5.36v-.25Z"/><path d="M306.65,274.97c1.09,1.74,1.64,4.27,1.64,7.58,0,2.02-.28,3.79-.83,5.33-.55,1.54-1.34,2.72-2.38,3.56-1.03,.84-2.26,1.26-3.67,1.26-.91,0-1.75-.21-2.52-.63-.77-.42-1.43-1.01-1.98-1.78l-.25,1.8h-4.93v-26.71l5.54-.58v10.04c.53-.77,1.2-1.37,2.02-1.82,.82-.44,1.7-.67,2.66-.67,2.04,0,3.61,.87,4.7,2.61Zm-4.81,12.31c.48-.92,.72-2.5,.72-4.73,0-2.38-.22-3.99-.65-4.84-.43-.85-1.06-1.28-1.87-1.28-.53,0-1.03,.19-1.49,.58-.47,.38-.89,.91-1.28,1.58v8.28c.67,1.2,1.51,1.8,2.52,1.8,.89,0,1.57-.46,2.05-1.39Z"/><path d="M326.18,292.09h-4.82l-.25-2.3c-1.25,1.94-2.94,2.92-5.08,2.92-1.56,0-2.77-.52-3.62-1.55s-1.28-2.42-1.28-4.18v-14h5.54v13.57c0,1.37,.48,2.05,1.44,2.05s1.78-.7,2.52-2.09v-13.54h5.54v19.12Z"/><path d="M345.8,265.38v26.71h-4.9l-.25-2.12c-1.22,1.82-2.84,2.74-4.86,2.74-2.14,0-3.77-.89-4.9-2.68-1.13-1.79-1.69-4.29-1.69-7.51,0-2.02,.29-3.79,.88-5.33,.59-1.54,1.42-2.72,2.48-3.56,1.07-.84,2.3-1.26,3.69-1.26,1.61,0,2.94,.59,4,1.76v-9.32l5.54,.58Zm-6.77,22.77c.43-.32,.84-.82,1.22-1.49v-8.68c-.38-.53-.76-.92-1.13-1.17-.37-.25-.81-.38-1.31-.38-1.92,0-2.88,2.03-2.88,6.08,0,2.28,.23,3.87,.68,4.77,.46,.9,1.1,1.35,1.94,1.35,.55,0,1.04-.16,1.48-.49Z"/><path d="M364.98,284.17h-10.66c.14,1.68,.52,2.84,1.12,3.49,.6,.65,1.45,.97,2.56,.97,.72,0,1.4-.13,2.05-.4,.65-.26,1.36-.67,2.12-1.22l2.27,3.06c-1.97,1.75-4.26,2.63-6.88,2.63-2.88,0-5.07-.89-6.57-2.68-1.5-1.79-2.25-4.25-2.25-7.4s.72-5.55,2.16-7.43c1.44-1.88,3.47-2.83,6.08-2.83s4.5,.85,5.94,2.54c1.44,1.69,2.16,4.11,2.16,7.25,0,.77-.04,1.44-.11,2.02Zm-5.33-3.6c0-1.51-.2-2.65-.59-3.4-.4-.76-1.06-1.13-2-1.13-.84,0-1.49,.35-1.94,1.06-.46,.71-.73,1.95-.83,3.73h5.36v-.25Z"/></g><circle cx="285.16" cy="286.26" r="185.54" style="opacity:.1;"/></svg>